{"glyphs":{"0":{"ha":777,"x_min":56,"x_max":721,"o":"m 391 -14 q 240 19 303 -14 q 136 113 177 52 q 76 262 96 174 q 56 461 56 351 q 77 657 56 569 q 139 807 98 745 q 244 902 181 869 q 391 936 307 936 q 542 905 479 936 q 645 815 605 874 q 703 670 684 756 q 721 473 721 584 q 701 276 721 366 q 641 122 682 186 q 538 22 601 58 q 391 -14 476 -14 m 390 96 q 469 126 436 96 q 522 207 501 156 q 552 327 543 258 q 562 473 562 396 q 552 623 562 557 q 522 734 543 688 q 469 803 502 779 q 391 827 437 827 q 310 800 343 827 q 255 724 276 773 q 224 608 234 675 q 215 461 215 541 q 224 314 215 381 q 255 198 234 247 q 309 123 276 150 q 390 96 342 96 z "},"1":{"ha":486,"x_min":58,"x_max":349,"o":"m 203 788 q 164 772 187 781 q 117 758 140 764 l 105 760 q 80 784 90 768 q 66 814 71 799 q 58 850 60 831 q 129 879 96 865 q 185 905 161 893 q 237 930 213 918 l 349 930 l 349 0 l 203 0 l 203 788 z "},"2":{"ha":652,"x_min":45,"x_max":618,"o":"m 49 104 q 204 240 139 178 q 314 354 269 302 q 387 448 359 406 q 429 526 414 491 q 449 591 444 562 q 454 646 454 621 q 441 719 454 687 q 407 774 429 751 q 355 809 385 797 q 294 821 326 821 q 236 811 264 821 q 183 788 208 802 q 137 758 158 774 q 101 724 117 741 q 74 770 85 749 q 56 807 63 791 q 45 840 49 825 q 78 865 55 849 q 135 897 100 882 q 214 924 169 913 q 315 936 259 936 q 429 917 378 936 q 517 863 481 898 q 573 779 553 828 q 593 668 593 729 q 587 591 593 629 q 567 513 582 553 q 526 430 552 473 q 458 338 500 387 q 359 233 417 289 q 221 113 300 178 q 288 114 254 113 q 356 116 322 115 q 422 120 390 118 q 484 123 455 121 q 616 132 551 127 q 616 119 616 126 q 617 105 617 113 q 618 91 618 98 q 614 46 618 71 q 597 0 610 21 l 49 0 l 49 104 z "},"3":{"ha":686,"x_min":30,"x_max":625,"o":"m 30 42 q 39 76 33 58 q 53 112 44 92 q 78 157 62 133 q 140 130 108 142 q 205 111 169 119 q 279 103 241 103 q 355 117 320 103 q 415 155 389 130 q 454 213 440 179 q 469 290 469 248 q 458 339 469 314 q 427 384 448 363 q 373 416 406 404 q 295 429 340 429 l 218 429 q 211 463 214 447 q 209 492 209 479 q 211 524 209 510 q 214 540 212 532 l 295 540 q 345 551 321 540 q 387 582 369 562 q 415 630 405 602 q 425 692 425 658 q 415 747 425 723 q 385 787 404 770 q 339 811 366 803 q 281 820 313 820 q 213 811 245 820 q 157 793 180 803 q 104 766 128 781 q 79 810 89 789 q 64 846 70 830 q 56 880 58 863 q 127 907 89 895 q 202 927 159 918 q 294 936 245 936 q 508 878 432 936 q 585 704 585 821 q 574 629 585 663 q 543 567 563 594 q 496 519 524 539 q 434 488 468 500 q 510 459 475 479 q 571 413 545 440 q 611 351 596 385 q 625 275 625 316 q 601 153 625 207 q 532 62 576 100 q 424 6 487 25 q 281 -14 360 -14 q 185 -5 231 -14 q 104 14 139 3 q 30 42 64 26 z "},"4":{"ha":747,"x_min":19,"x_max":704,"o":"m 62 248 q 40 283 48 264 q 26 317 31 302 q 19 354 21 336 l 337 967 q 398 951 370 960 q 446 932 422 943 q 480 909 469 922 l 481 899 q 397 754 440 830 q 357 684 378 722 q 313 607 336 647 q 266 525 290 567 q 219 439 242 482 l 152 353 l 436 353 l 436 537 q 487 565 460 555 q 536 580 513 574 q 589 587 564 585 l 589 353 l 701 353 q 703 342 702 348 q 704 333 703 338 q 704 323 704 328 q 700 290 704 308 q 684 248 696 272 l 589 248 l 589 0 l 436 0 l 436 248 l 62 248 l 62 248 z "},"5":{"ha":673,"x_min":45,"x_max":620,"o":"m 45 42 q 54 76 48 58 q 69 113 60 92 q 94 157 78 134 q 142 130 115 142 q 196 112 165 120 q 261 103 227 103 q 360 120 321 103 q 424 163 400 136 q 457 223 448 190 q 467 290 467 256 q 420 420 467 378 q 285 461 374 461 q 233 456 258 461 q 190 444 209 450 q 149 428 168 437 q 123 455 134 441 q 107 479 113 469 q 96 503 100 492 q 105 648 100 575 q 110 714 107 680 q 114 784 112 749 q 118 855 116 820 q 121 922 120 890 l 589 922 q 589 912 589 918 q 590 901 590 907 q 591 888 591 895 q 586 846 591 873 q 565 789 581 820 q 471 793 522 791 q 371 795 427 794 q 253 797 315 797 l 236 545 q 289 558 262 555 q 340 562 315 562 q 456 543 404 562 q 544 491 508 525 q 600 410 581 458 q 620 304 620 363 q 597 173 620 231 q 531 73 574 114 q 425 9 488 31 q 281 -14 361 -14 q 190 -5 233 -14 q 115 14 148 3 q 45 42 78 26 z "},"6":{"ha":793,"x_min":98,"x_max":715,"o":"m 98 416 q 122 644 98 546 q 192 806 146 741 q 303 904 237 871 q 454 936 370 936 q 545 929 506 936 q 611 914 584 922 q 665 893 642 905 q 659 861 665 879 q 644 824 654 846 q 614 777 634 803 q 572 795 596 787 q 522 807 552 802 q 454 813 492 813 q 361 790 399 813 q 298 730 323 768 q 262 645 274 692 q 248 546 250 597 q 277 563 258 553 q 324 580 297 572 q 383 593 351 588 q 450 599 415 599 q 555 582 507 599 q 640 528 604 564 q 695 434 675 491 q 715 298 715 378 q 692 171 715 227 q 629 75 670 114 q 532 14 589 35 q 406 -7 475 -7 q 255 26 314 -7 q 160 117 195 60 q 112 251 125 174 q 98 416 98 328 m 248 433 q 246 373 245 407 q 252 304 247 340 q 269 233 258 268 q 297 172 279 199 q 341 128 315 144 q 403 111 368 111 q 476 126 446 111 q 525 168 506 142 q 553 230 545 195 q 562 305 562 265 q 520 442 562 395 q 406 488 477 488 q 361 484 384 488 q 317 473 338 480 q 278 456 296 466 q 248 433 260 446 z "},"7":{"ha":668,"x_min":65,"x_max":644,"o":"m 142 30 q 210 179 177 106 q 273 319 243 252 q 330 447 303 387 q 380 559 357 507 q 477 782 433 680 q 330 781 400 781 q 205 779 260 780 q 87 777 142 777 q 69 818 73 795 q 65 858 65 840 q 65 877 65 866 q 67 898 66 888 q 69 921 68 909 l 618 921 l 644 870 q 575 719 612 808 q 495 517 538 629 q 405 272 453 405 q 302 -12 357 138 l 286 -18 q 231 -9 257 -16 q 185 7 205 -2 q 142 30 162 17 z "},"8":{"ha":785,"x_min":73,"x_max":711,"o":"m 73 249 q 86 325 73 288 q 122 393 99 362 q 176 447 144 424 q 243 480 207 469 q 142 557 179 505 q 104 686 104 610 q 124 787 104 741 q 182 866 144 833 q 273 918 219 899 q 393 936 326 936 q 510 918 457 936 q 600 866 562 899 q 659 787 637 833 q 680 686 680 741 q 670 618 680 650 q 642 560 660 587 q 597 513 623 533 q 538 481 571 493 q 607 449 575 471 q 661 398 638 428 q 697 330 684 368 q 711 249 711 292 q 686 139 711 188 q 619 57 662 91 q 518 5 576 23 q 393 -14 460 -14 q 264 5 323 -14 q 163 58 205 24 q 97 141 121 92 q 73 249 73 189 m 231 250 q 245 184 231 214 q 281 134 258 155 q 332 102 303 113 q 393 91 361 91 q 451 102 422 91 q 503 134 480 113 q 539 184 525 155 q 553 250 553 214 q 543 311 553 280 q 513 367 533 342 q 463 408 493 392 q 393 424 433 424 q 318 409 349 424 q 268 370 288 394 q 240 314 249 345 q 231 250 231 283 m 393 530 q 444 540 419 530 q 487 568 468 549 q 516 615 505 587 q 528 680 528 644 q 516 745 528 717 q 487 793 505 774 q 444 822 468 812 q 393 831 419 831 q 338 821 363 831 q 295 791 313 810 q 267 744 277 772 q 257 680 257 715 q 267 617 257 645 q 294 570 277 589 q 337 541 312 551 q 393 530 363 530 z "},"9":{"ha":787,"x_min":99,"x_max":703,"o":"m 703 520 q 611 126 703 259 q 340 -7 519 -7 q 251 0 289 -7 q 187 14 213 6 q 135 36 157 24 q 139 77 135 56 q 150 117 142 95 q 172 159 157 139 q 219 137 193 146 q 272 122 241 129 q 340 116 302 116 q 439 140 400 116 q 502 203 478 164 q 535 293 525 243 q 548 397 545 344 q 520 376 538 387 q 476 354 501 364 q 421 337 452 344 q 357 330 391 330 q 254 348 302 330 q 172 401 207 365 q 118 495 138 438 q 99 631 99 551 q 120 759 99 702 q 181 854 142 815 q 274 915 220 894 q 395 936 329 936 q 546 904 486 936 q 640 815 605 871 q 689 684 675 760 q 703 520 703 608 m 547 631 q 534 700 543 666 q 508 760 526 733 q 464 802 491 786 q 397 818 437 818 q 331 803 359 818 q 286 761 303 787 q 260 699 268 734 q 252 624 252 664 q 292 487 252 533 q 401 441 332 441 q 444 447 422 441 q 484 462 465 452 q 519 484 503 472 q 548 509 536 496 q 550 566 550 535 q 547 631 549 596 z "},"B":{"ha":791,"x_min":107,"x_max":734,"o":"m 107 921 l 446 921 q 547 906 500 921 q 627 862 593 892 q 681 789 661 833 q 701 688 701 745 q 690 627 701 657 q 661 571 680 597 q 617 525 642 545 q 563 495 592 505 q 624 472 593 490 q 679 425 654 454 q 719 357 703 396 q 734 271 734 318 q 714 157 734 207 q 656 72 695 106 q 561 18 618 37 q 429 0 504 0 l 107 0 l 107 921 m 412 115 q 480 123 450 115 q 532 150 510 132 q 565 197 553 168 q 577 269 577 227 q 565 340 577 311 q 533 387 553 369 q 484 412 512 405 q 423 420 456 420 l 261 420 l 261 115 l 412 115 m 452 522 q 522 577 500 536 q 544 685 544 617 q 510 775 544 743 q 416 807 476 807 l 261 807 l 261 522 l 452 522 z "},"C":{"ha":725,"x_min":35,"x_max":669,"o":"m 35 452 q 62 659 35 568 q 142 811 89 749 q 272 906 195 873 q 450 939 349 939 q 528 933 490 939 q 599 920 567 927 q 669 901 635 911 q 663 864 667 884 q 653 824 660 846 q 634 779 646 802 q 579 796 609 789 q 520 808 553 803 q 450 814 487 814 q 341 789 389 814 q 258 719 292 765 q 205 605 224 672 q 187 452 187 538 q 205 303 187 368 q 258 195 224 239 q 341 130 292 152 q 450 108 389 108 q 522 113 488 108 q 583 125 557 119 q 641 144 614 133 q 654 109 648 128 q 662 70 659 93 q 665 19 666 47 q 597 1 633 8 q 528 -12 566 -7 q 450 -18 490 -18 q 139 101 243 -18 q 35 452 35 219 z "},"H":{"ha":881,"x_min":107,"x_max":774,"o":"m 107 921 l 261 921 l 261 530 l 621 530 l 621 921 l 774 921 l 774 0 l 621 0 l 621 412 l 261 412 l 261 0 l 107 0 l 107 921 z "},"I":{"ha":368,"x_min":107,"x_max":260,"o":"m 107 921 l 260 921 l 260 0 l 107 0 l 107 921 z "},"J":{"ha":429,"x_min":27,"x_max":305,"o":"m 151 921 l 305 921 l 305 83 q 293 -15 305 28 q 253 -91 280 -58 q 182 -146 225 -123 q 79 -182 139 -168 q 56 -142 66 -162 q 40 -106 47 -122 q 27 -69 33 -87 q 80 -51 57 -63 q 119 -17 103 -39 q 143 37 135 4 q 151 117 151 69 l 151 921 z "}," ":{"ha":389,"x_min":0,"x_max":0,"o":""},",":{"ha":293,"x_min":-16,"x_max":229,"o":"m -16 -230 q 30 -123 9 -180 q 61 -8 47 -73 q 75 132 75 58 q 91 134 79 133 q 119 136 102 136 q 147 134 132 136 q 177 127 162 132 q 205 115 192 123 q 229 94 218 107 q 222 24 229 58 q 204 -44 215 -11 q 179 -107 193 -77 q 151 -163 165 -137 q 75 -277 117 -224 q 39 -271 56 -275 q 9 -261 25 -268 q -16 -240 -6 -254 l -16 -230 l -16 -230 z "},".":{"ha":266,"x_min":33,"x_max":233,"o":"m 33 94 q 40 130 33 113 q 62 159 48 146 q 94 179 75 172 q 133 186 112 186 q 172 179 154 186 q 204 159 191 172 q 225 130 218 146 q 233 94 233 113 q 225 57 233 74 q 204 27 218 39 q 172 7 191 14 q 133 -1 154 -1 q 94 7 112 -1 q 62 27 75 14 q 40 57 48 39 q 33 94 33 74 z "},"`":{"ha":374,"x_min":-80,"x_max":206,"o":"m -80 996 q -61 1020 -75 1006 q -28 1049 -46 1035 q 9 1074 -9 1063 q 40 1088 28 1085 l 206 854 q 195 837 203 846 q 178 819 188 827 q 156 804 168 811 q 135 793 145 797 l -80 996 z "},"a":{"ha":673,"x_min":43,"x_max":638,"o":"m 43 198 q 60 294 43 254 q 107 358 76 333 q 184 396 139 383 q 288 412 229 408 l 439 420 l 439 474 q 432 534 439 511 q 411 572 426 558 q 371 592 396 587 q 310 598 347 598 q 240 590 273 598 q 183 572 208 582 q 130 547 154 561 q 106 587 115 568 q 92 622 97 606 q 84 656 86 640 q 154 684 117 672 q 229 704 186 695 q 318 713 271 713 q 446 699 395 713 q 527 658 497 686 q 569 589 557 631 q 581 490 581 547 l 581 112 l 638 43 l 638 0 l 513 0 l 460 60 l 436 60 q 418 45 433 57 q 381 20 404 33 q 329 -3 358 7 q 268 -14 300 -14 q 176 2 217 -14 q 105 45 134 17 q 59 112 75 73 q 43 198 43 151 m 191 210 q 200 158 191 179 q 225 125 209 138 q 263 109 241 113 q 314 104 286 104 q 362 110 340 104 q 402 125 385 117 q 439 146 422 134 l 439 328 l 302 319 q 249 309 271 317 q 215 286 228 300 q 197 252 202 271 q 191 210 191 233 z "},"b":{"ha":739,"x_min":92,"x_max":685,"o":"m 92 976 l 236 976 l 236 652 l 240 652 q 259 667 245 656 q 296 687 273 677 q 349 705 319 697 q 417 713 379 713 q 517 696 469 713 q 603 640 566 680 q 663 532 640 600 q 685 360 685 464 q 658 197 685 267 q 585 80 631 127 q 477 10 538 33 q 347 -14 416 -14 q 238 -9 286 -14 q 159 2 191 -4 q 92 18 121 9 l 92 976 m 236 106 q 266 97 245 102 q 317 92 286 92 q 477 161 422 92 q 532 360 532 231 q 519 479 532 432 q 481 553 506 526 q 422 591 457 581 q 343 602 387 602 q 306 596 325 602 q 271 583 287 591 q 236 565 253 575 l 236 106 z "},"c":{"ha":582,"x_min":54,"x_max":549,"o":"m 54 348 q 75 506 54 437 q 139 620 97 574 q 241 689 180 666 q 380 713 302 713 q 437 707 408 713 q 490 696 467 702 q 543 679 517 688 q 537 640 541 660 q 527 601 534 622 q 511 561 521 581 q 472 575 493 568 q 430 585 454 581 q 380 590 406 590 q 301 573 334 590 q 245 525 267 557 q 212 449 222 494 q 201 349 201 404 q 248 163 201 227 q 387 100 295 100 q 438 105 414 100 q 482 115 463 109 q 524 130 505 121 q 536 97 531 115 q 545 61 541 81 q 548 18 549 41 q 496 2 523 9 q 444 -9 473 -4 q 387 -14 415 -14 q 140 77 227 -14 q 54 348 54 168 z "},"d":{"ha":739,"x_min":54,"x_max":706,"o":"m 54 334 q 81 503 54 431 q 154 621 108 574 q 262 690 201 667 q 391 713 323 713 q 437 710 417 713 q 472 705 458 708 q 502 696 489 701 l 502 976 l 646 976 l 646 112 l 706 43 l 706 0 l 570 0 l 524 54 l 500 54 q 487 39 497 50 q 457 17 476 28 q 409 -4 437 5 q 343 -14 381 -14 q 241 7 293 -14 q 148 70 190 27 q 80 178 106 113 q 54 334 54 243 m 205 334 q 219 227 205 271 q 256 153 232 182 q 316 111 281 124 q 395 98 351 98 q 431 103 412 98 q 466 116 450 109 q 502 134 484 123 l 502 593 q 476 604 493 598 q 428 609 458 609 q 263 539 321 609 q 205 334 205 469 z "},"e":{"ha":707,"x_min":52,"x_max":654,"o":"m 52 340 q 76 508 52 437 q 142 624 100 578 q 244 691 185 669 q 375 712 304 712 q 493 690 441 712 q 581 628 545 668 q 635 532 616 588 q 654 410 654 477 q 652 367 654 387 q 648 333 650 347 q 642 302 645 316 l 197 304 q 210 204 197 244 q 246 142 222 165 q 307 110 270 119 q 393 100 343 100 q 470 106 436 100 q 528 119 504 111 q 576 138 555 127 q 592 94 587 114 q 601 58 598 73 q 605 27 604 41 q 551 7 583 16 q 484 -7 524 -1 q 393 -14 445 -14 q 249 5 312 -14 q 141 65 185 23 q 75 174 98 106 q 52 340 52 241 m 509 404 l 509 427 q 499 502 509 469 q 470 557 488 535 q 427 591 452 580 q 372 603 401 603 q 297 592 330 603 q 242 556 264 581 q 210 494 220 532 q 199 404 199 456 l 509 404 z "},"f":{"ha":472,"x_min":36,"x_max":479,"o":"m 140 588 l 39 588 q 37 618 37 604 q 36 644 36 633 q 38 679 36 665 q 40 693 39 686 l 140 693 l 140 768 q 153 851 140 810 q 194 922 166 891 q 263 971 221 953 q 363 990 305 990 q 413 987 392 990 q 449 981 434 985 q 479 972 467 977 q 474 937 477 956 q 464 902 471 922 q 447 861 458 882 q 425 867 437 864 q 401 871 414 869 q 374 873 387 873 q 305 847 328 873 q 282 764 282 822 l 282 693 l 435 693 q 436 686 435 690 q 437 678 437 683 q 438 666 438 673 q 434 633 438 652 q 418 588 431 613 l 282 588 l 282 0 l 140 0 l 140 588 z "},"g":{"ha":751,"x_min":64,"x_max":713,"o":"m 144 28 q 121 73 129 47 q 113 127 113 99 q 117 182 113 159 q 127 221 121 205 q 141 252 133 239 l 141 283 q 89 360 109 316 q 70 467 70 404 q 90 569 70 524 q 145 646 109 614 q 233 694 182 677 q 349 711 285 711 l 349 711 q 424 708 394 711 q 471 701 453 705 q 505 690 493 696 l 696 710 l 696 600 l 586 600 q 604 577 595 591 q 622 545 614 563 q 634 508 629 528 q 640 467 640 488 q 618 365 640 411 q 557 286 596 319 q 466 235 519 253 q 349 216 412 216 l 349 216 q 318 217 334 216 q 285 220 302 218 q 252 224 268 222 q 224 230 237 227 l 224 136 q 229 123 224 129 q 240 114 233 118 q 256 109 248 111 q 273 106 265 106 l 541 106 q 622 93 589 106 q 675 55 655 79 q 705 -3 696 31 q 713 -77 713 -37 q 691 -176 713 -129 q 624 -258 668 -222 q 514 -314 580 -293 q 363 -334 449 -334 l 363 -334 q 237 -319 292 -334 q 143 -277 181 -304 q 84 -214 104 -250 q 64 -134 64 -177 q 76 -79 64 -106 q 104 -33 88 -53 q 144 12 121 -9 l 144 28 m 349 317 q 418 325 389 317 q 465 351 446 333 q 491 397 483 368 q 500 467 500 425 q 465 577 500 544 q 349 610 429 610 l 349 610 q 281 603 308 610 q 238 577 254 595 q 216 533 222 560 q 210 467 210 506 q 216 401 210 429 q 238 354 222 373 q 280 327 254 336 q 349 317 307 317 l 349 317 m 197 -109 q 202 -146 197 -127 q 225 -182 208 -166 q 277 -209 243 -199 q 366 -220 310 -220 l 367 -220 q 460 -207 420 -220 q 527 -174 500 -195 q 566 -129 553 -154 q 578 -79 578 -104 q 566 -30 578 -47 q 529 -12 553 -12 l 226 -12 q 207 -47 218 -21 q 197 -109 197 -73 z "},"h":{"ha":764,"x_min":92,"x_max":667,"o":"m 92 977 l 238 977 l 238 749 l 231 645 l 235 645 q 258 660 240 649 q 303 683 276 671 q 363 703 330 694 q 433 712 397 712 q 533 695 490 712 q 607 647 577 678 q 652 571 637 615 q 667 472 667 527 l 667 0 l 522 0 l 522 458 q 492 567 522 532 q 395 602 463 602 q 334 596 362 602 q 284 583 306 590 q 238 564 259 574 l 238 0 l 92 0 l 92 977 z "},"i":{"ha":353,"x_min":81,"x_max":277,"o":"m 174 810 q 138 817 155 810 q 109 836 121 824 q 89 862 96 847 q 81 895 81 878 q 89 929 81 913 q 109 956 96 945 q 138 974 121 968 q 174 981 155 981 q 210 974 193 981 q 239 956 227 968 q 259 929 252 945 q 267 895 267 913 q 259 862 267 878 q 239 836 252 847 q 210 817 227 824 q 174 810 193 810 m 96 693 l 237 693 l 237 114 l 277 85 l 277 0 l 238 0 l 237 1 l 237 0 q 133 27 170 0 q 96 117 96 54 l 96 693 z "},"j":{"ha":353,"x_min":16,"x_max":277,"o":"m 107 692 l 254 692 l 254 -66 q 243 -143 254 -109 q 208 -202 232 -176 q 145 -247 184 -229 q 52 -278 107 -266 q 32 -241 39 -258 q 22 -213 25 -224 q 16 -189 18 -199 q 84 -146 60 -178 q 107 -54 107 -113 l 107 692 m 183 810 q 148 817 164 810 q 118 836 131 824 q 99 862 106 847 q 92 895 92 878 q 99 929 92 913 q 118 956 106 945 q 148 974 131 968 q 183 981 164 981 q 219 974 202 981 q 249 956 236 968 q 269 929 262 945 q 277 895 277 913 q 269 862 277 878 q 249 836 262 847 q 219 817 236 824 q 183 810 202 810 z "},"k":{"ha":668,"x_min":92,"x_max":654,"o":"m 92 977 l 231 977 l 231 460 l 224 362 l 260 405 l 477 693 l 642 693 l 421 414 l 365 360 l 409 320 l 654 0 l 489 0 l 256 313 l 224 354 l 231 231 l 231 0 l 92 0 l 92 977 z "},"l":{"ha":328,"x_min":84,"x_max":264,"o":"m 84 976 l 224 976 l 224 114 l 264 85 l 264 0 l 226 0 l 224 1 l 224 0 q 121 27 157 0 q 84 117 84 54 l 84 976 z "},"m":{"ha":1158,"x_min":50,"x_max":1061,"o":"m 50 624 l 50 701 l 174 701 l 233 642 l 251 652 q 271 666 254 656 q 313 686 288 675 q 369 705 338 696 q 433 713 401 713 q 533 695 494 713 q 601 644 572 677 q 633 665 612 653 q 681 688 654 677 q 741 706 709 699 q 805 713 772 713 q 909 696 862 713 q 990 647 956 679 q 1042 572 1023 616 q 1061 473 1061 528 l 1061 0 l 915 0 l 915 458 q 876 567 915 532 q 768 602 836 602 q 693 596 728 602 q 642 582 659 589 q 656 536 651 560 q 662 486 662 511 l 662 0 l 516 0 l 516 472 q 489 570 516 538 q 396 602 462 602 q 338 596 365 602 q 291 583 311 591 q 248 565 268 575 l 248 0 l 103 0 l 103 569 l 50 624 z "},"n":{"ha":779,"x_min":50,"x_max":682,"o":"m 103 569 l 50 624 l 50 701 l 174 701 l 233 648 l 252 652 q 274 666 257 656 q 317 686 292 676 q 375 704 342 696 q 444 712 408 712 q 545 695 500 712 q 620 647 589 678 q 666 571 650 615 q 682 472 682 527 l 682 0 l 536 0 l 536 458 q 505 567 536 532 q 407 602 474 602 q 345 596 374 602 q 295 583 317 590 q 248 564 270 574 l 248 0 l 103 0 l 103 569 z "},"o":{"ha":758,"x_min":52,"x_max":707,"o":"m 52 347 q 76 505 52 436 q 143 619 100 573 q 248 689 187 665 q 382 713 309 713 q 517 691 457 713 q 620 624 578 669 q 684 512 662 579 q 707 356 707 446 q 684 197 707 267 q 619 81 661 128 q 516 11 576 35 q 382 -14 456 -14 q 243 9 304 -14 q 139 77 182 32 q 74 190 97 122 q 52 347 52 257 m 382 98 q 459 118 427 98 q 513 171 492 137 q 545 253 534 205 q 555 356 555 300 q 513 541 555 477 q 382 605 472 605 q 303 586 336 605 q 247 532 269 566 q 214 450 225 497 q 203 347 203 402 q 247 161 203 224 q 382 98 291 98 z "},"p":{"ha":739,"x_min":37,"x_max":685,"o":"m 235 -275 l 90 -275 l 90 603 l 37 658 l 37 701 l 161 701 l 214 654 l 239 652 q 257 666 243 656 q 294 687 271 676 q 349 705 317 697 q 420 713 381 713 q 518 696 471 713 q 603 640 566 680 q 663 532 640 600 q 685 360 685 464 q 657 201 685 271 q 584 83 630 131 q 476 11 538 36 q 347 -14 415 -14 q 310 -12 330 -14 q 273 -9 290 -11 q 235 -4 254 -7 l 235 -275 m 235 100 q 267 94 247 97 q 310 92 286 92 q 402 111 361 92 q 472 165 444 130 q 517 250 501 200 q 533 360 533 299 q 520 483 533 435 q 482 556 507 530 q 422 593 457 583 q 343 602 387 602 q 305 596 324 602 q 271 583 286 591 q 235 565 252 575 l 235 100 z "},"q":{"ha":745,"x_min":54,"x_max":648,"o":"m 54 337 q 82 501 54 431 q 159 618 111 571 q 274 689 208 665 q 412 713 339 713 q 472 711 444 713 q 529 706 500 709 q 586 696 557 702 q 648 684 615 691 l 648 -275 l 503 -275 l 503 47 l 499 47 q 484 34 496 44 q 454 14 473 24 q 409 -5 435 3 q 351 -14 382 -14 q 236 6 290 -14 q 142 67 182 25 q 77 176 101 110 q 54 337 54 243 m 206 349 q 219 235 206 282 q 257 157 233 187 q 316 112 281 126 q 395 98 351 98 q 431 103 412 98 q 466 116 450 109 q 503 134 484 123 l 503 589 q 476 601 495 593 q 422 609 457 609 q 334 592 374 609 q 266 541 294 574 q 222 459 237 508 q 206 349 206 411 z "},"r":{"ha":476,"x_min":54,"x_max":456,"o":"m 179 701 l 249 627 q 268 660 256 644 q 296 686 280 675 q 332 705 312 698 q 376 711 352 711 q 414 708 395 711 q 454 698 432 705 q 455 687 454 696 q 456 663 456 677 q 455 638 456 652 q 451 608 454 623 q 442 578 448 593 q 427 552 436 563 l 414 549 q 384 560 401 555 q 350 565 368 565 q 304 561 323 565 q 275 553 286 557 q 253 543 261 549 l 253 0 l 108 0 l 108 569 l 54 624 l 54 701 l 179 701 z "},"s":{"ha":618,"x_min":58,"x_max":548,"o":"m 58 31 q 61 65 58 47 q 67 101 63 81 q 81 142 72 121 q 143 122 111 131 q 203 108 171 115 q 268 102 236 102 q 321 104 296 102 q 363 115 345 106 q 391 143 381 124 q 401 195 401 161 q 377 258 401 235 q 291 292 352 281 q 185 325 228 304 q 115 372 142 345 q 76 432 88 399 q 64 503 64 465 q 83 600 64 560 q 136 665 101 640 q 223 701 171 690 q 342 712 275 712 q 425 706 389 712 q 486 692 461 699 q 535 671 514 683 q 528 639 533 656 q 515 605 523 624 q 494 566 507 586 q 452 585 476 577 q 404 598 432 593 q 338 604 375 604 q 286 602 310 604 q 244 589 262 599 q 218 561 227 580 q 208 508 208 541 q 213 478 208 492 q 230 454 217 465 q 268 434 243 444 q 332 416 292 425 q 436 385 394 403 q 502 342 477 368 q 537 284 527 317 q 548 204 548 250 q 532 115 548 155 q 484 46 517 75 q 398 2 450 18 q 272 -14 346 -14 q 185 -7 224 -14 q 118 9 146 0 q 58 31 85 18 z "},"t":{"ha":504,"x_min":32,"x_max":471,"o":"m 123 588 l 35 588 q 33 604 34 595 q 32 622 33 612 q 32 644 32 632 q 33 667 32 656 q 35 693 33 677 l 123 693 l 123 801 l 201 889 l 262 889 l 262 693 l 454 693 q 456 677 455 686 q 457 659 457 667 q 454 630 457 643 q 448 608 451 617 q 438 588 444 597 l 262 588 l 262 195 q 278 123 262 145 q 332 100 295 100 q 365 104 347 100 q 397 113 382 108 q 433 127 415 119 q 455 92 447 109 q 466 62 463 75 q 471 33 470 46 q 428 9 452 20 q 378 -6 407 1 q 311 -14 349 -14 q 222 0 258 -14 q 164 39 186 13 q 133 104 142 65 q 123 194 123 143 l 123 588 z "},"u":{"ha":743,"x_min":76,"x_max":696,"o":"m 76 693 l 221 693 l 221 240 q 250 133 221 168 q 345 98 278 98 q 404 103 378 98 q 450 116 431 109 q 490 135 473 124 l 490 693 l 636 693 l 636 112 l 696 43 l 696 0 l 566 0 l 512 54 l 486 54 q 466 39 481 50 q 428 16 451 28 q 374 -5 404 4 q 307 -14 343 -14 q 207 3 250 -14 q 134 52 163 20 q 91 128 105 83 q 76 227 76 172 l 76 693 z "},"v":{"ha":665,"x_min":19,"x_max":646,"o":"m 19 693 l 165 693 l 319 143 l 336 67 l 353 143 l 503 693 l 646 693 l 440 0 l 227 0 l 19 693 z "},"w":{"ha":1045,"x_min":12,"x_max":1033,"o":"m 12 693 l 157 693 l 285 158 l 300 71 l 314 157 l 432 693 l 616 693 l 740 158 l 756 71 l 771 158 l 892 693 l 1033 693 l 858 0 l 651 0 l 540 495 l 522 595 l 505 495 l 404 0 l 193 0 l 12 693 z "},"x":{"ha":678,"x_min":27,"x_max":654,"o":"m 260 355 q 204 438 232 395 q 149 525 176 481 q 93 611 121 568 q 37 693 65 654 l 193 693 l 327 476 l 347 434 l 366 476 q 433 585 401 529 q 500 693 466 640 l 654 693 l 423 344 l 650 0 l 495 0 l 353 227 l 335 267 l 317 227 l 180 0 l 27 0 l 260 355 z "},"y":{"ha":663,"x_min":17,"x_max":654,"o":"m 17 693 l 170 693 l 302 186 l 331 51 l 361 186 l 497 693 l 654 693 l 346 -316 l 199 -316 l 312 0 l 225 0 l 17 693 z "},"z":{"ha":600,"x_min":45,"x_max":566,"o":"m 45 94 l 307 484 l 405 583 l 88 583 q 80 615 83 600 q 77 650 77 631 q 78 670 77 662 q 80 683 79 677 q 84 694 82 689 l 551 694 l 557 595 l 298 227 l 196 111 l 564 111 q 564 100 564 105 q 565 89 565 95 q 566 79 566 83 q 563 45 566 64 q 549 0 559 25 l 52 0 l 45 94 z "},"•":{"ha":428,"x_min":81,"x_max":347,"o":"m 214 245 q 163 255 187 245 q 121 282 139 265 q 92 322 102 299 q 81 370 81 345 q 92 419 81 396 q 121 459 102 442 q 163 486 139 476 q 214 496 187 496 q 266 486 241 496 q 308 459 290 476 q 336 419 326 442 q 347 370 347 396 q 336 322 347 345 q 308 282 326 299 q 266 255 290 265 q 214 245 241 245 z "},"´":{"ha":385,"x_min":169,"x_max":455,"o":"m 240 793 q 219 804 230 797 q 197 819 208 811 q 180 837 187 827 q 169 854 172 846 l 335 1088 q 366 1074 347 1085 q 403 1049 385 1063 q 436 1020 421 1035 q 455 996 450 1006 l 240 793 l 240 793 z "},"“":{"ha":587,"x_min":47,"x_max":539,"o":"m 453 677 q 439 676 452 677 q 408 675 426 675 q 377 677 393 675 q 347 682 361 678 q 321 692 332 686 q 305 709 310 699 q 312 795 305 756 q 329 866 318 834 q 352 924 339 899 q 380 970 366 950 q 455 1043 412 1016 q 487 1034 471 1040 q 515 1021 500 1029 q 538 1000 529 1013 l 539 989 q 505 942 521 973 q 478 868 490 910 q 459 777 466 826 q 453 677 453 728 m 195 677 q 181 676 194 677 q 150 675 168 675 q 119 677 136 675 q 89 682 103 678 q 63 692 75 686 q 47 709 52 699 q 54 795 47 756 q 71 866 60 834 q 95 924 81 899 q 122 970 108 950 q 197 1043 155 1016 q 229 1034 214 1040 q 257 1021 243 1029 q 281 1000 271 1013 l 281 989 q 248 942 263 973 q 220 868 232 910 q 202 777 208 826 q 195 677 195 728 z "},"”":{"ha":600,"x_min":47,"x_max":540,"o":"m 391 1040 q 406 1041 393 1040 q 437 1042 418 1042 q 467 1041 451 1042 q 498 1036 484 1040 q 523 1026 512 1032 q 539 1008 534 1019 q 533 923 539 962 q 516 851 526 884 q 492 793 505 819 q 465 748 479 768 q 389 675 432 702 q 357 684 373 678 q 330 697 344 689 q 306 718 315 705 l 305 728 q 339 776 323 745 q 367 850 355 808 q 385 941 378 892 q 391 1040 391 989 m 134 1041 q 148 1042 135 1041 q 179 1043 161 1043 q 210 1042 193 1043 q 240 1037 226 1040 q 266 1026 254 1033 q 281 1009 277 1020 q 275 923 281 962 q 258 852 269 884 q 234 794 248 820 q 207 749 221 768 q 132 675 174 703 q 100 684 115 679 q 72 697 86 690 q 48 718 58 705 l 47 729 q 81 777 66 745 q 109 850 97 808 q 127 941 121 892 q 134 1041 134 990 z "},"æ":{"ha":1069,"x_min":45,"x_max":1017,"o":"m 45 215 q 65 300 45 264 q 117 360 85 336 q 191 396 149 383 q 276 412 232 408 q 361 415 321 413 q 448 418 401 416 l 448 475 q 441 534 448 510 q 420 574 435 559 q 380 596 406 589 q 316 603 355 603 q 250 596 281 603 q 195 582 218 589 q 144 561 168 572 q 120 598 128 581 q 108 631 112 616 q 102 662 103 648 q 168 687 133 675 q 237 704 199 696 q 316 712 275 712 q 410 706 371 712 q 476 688 449 700 q 520 661 503 677 q 549 625 537 645 q 590 660 567 644 q 639 688 613 676 q 693 706 665 699 q 749 712 722 712 q 862 694 812 712 q 946 641 911 675 q 998 558 980 607 q 1017 450 1017 510 q 1016 409 1017 428 q 1013 376 1015 390 q 1010 345 1012 359 l 583 332 q 632 159 584 217 q 770 100 680 100 q 839 107 806 100 q 898 121 872 113 q 954 142 928 130 q 971 97 964 117 q 981 62 977 77 q 986 31 985 44 q 923 9 957 18 q 854 -7 893 0 q 770 -14 815 -14 q 627 12 686 -14 q 528 86 569 37 l 513 86 q 494 65 509 81 q 451 31 479 49 q 380 0 422 14 q 279 -14 338 -14 q 185 2 229 -14 q 112 47 142 18 q 63 119 81 77 q 45 215 45 161 m 193 221 q 204 166 193 189 q 233 128 214 143 q 275 105 251 113 q 328 98 300 98 q 379 105 355 98 q 423 123 404 113 q 457 144 443 133 q 479 162 471 155 q 458 235 467 194 q 448 320 449 275 l 290 313 q 215 288 237 311 q 193 221 193 264 m 589 426 q 664 429 627 427 q 738 432 701 431 q 812 436 774 434 q 888 439 849 437 q 879 511 888 480 q 854 562 870 542 q 815 593 838 583 q 765 603 792 603 q 647 557 692 603 q 589 426 602 512 z "},"ø":{"ha":758,"x_min":52,"x_max":707,"o":"m 52 355 q 76 511 52 444 q 143 623 100 578 q 248 690 187 667 q 382 712 309 712 q 441 708 413 712 q 494 697 469 705 l 545 795 q 578 798 562 798 q 607 792 591 797 q 632 773 622 787 l 572 661 q 628 612 603 640 q 670 547 653 584 q 697 465 688 511 q 707 364 707 420 q 684 204 707 275 q 619 85 661 134 q 516 12 576 37 q 382 -14 456 -14 q 259 5 313 -14 l 201 -108 q 171 -106 186 -109 q 142 -98 157 -104 q 113 -79 126 -92 l 181 45 q 86 168 121 91 q 52 355 52 245 m 382 98 q 459 119 427 98 q 513 175 492 139 q 545 259 534 211 q 555 364 555 308 q 541 473 555 429 q 505 548 528 516 l 306 115 q 382 98 337 98 m 203 355 q 217 245 203 293 q 251 165 230 198 l 450 592 q 382 604 420 604 q 303 586 336 604 q 247 535 269 568 q 214 456 225 503 q 203 355 203 410 z "},"‚":{"ha":302,"x_min":7,"x_max":241,"o":"m 93 127 q 107 129 94 127 q 138 130 120 130 q 169 128 153 130 q 199 123 185 127 q 225 113 214 119 q 241 96 236 106 q 234 10 241 49 q 217 -61 228 -29 q 194 -119 207 -94 q 166 -165 180 -145 q 91 -238 134 -211 q 59 -229 75 -235 q 31 -216 45 -224 q 7 -195 17 -208 l 7 -184 q 41 -137 25 -168 q 68 -63 56 -105 q 86 28 80 -21 q 93 127 93 77 z "},"„":{"ha":585,"x_min":7,"x_max":524,"o":"m 93 127 q 107 129 94 127 q 138 130 120 130 q 169 128 153 130 q 199 123 185 127 q 225 113 214 119 q 241 96 236 106 q 234 10 241 49 q 217 -61 228 -29 q 194 -119 207 -94 q 166 -165 180 -145 q 91 -238 134 -211 q 59 -229 75 -235 q 31 -216 45 -224 q 7 -195 17 -208 l 7 -184 q 41 -137 25 -168 q 68 -63 56 -105 q 86 28 80 -21 q 93 127 93 77 m 376 127 q 390 129 377 127 q 421 130 403 130 q 452 128 435 130 q 482 123 468 127 q 508 113 496 119 q 524 96 519 106 q 517 10 524 49 q 500 -61 511 -29 q 476 -119 490 -94 q 449 -165 463 -145 q 374 -238 416 -211 q 342 -229 357 -235 q 314 -216 328 -224 q 290 -195 300 -208 l 290 -184 q 323 -137 308 -168 q 351 -63 339 -105 q 369 28 363 -21 q 376 127 376 77 z "},"˙":{"ha":355,"x_min":83,"x_max":268,"o":"m 175 831 q 139 838 156 831 q 110 856 123 844 q 90 883 98 867 q 83 916 83 898 q 90 949 83 934 q 110 977 98 965 q 139 995 123 988 q 175 1001 156 1001 q 211 995 194 1001 q 240 977 228 988 q 260 949 253 965 q 268 916 268 934 q 260 883 268 898 q 240 856 253 867 q 211 838 228 844 q 175 831 194 831 z "},"˚":{"ha":365,"x_min":-8,"x_max":407,"o":"m 197 789 q 110 801 149 789 q 45 837 72 814 q 5 892 19 860 q -8 964 -8 924 q 5 1035 -8 1003 q 45 1090 19 1067 q 110 1126 72 1114 q 197 1139 149 1139 q 284 1127 245 1139 q 350 1092 323 1114 q 392 1037 377 1069 q 407 968 407 1006 q 392 894 407 927 q 350 837 377 861 q 284 801 323 814 q 197 789 245 789 m 197 876 q 236 884 219 876 q 263 905 252 892 q 280 935 275 918 q 286 969 286 951 q 263 1030 286 1006 q 197 1055 241 1055 q 160 1047 177 1055 q 132 1027 144 1040 q 113 998 119 1015 q 106 964 106 982 q 113 929 106 945 q 132 901 119 913 q 160 882 144 889 q 197 876 177 876 z "},"A":{"ha":760,"x_min":-7,"x_max":767,"o":"m 260 921 l 492 921 l 767 0 l 613 0 l 529 281 l 231 281 l 151 0 l -7 0 l 260 921 m 497 399 l 373 851 l 261 399 l 497 399 z "},"‘":{"ha":329,"x_min":47,"x_max":281,"o":"m 195 677 q 181 676 194 677 q 150 675 168 675 q 119 677 136 675 q 89 682 103 678 q 63 692 75 686 q 47 709 52 699 q 54 795 47 756 q 71 866 60 834 q 95 924 81 899 q 122 970 108 950 q 197 1043 155 1016 q 229 1034 214 1040 q 257 1021 243 1029 q 281 1000 271 1013 l 281 989 q 248 942 263 973 q 220 868 232 910 q 202 777 208 826 q 195 677 195 728 z "},"’":{"ha":329,"x_min":47,"x_max":282,"o":"m 134 1041 q 148 1042 135 1041 q 179 1043 161 1043 q 210 1042 193 1043 q 240 1037 226 1040 q 266 1026 254 1033 q 281 1009 277 1020 q 275 923 281 962 q 258 852 269 884 q 234 794 248 820 q 207 749 221 768 q 132 675 174 703 q 100 684 115 679 q 72 697 86 690 q 48 718 58 705 l 47 729 q 81 777 66 745 q 109 850 97 808 q 127 941 121 892 q 134 1041 134 990 z "},"-":{"ha":646,"x_min":122,"x_max":524,"o":"m 122 465 l 524 465 l 524 346 l 122 346 l 122 465 z "},"F":{"ha":672,"x_min":107,"x_max":637,"o":"m 107 921 l 635 921 q 636 911 635 916 q 637 900 637 906 q 637 888 637 895 q 633 853 637 876 q 614 799 629 829 q 498 803 558 801 q 385 806 448 804 q 261 808 322 808 l 261 507 q 304 508 279 507 q 355 509 328 508 q 411 510 382 509 q 467 512 440 511 q 600 516 531 514 q 601 505 600 511 q 602 492 602 499 q 602 477 602 485 q 599 452 602 471 q 585 395 596 432 q 450 396 513 395 q 394 396 422 396 q 341 396 366 396 q 295 397 316 397 q 261 397 274 397 l 261 0 l 107 0 l 107 921 z "},"E":{"ha":691,"x_min":107,"x_max":643,"o":"m 107 921 l 635 921 q 636 911 635 916 q 637 900 637 906 q 637 888 637 895 q 633 853 637 876 q 614 799 629 829 q 497 803 557 801 q 383 806 446 804 q 261 808 321 808 l 261 530 q 306 530 281 530 q 357 531 330 530 q 411 532 384 532 q 464 534 438 533 q 587 537 524 536 q 587 526 587 532 q 588 513 588 520 q 589 498 589 506 q 588 485 589 495 q 584 463 587 475 q 579 439 582 451 q 572 418 576 427 q 450 419 509 418 q 399 419 425 419 q 348 419 372 419 q 300 420 323 420 q 261 420 278 420 l 261 116 q 387 118 321 116 q 510 122 453 120 q 641 128 576 125 q 642 115 641 122 q 643 102 642 110 q 643 87 643 94 q 641 50 643 73 q 632 0 639 26 l 107 0 l 107 921 z "},"D":{"ha":851,"x_min":107,"x_max":816,"o":"m 107 920 q 184 924 142 922 q 270 926 220 925 q 378 928 319 928 q 565 900 484 928 q 702 814 646 871 q 787 671 758 758 q 816 469 816 585 q 785 266 816 353 q 695 119 753 178 q 555 30 637 60 q 368 0 472 0 l 107 0 l 107 920 m 391 119 q 504 145 454 119 q 588 219 553 172 q 641 330 623 267 q 659 467 659 393 q 641 615 659 551 q 588 723 623 680 q 504 788 553 766 q 391 810 454 810 q 332 809 357 810 q 291 808 307 808 q 260 806 273 806 l 260 119 l 391 119 z "},"G":{"ha":781,"x_min":36,"x_max":712,"o":"m 36 452 q 64 659 36 568 q 147 811 92 749 q 281 906 201 873 q 465 939 361 939 q 545 933 504 939 q 620 920 586 927 q 696 901 659 911 q 690 865 694 884 q 680 828 687 849 q 662 783 673 806 q 601 800 633 793 q 537 812 573 807 q 465 818 502 818 q 351 792 401 818 q 266 719 300 766 q 212 603 231 671 q 193 452 193 536 q 211 304 193 370 q 263 195 229 239 q 348 126 298 150 q 465 102 399 102 q 489 102 475 102 q 516 103 503 102 q 543 104 530 104 q 566 106 555 104 q 565 153 566 127 q 564 204 564 178 q 562 256 563 230 q 560 305 561 281 q 555 417 557 361 q 600 426 580 424 q 634 428 620 428 q 662 426 648 428 q 688 422 676 424 q 712 416 701 419 q 711 263 712 336 q 709 132 710 189 q 705 7 707 65 l 692 -1 q 618 -9 656 -6 q 545 -15 586 -13 q 465 -18 505 -18 q 281 12 361 -18 q 147 101 201 42 q 64 249 92 161 q 36 452 36 336 z "},"K":{"ha":765,"x_min":107,"x_max":768,"o":"m 107 921 l 261 921 l 261 517 l 275 517 l 564 921 l 749 921 l 400 471 l 768 0 l 579 0 l 269 425 l 261 425 l 261 0 l 107 0 l 107 921 z "},"L":{"ha":673,"x_min":107,"x_max":621,"o":"m 107 921 l 261 921 l 261 127 q 320 128 290 127 q 382 130 351 129 q 443 131 413 130 q 498 134 472 132 q 621 139 561 136 q 617 104 621 127 q 610 58 614 81 q 603 17 606 35 q 597 0 599 0 l 107 0 l 107 921 z "},"T":{"ha":653,"x_min":19,"x_max":634,"o":"m 245 807 q 154 806 195 806 q 83 804 113 805 q 23 801 50 802 q 21 817 22 809 q 19 852 19 831 q 21 882 19 865 q 27 921 22 899 l 631 921 q 632 907 631 914 q 633 893 633 901 q 634 878 634 885 q 632 842 634 864 q 623 802 629 821 q 595 803 618 802 q 541 805 572 804 q 471 806 509 806 q 399 807 434 807 l 399 0 l 245 0 l 245 807 z "},"O":{"ha":875,"x_min":56,"x_max":819,"o":"m 440 -18 q 266 15 338 -18 q 146 110 193 48 q 78 261 100 172 q 56 460 56 349 q 79 661 56 572 q 149 811 102 749 q 269 906 196 873 q 440 939 341 939 q 616 908 544 939 q 733 817 688 877 q 798 671 778 758 q 819 473 819 585 q 797 271 819 361 q 729 116 775 180 q 611 17 683 52 q 440 -18 540 -18 m 440 101 q 548 128 505 101 q 617 204 591 155 q 654 322 643 254 q 665 473 665 391 q 654 628 665 562 q 617 736 643 693 q 548 800 591 779 q 440 821 505 821 q 331 797 376 821 q 260 727 287 773 q 221 613 233 680 q 209 460 209 546 q 221 308 209 375 q 260 195 233 241 q 331 125 287 149 q 440 101 376 101 z "},"U":{"ha":842,"x_min":79,"x_max":762,"o":"m 79 359 q 79 416 79 380 q 80 495 79 452 q 80 587 80 538 q 81 683 81 635 q 82 921 81 794 l 233 921 l 233 337 q 243 243 233 285 q 276 171 253 201 q 334 125 298 141 q 422 109 370 109 q 511 125 474 109 q 570 171 547 141 q 604 243 593 201 q 614 337 614 285 q 614 385 614 352 q 614 462 614 418 q 613 557 614 506 q 613 659 613 608 q 612 921 612 779 l 762 921 l 762 359 q 744 197 762 267 q 688 81 727 127 q 583 10 648 34 q 422 -14 518 -14 q 263 11 328 -14 q 157 82 197 35 q 98 199 116 129 q 79 359 79 269 z "},"M":{"ha":1067,"x_min":73,"x_max":996,"o":"m 121 921 l 353 921 l 486 461 l 535 263 l 585 461 l 714 921 l 945 921 l 996 0 l 848 0 l 821 666 l 824 844 q 792 741 808 798 q 758 624 775 685 q 723 501 741 564 q 689 377 706 438 q 655 261 671 317 q 623 159 638 205 l 448 159 l 241 846 l 243 663 l 220 0 l 73 0 l 121 921 z "},"N":{"ha":916,"x_min":107,"x_max":809,"o":"m 107 921 l 351 921 l 583 346 l 676 84 l 667 346 l 663 921 l 809 921 l 809 0 l 572 0 l 334 576 l 241 842 l 250 576 l 254 0 l 107 0 l 107 921 z "},"P":{"ha":743,"x_min":107,"x_max":711,"o":"m 107 921 l 422 921 q 544 902 490 921 q 635 848 597 884 q 691 761 672 812 q 711 645 711 710 q 690 532 711 586 q 628 436 669 478 q 526 370 587 395 q 385 345 465 345 q 336 346 359 345 q 297 348 314 347 q 261 351 277 349 l 261 0 l 107 0 l 107 921 m 261 466 q 292 463 271 465 q 340 461 312 461 q 426 471 387 461 q 493 501 465 480 q 537 555 522 522 q 553 635 553 588 q 546 704 553 673 q 521 757 538 735 q 478 791 505 779 q 414 803 452 803 l 261 803 l 261 466 z "},"R":{"ha":773,"x_min":107,"x_max":754,"o":"m 107 921 l 430 921 q 550 902 498 921 q 637 849 602 884 q 690 767 672 815 q 708 659 708 718 q 697 576 708 615 q 664 504 686 537 q 608 446 642 471 q 527 404 574 420 q 582 303 553 354 q 641 201 611 252 q 699 100 670 151 q 754 0 728 49 l 589 0 l 387 380 l 378 380 q 337 382 358 380 q 297 386 315 384 q 255 392 275 389 l 255 0 l 107 0 l 107 921 m 255 501 q 275 499 261 500 q 306 498 289 498 q 343 497 323 497 q 382 496 363 496 q 510 535 468 496 q 553 656 553 574 q 514 765 553 727 q 406 803 476 803 l 255 803 l 255 501 z "},"Q":{"ha":875,"x_min":56,"x_max":845,"o":"m 447 -18 q 268 15 342 -18 q 147 110 194 48 q 78 261 100 172 q 56 460 56 349 q 79 661 56 572 q 150 811 102 749 q 270 906 197 873 q 442 939 343 939 q 617 908 546 939 q 734 817 689 877 q 799 671 779 758 q 819 473 819 585 q 778 208 819 317 q 652 41 738 100 l 652 29 q 719 -9 685 9 q 781 -42 753 -27 q 845 -75 814 -60 q 821 -121 836 -100 q 789 -157 805 -142 q 751 -190 771 -175 q 676 -143 711 -167 q 610 -96 641 -119 q 551 -52 578 -73 q 499 -14 524 -31 q 487 -16 494 -15 q 472 -17 480 -16 q 458 -17 465 -17 q 447 -18 451 -18 m 442 101 q 549 128 507 101 q 616 204 591 155 q 652 322 642 254 q 662 473 662 391 q 652 628 662 562 q 616 737 642 694 q 549 801 591 780 q 442 822 507 822 q 334 799 378 822 q 262 729 290 775 q 224 616 235 684 q 212 460 212 549 q 224 308 212 375 q 262 195 235 241 q 334 125 290 149 q 442 101 378 101 z "},"S":{"ha":733,"x_min":73,"x_max":661,"o":"m 73 33 q 77 68 74 49 q 86 107 81 85 q 104 157 92 130 q 178 135 140 144 q 250 120 211 127 q 323 113 288 113 q 413 121 377 113 q 472 145 450 130 q 503 185 494 161 q 513 241 513 210 q 503 302 513 277 q 473 346 493 328 q 422 377 453 364 q 348 402 391 390 q 222 447 273 422 q 138 502 170 471 q 92 573 106 533 q 77 663 77 612 q 100 789 77 736 q 164 874 123 841 q 266 923 206 907 q 398 939 325 939 q 497 930 454 939 q 568 911 539 921 q 627 883 602 899 q 619 849 625 867 q 604 812 614 833 q 578 767 595 791 q 530 791 557 781 q 473 809 507 801 q 395 817 439 817 q 314 809 347 817 q 260 786 281 802 q 230 746 239 770 q 221 688 221 722 q 231 626 221 651 q 261 584 240 602 q 316 554 282 567 q 397 528 349 541 q 518 486 468 508 q 600 433 568 463 q 646 362 631 404 q 661 264 661 321 q 642 140 661 193 q 584 52 624 87 q 481 0 544 17 q 329 -18 418 -18 q 229 -10 276 -18 q 148 7 182 -2 q 73 33 106 19 z "},"V":{"ha":731,"x_min":-20,"x_max":751,"o":"m -20 921 l 138 921 l 323 264 l 364 92 l 406 264 l 595 921 l 751 921 l 477 0 l 250 0 l -20 921 z "},"W":{"ha":1177,"x_min":-14,"x_max":1190,"o":"m -14 921 l 145 921 l 317 130 l 498 921 l 688 921 l 865 127 l 1038 921 l 1190 921 l 973 0 l 763 0 l 613 665 l 589 836 l 564 665 l 413 0 l 202 0 l -14 921 z "},"X":{"ha":766,"x_min":3,"x_max":763,"o":"m 287 471 l 7 921 l 182 921 l 315 692 l 376 564 l 381 564 l 443 692 l 573 921 l 752 921 l 465 456 l 763 0 l 581 0 l 423 264 l 375 361 l 372 361 l 326 264 l 180 0 l 3 0 l 287 471 z "},"Y":{"ha":679,"x_min":-14,"x_max":692,"o":"m 263 346 l -14 921 l 152 921 l 299 576 l 338 457 l 378 576 l 527 921 l 692 921 l 417 346 l 417 0 l 263 0 l 263 346 z "},"Z":{"ha":712,"x_min":28,"x_max":663,"o":"m 28 111 l 430 718 l 505 803 q 348 802 422 802 q 214 802 273 802 l 87 802 q 80 840 82 825 q 77 866 77 855 q 79 887 77 877 q 83 905 81 897 q 89 921 85 913 l 649 921 l 663 811 l 260 205 l 177 120 q 260 120 218 120 q 345 120 303 120 q 426 121 387 121 q 500 121 466 121 l 659 121 q 661 110 660 115 q 663 99 662 105 q 663 87 663 93 q 659 51 663 73 q 644 0 655 29 l 56 0 l 28 111 z "},"–":{"ha":851,"x_min":122,"x_max":729,"o":"m 122 465 l 729 465 l 729 346 l 122 346 l 122 465 z "},"—":{"ha":1398,"x_min":122,"x_max":1276,"o":"m 122 465 l 1276 465 l 1276 346 l 122 346 l 122 465 z "},"/":{"ha":584,"x_min":36,"x_max":549,"o":"m 330 328 l 548 888 q 515 912 535 903 q 476 926 496 920 q 429 934 454 931 l 226 371 l 36 -104 q 74 -130 54 -119 q 114 -146 95 -140 q 158 -157 136 -153 l 330 328 z "},"[":{"ha":398,"x_min":61,"x_max":364,"o":"m 61 1043 l 364 1043 l 364 951 l 199 951 l 199 -133 l 364 -133 l 364 -224 l 61 -224 l 61 1043 z "},"]":{"ha":398,"x_min":34,"x_max":338,"o":"m 337 1043 l 34 1043 l 34 951 l 199 951 l 199 -133 l 34 -133 l 34 -224 l 337 -224 l 337 1043 z "},":":{"ha":293,"x_min":46,"x_max":247,"o":"m 46 94 q 54 130 46 113 q 75 159 62 146 q 107 179 89 172 q 146 186 125 186 q 186 179 168 186 q 218 159 204 172 q 239 130 231 146 q 247 94 247 113 q 239 57 247 74 q 218 27 231 39 q 186 7 204 14 q 146 -1 168 -1 q 107 7 125 -1 q 75 27 89 14 q 54 57 62 39 q 46 94 46 74 m 46 597 q 54 633 46 616 q 75 663 62 650 q 107 683 89 675 q 146 690 125 690 q 186 683 168 690 q 218 663 204 675 q 239 633 231 650 q 247 597 247 616 q 239 560 247 577 q 218 530 231 543 q 186 510 204 517 q 146 503 168 503 q 107 510 125 503 q 75 530 89 517 q 54 560 62 543 q 46 597 46 577 z "},";":{"ha":293,"x_min":-12,"x_max":247,"o":"m 46 597 q 54 633 46 616 q 75 663 62 650 q 107 683 89 675 q 146 690 125 690 q 186 683 168 690 q 218 663 204 675 q 239 633 231 650 q 247 597 247 616 q 239 560 247 577 q 218 530 231 543 q 186 510 204 517 q 146 503 168 503 q 107 510 125 503 q 75 530 89 517 q 54 560 62 543 q 46 597 46 577 m -12 -230 q 33 -123 13 -180 q 64 -8 50 -73 q 79 132 79 58 q 94 134 82 133 q 122 136 106 136 q 150 134 135 136 q 180 127 165 132 q 209 115 195 123 q 232 94 222 107 q 225 24 232 58 q 208 -44 218 -11 q 183 -107 197 -77 q 155 -163 169 -137 q 78 -277 121 -224 q 43 -271 60 -275 q 13 -261 28 -268 q -12 -240 -3 -254 l -12 -230 l -12 -230 z "},"·":{"ha":307,"x_min":53,"x_max":254,"o":"m 153 281 q 114 288 132 281 q 82 309 96 296 q 61 338 68 321 q 53 375 53 355 q 61 411 53 394 q 82 441 68 428 q 114 461 96 454 q 153 468 132 468 q 193 461 174 468 q 224 441 211 454 q 246 411 238 428 q 254 375 254 394 q 246 338 254 355 q 224 309 238 321 q 193 288 211 296 q 153 281 174 281 z "},"!":{"ha":334,"x_min":66,"x_max":267,"o":"m 66 94 q 74 130 66 113 q 96 159 82 146 q 127 179 109 172 q 167 186 146 186 q 206 179 188 186 q 238 159 224 172 q 259 130 252 146 q 267 94 267 113 q 259 57 267 74 q 238 27 252 39 q 206 7 224 14 q 167 -1 188 -1 q 127 7 146 -1 q 96 27 109 14 q 74 57 82 39 q 66 94 66 74 m 120 278 q 103 509 111 392 q 97 613 100 558 q 92 724 94 668 q 88 836 90 781 q 87 941 87 891 q 111 944 98 943 q 136 946 123 945 q 165 947 150 947 q 195 946 180 947 q 221 944 210 945 q 246 941 234 943 q 245 830 246 887 q 241 715 243 772 q 237 604 239 659 q 231 501 234 550 q 216 277 224 387 q 202 272 212 275 q 169 269 191 269 q 143 272 157 269 q 120 278 130 275 z "},"¡":{"ha":334,"x_min":80,"x_max":281,"o":"m 80 537 q 88 501 80 518 q 109 471 96 484 q 141 451 123 458 q 180 444 159 444 q 220 451 201 444 q 252 471 238 458 q 273 501 265 484 q 281 537 281 518 q 273 574 281 557 q 252 604 265 591 q 220 624 238 616 q 180 631 201 631 q 141 624 159 631 q 109 604 123 616 q 88 574 96 591 q 80 537 80 557 m 134 353 q 117 122 124 239 q 111 18 113 73 q 105 -94 108 -37 q 102 -205 103 -150 q 100 -311 100 -260 q 125 -313 112 -312 q 150 -316 136 -315 q 178 -317 163 -317 q 209 -316 194 -317 q 235 -313 223 -315 q 260 -311 248 -312 q 258 -199 260 -256 q 255 -85 257 -142 q 250 26 253 -28 q 245 130 248 81 q 230 353 238 244 q 215 358 226 355 q 182 361 205 361 q 157 359 171 361 q 134 353 143 356 z "},"¶":{"ha":926,"x_min":95,"x_max":808,"o":"m 406 349 q 274 376 332 352 q 176 438 216 400 q 116 527 136 477 q 95 633 95 576 q 117 750 95 697 q 179 842 139 804 q 275 900 219 880 q 398 921 331 921 l 808 921 l 808 -106 l 663 -106 l 663 804 l 546 804 l 546 -106 l 406 -106 l 406 349 z "},"¨":{"ha":693,"x_min":103,"x_max":581,"o":"m 195 831 q 159 838 176 831 q 130 856 142 844 q 110 883 117 867 q 103 916 103 898 q 110 949 103 934 q 130 977 117 965 q 159 995 142 988 q 195 1001 176 1001 q 231 995 214 1001 q 260 977 248 988 q 281 949 273 965 q 288 916 288 934 q 281 883 288 898 q 260 856 273 867 q 231 838 248 844 q 195 831 214 831 m 487 831 q 451 838 468 831 q 422 856 435 844 q 402 883 410 867 q 395 916 395 898 q 402 949 395 934 q 422 977 410 965 q 451 995 435 988 q 487 1001 468 1001 q 523 995 506 1001 q 553 977 540 988 q 573 949 566 965 q 581 916 581 934 q 573 883 581 898 q 553 856 566 867 q 523 838 540 844 q 487 831 506 831 z "},"ȷ":{"ha":345,"x_min":9,"x_max":249,"o":"m 102 692 l 249 692 l 249 -66 q 238 -143 249 -109 q 203 -202 227 -176 q 141 -247 179 -229 q 47 -278 102 -266 q 27 -237 35 -258 q 16 -199 20 -216 q 9 -159 12 -178 q 52 -147 35 -155 q 81 -127 70 -140 q 97 -96 92 -115 q 102 -47 102 -77 l 102 692 z "},"ı":{"ha":353,"x_min":96,"x_max":277,"o":"m 96 693 l 237 693 l 237 114 l 277 85 l 277 0 l 238 0 l 237 1 l 237 0 q 133 27 170 0 q 96 117 96 54 l 96 693 z "},"":{"ha":347,"x_min":30,"x_max":263,"o":"m 111 -72 q 120 -72 112 -72 q 142 -73 129 -72 q 172 -77 155 -74 q 205 -86 189 -80 q 237 -101 222 -92 q 263 -123 252 -110 q 234 -221 255 -180 q 191 -290 213 -262 q 134 -344 164 -322 q 92 -338 111 -342 q 57 -328 75 -335 q 30 -307 39 -321 l 31 -296 q 68 -236 51 -270 q 96 -165 83 -207 q 111 -72 109 -124 z "},"¯":{"ha":694,"x_min":117,"x_max":570,"o":"m 125 882 q 117 936 117 915 q 119 962 117 948 q 126 989 121 975 l 564 989 q 568 964 567 976 q 570 942 570 951 q 567 913 570 928 q 559 882 565 898 l 125 882 l 125 882 z "},"ħ":{"ha":764,"x_min":-3,"x_max":667,"o":"m 6 795 q -3 847 -3 828 q -1 869 -3 859 q 7 894 1 880 l 92 894 l 92 977 l 238 977 l 238 894 l 367 894 q 369 880 368 887 q 370 865 370 873 q 371 850 371 857 q 369 826 371 838 q 361 799 367 814 l 238 799 l 238 758 l 231 654 l 235 654 q 258 669 240 658 q 303 692 276 680 q 363 712 330 703 q 433 721 397 721 q 533 704 490 721 q 607 655 577 687 q 652 580 637 624 q 667 481 667 536 l 667 0 l 522 0 l 522 467 q 492 575 522 541 q 395 610 463 610 q 334 605 362 610 q 284 591 306 599 q 238 572 259 583 l 238 0 l 92 0 l 92 799 l 6 799 l 6 795 z "},"ĸ":{"ha":630,"x_min":49,"x_max":610,"o":"m 49 692 l 187 692 l 187 460 l 180 362 l 216 405 l 434 693 l 598 693 l 378 414 l 321 360 l 366 320 l 610 0 l 446 0 l 212 313 l 180 354 l 187 231 l 187 0 l 49 0 l 49 692 z "},"ŀ":{"ha":691,"x_min":84,"x_max":604,"o":"m 84 976 l 224 976 l 224 114 l 264 85 l 264 0 l 226 0 l 224 1 l 224 0 q 121 27 157 0 q 84 117 84 54 l 84 976 m 504 281 q 465 288 483 281 q 433 309 446 296 q 411 338 419 321 q 404 375 404 355 q 411 411 404 394 q 433 441 419 428 q 465 461 446 454 q 504 468 483 468 q 543 461 525 468 q 575 441 562 454 q 596 411 589 428 q 604 375 604 394 q 596 338 604 355 q 575 309 589 321 q 543 288 562 296 q 504 281 525 281 z "},"ł":{"ha":347,"x_min":9,"x_max":344,"o":"m 9 473 l 96 518 l 96 985 l 237 985 l 237 591 l 344 647 l 344 530 l 237 474 l 237 123 l 277 94 l 277 9 l 238 9 l 237 10 l 237 9 q 133 36 170 9 q 96 125 96 63 l 96 401 l 9 356 l 9 473 z "},"œ":{"ha":1187,"x_min":55,"x_max":1135,"o":"m 55 355 q 79 511 55 444 q 145 623 102 578 q 249 690 189 667 q 381 712 309 712 q 480 698 438 712 q 553 664 523 684 q 602 622 583 644 q 631 583 621 600 q 662 622 642 600 q 710 664 682 644 q 776 698 739 684 q 861 712 814 712 q 977 693 926 712 q 1062 638 1027 673 q 1116 553 1097 603 q 1135 444 1135 504 q 1134 403 1135 422 q 1132 369 1133 384 q 1130 336 1131 351 l 697 336 q 746 159 699 218 q 880 100 793 100 q 950 107 917 100 q 1008 121 983 113 q 1064 142 1038 130 q 1081 96 1075 117 q 1091 62 1088 76 q 1097 31 1095 44 q 1034 9 1068 18 q 964 -7 1004 0 q 880 -14 925 -14 q 827 -8 852 -14 q 778 7 801 -2 q 733 29 754 17 q 695 54 713 41 q 621 123 654 84 q 589 82 609 105 q 539 37 569 58 q 470 1 510 16 q 381 -14 431 -14 q 243 11 304 -14 q 141 81 183 35 q 77 196 99 127 q 55 355 55 265 m 381 98 q 459 119 427 98 q 514 175 492 139 q 546 259 536 211 q 557 364 557 308 q 514 545 557 486 q 381 604 472 604 q 303 586 336 604 q 249 535 271 568 q 217 456 228 503 q 207 355 207 410 q 249 165 207 233 q 381 98 291 98 m 992 437 q 983 503 992 473 q 958 555 975 533 q 916 590 941 578 q 861 603 892 603 q 805 592 831 603 q 757 559 778 581 q 722 508 736 538 q 703 437 708 477 l 992 437 z "},"ð":{"ha":770,"x_min":58,"x_max":722,"o":"m 298 887 l 392 965 q 351 997 374 983 q 306 1022 328 1012 q 263 1040 283 1033 q 232 1048 243 1046 q 242 1093 237 1074 q 252 1124 248 1112 q 262 1149 258 1139 q 315 1138 285 1149 q 374 1109 345 1126 q 430 1072 404 1092 q 470 1036 456 1053 l 559 1140 l 634 1054 l 542 966 q 603 883 572 930 q 661 772 635 836 q 704 624 687 708 q 722 428 721 539 q 714 312 722 368 q 688 207 706 256 q 644 116 671 157 q 578 45 616 75 q 491 -1 541 16 q 380 -18 441 -18 q 249 12 309 -18 q 148 92 190 42 q 82 208 105 142 q 58 345 58 273 q 84 513 58 444 q 152 627 110 583 q 247 691 193 671 q 355 711 300 711 q 435 703 398 711 q 500 680 471 694 q 549 647 528 666 q 584 607 570 628 q 582 650 587 625 q 568 704 578 675 q 546 762 559 732 q 517 816 532 791 q 487 861 503 842 q 458 889 471 880 l 376 807 l 298 887 m 211 334 q 220 251 211 293 q 251 173 230 208 q 305 116 272 138 q 386 94 338 94 q 441 105 416 94 q 487 135 467 116 q 523 179 507 154 q 549 231 538 203 q 564 285 559 258 q 570 336 570 312 q 570 359 570 342 q 570 395 570 376 q 569 430 570 414 q 568 453 568 447 q 545 511 563 484 q 502 561 528 539 q 445 594 476 582 q 380 607 413 607 q 309 588 340 607 q 256 533 277 568 q 222 447 234 497 q 211 334 211 396 z "},"þ":{"ha":739,"x_min":92,"x_max":685,"o":"m 236 976 l 236 652 l 240 652 q 259 667 245 656 q 296 687 273 677 q 349 705 319 697 q 417 713 379 713 q 517 696 469 713 q 603 640 566 680 q 663 532 640 600 q 685 360 685 464 q 658 197 685 267 q 585 80 631 127 q 477 10 538 33 q 347 -14 416 -14 q 289 -12 316 -14 q 237 -9 261 -11 l 238 -275 l 92 -275 l 92 976 l 236 976 m 236 106 q 266 97 245 102 q 317 92 286 92 q 477 161 422 92 q 532 360 532 231 q 519 479 532 432 q 481 553 506 526 q 422 591 457 581 q 343 602 387 602 q 306 596 325 602 q 271 583 287 591 q 236 565 253 575 l 236 106 z "},"¸":{"ha":347,"x_min":-24,"x_max":233,"o":"m 113 22 l 209 22 q 220 -23 215 -1 q 229 -66 225 -43 q 233 -113 233 -90 q 220 -182 233 -149 q 183 -240 208 -215 q 123 -280 159 -265 q 42 -294 87 -294 q 1 -291 18 -294 q -14 -287 -7 -289 q -19 -267 -17 -278 q -22 -246 -21 -258 q -24 -220 -24 -234 q -21 -187 -24 -205 q -13 -148 -19 -170 q 15 -154 3 -151 q 32 -157 26 -157 q 65 -150 51 -157 q 88 -133 79 -144 q 101 -109 97 -123 q 106 -79 106 -94 q 104 -49 106 -65 q 102 -20 103 -33 q 98 11 100 -4 l 113 22 z "},"ƒ":{"ha":536,"x_min":24,"x_max":526,"o":"m 132 581 l 25 581 q 26 624 24 604 q 30 659 28 644 q 36 693 33 677 l 142 693 l 148 747 q 169 834 152 789 q 217 917 186 880 q 290 979 247 955 q 391 1004 334 1004 q 449 1000 424 1004 q 491 991 473 996 q 526 979 511 985 q 517 930 523 954 q 505 886 513 909 q 483 841 496 862 q 455 850 470 846 q 426 856 442 853 q 393 859 410 859 q 322 829 347 859 q 291 741 296 799 l 288 693 l 452 693 q 451 658 454 676 q 444 622 449 642 q 427 581 438 602 l 278 581 l 211 -107 l 65 -107 l 132 581 z "},"\r":{"ha":0,"x_min":0,"x_max":0,"o":""},"\u0000":{"ha":0,"x_min":0,"x_max":0,"o":""},"|":{"ha":351,"x_min":103,"x_max":248,"o":"m 103 1029 l 248 1029 l 248 -113 l 103 -113 l 103 1029 z "},"¦":{"ha":351,"x_min":103,"x_max":248,"o":"m 103 1029 l 248 1029 l 248 562 l 103 562 l 103 1029 m 103 355 l 248 355 l 248 -113 l 103 -113 l 103 355 z "},"+":{"ha":1041,"x_min":138,"x_max":890,"o":"m 448 791 l 581 791 l 581 14 l 448 14 l 448 791 m 138 465 l 890 465 l 890 346 l 138 346 l 138 465 z "},"±":{"ha":1041,"x_min":138,"x_max":890,"o":"m 138 575 l 448 575 l 448 901 l 581 901 l 581 575 l 890 575 l 890 457 l 581 457 l 581 222 l 448 222 l 448 457 l 138 457 l 138 575 m 138 119 l 890 119 l 890 0 l 138 0 l 138 119 z "},"=":{"ha":924,"x_min":159,"x_max":752,"o":"m 159 349 l 752 349 l 752 231 l 159 231 l 159 349 m 159 692 l 752 692 l 752 574 l 159 574 l 159 692 z "},"Þ":{"ha":757,"x_min":104,"x_max":724,"o":"m 104 921 l 259 921 l 259 755 l 446 755 q 566 735 514 755 q 653 679 618 715 q 706 590 688 642 q 724 473 724 538 q 703 361 724 414 q 640 268 682 308 q 537 203 598 227 q 395 180 475 180 q 341 181 366 180 q 298 184 316 182 q 258 190 276 187 l 258 0 l 104 0 l 104 921 m 258 300 q 294 297 270 299 q 351 296 317 296 q 436 305 397 296 q 503 335 475 314 q 548 389 532 356 q 564 470 564 422 q 555 539 564 508 q 528 593 546 571 q 481 628 509 616 q 416 641 454 641 l 258 641 l 258 300 z "},"Ð":{"ha":858,"x_min":38,"x_max":823,"o":"m 38 524 q 75 525 56 524 q 114 526 94 525 l 114 920 q 191 924 149 922 q 276 926 227 925 q 385 928 326 928 q 572 900 490 928 q 709 814 653 871 q 794 671 765 758 q 823 469 823 585 q 791 266 823 353 q 702 119 760 178 q 562 30 644 60 q 375 0 479 0 l 114 0 l 114 418 l 38 418 l 38 524 m 398 119 q 511 145 461 119 q 595 219 560 172 q 648 330 629 267 q 666 467 666 393 q 648 615 666 551 q 595 723 629 680 q 511 788 560 766 q 398 810 461 810 q 338 809 363 810 q 298 808 313 808 q 267 806 279 806 l 267 528 q 351 530 312 529 q 420 531 391 530 q 484 532 455 532 q 485 520 484 526 q 486 508 486 515 q 486 493 486 500 q 484 459 486 479 q 475 416 482 439 q 414 416 446 416 q 348 417 385 417 q 267 418 310 417 l 267 119 l 398 119 z "},"Ł":{"ha":673,"x_min":-3,"x_max":621,"o":"m -3 421 l 107 459 l 107 921 l 261 921 l 261 513 l 496 595 l 496 480 l 261 399 l 261 127 q 320 128 290 127 q 382 130 351 129 q 443 131 413 130 q 498 134 472 132 q 621 139 561 136 q 617 104 621 127 q 610 58 614 81 q 603 17 606 35 q 597 0 599 0 l 107 0 l 107 345 l -3 307 l -3 421 z "},"ˆ":{"ha":696,"x_min":96,"x_max":582,"o":"m 256 1095 l 431 1095 l 582 789 l 464 789 l 342 1020 l 214 789 l 96 789 l 256 1095 z "},"ˇ":{"ha":693,"x_min":97,"x_max":583,"o":"m 97 1095 l 232 1095 l 340 883 l 347 883 l 446 1095 l 583 1095 l 430 802 l 248 802 l 97 1095 z "},"_":{"ha":925,"x_min":-6,"x_max":931,"o":"m 931 -120 l 931 -225 l -6 -225 l -6 -120 l 931 -120 z "},"\\":{"ha":584,"x_min":36,"x_max":548,"o":"m 254 328 l 36 888 q 68 912 49 903 q 108 926 88 920 q 155 934 130 931 l 358 371 l 548 -104 q 510 -130 530 -119 q 470 -146 489 -140 q 426 -157 448 -153 l 254 328 z "},"Ø":{"ha":875,"x_min":56,"x_max":819,"o":"m 440 -18 q 350 -10 391 -18 q 272 12 308 -2 l 208 -122 q 184 -114 197 -119 q 160 -101 174 -109 q 133 -79 146 -93 l 198 56 q 90 218 124 116 q 56 460 56 321 q 79 661 56 572 q 149 811 102 749 q 269 906 196 873 q 440 939 341 939 q 595 916 527 939 l 650 1031 q 676 1023 663 1029 q 700 1010 688 1019 q 723 989 713 1002 l 670 878 q 784 720 749 823 q 819 473 819 617 q 797 271 819 361 q 729 116 775 180 q 611 17 683 52 q 440 -18 540 -18 m 440 101 q 548 128 505 101 q 617 204 591 155 q 654 322 643 254 q 665 473 665 391 q 652 642 665 572 q 605 753 638 711 l 323 130 q 440 101 370 101 m 209 460 q 222 300 209 369 q 267 184 235 231 l 547 800 q 499 816 526 810 q 440 821 473 821 q 331 797 376 821 q 260 727 287 773 q 221 613 233 680 q 209 460 209 546 z "},"?":{"ha":577,"x_min":24,"x_max":550,"o":"m 184 282 q 182 312 182 292 q 181 354 181 332 q 180 395 180 376 q 180 421 180 414 q 185 474 180 452 q 203 515 191 497 q 235 546 216 532 q 280 572 254 559 q 366 636 339 601 q 393 710 393 671 q 354 806 393 777 q 245 835 314 835 q 175 824 207 835 q 120 802 144 814 q 71 769 93 787 q 44 813 54 793 q 31 848 35 833 q 24 878 25 865 q 85 916 50 899 q 160 942 115 930 q 265 954 205 954 q 379 939 327 954 q 469 896 431 924 q 529 826 507 867 q 550 730 550 784 q 534 647 550 684 q 491 579 517 609 q 430 525 465 549 q 361 482 396 501 q 324 455 337 470 q 304 417 311 440 q 295 361 297 395 q 294 277 294 328 q 267 271 277 273 q 243 269 256 269 q 196 275 218 269 l 184 282 m 140 94 q 148 130 140 113 q 169 159 155 146 q 201 179 182 172 q 240 186 219 186 q 279 179 261 186 q 311 159 298 172 q 333 130 325 146 q 340 94 340 113 q 333 57 340 74 q 311 27 325 39 q 279 7 298 14 q 240 -1 261 -1 q 201 7 219 -1 q 169 27 182 14 q 148 57 155 39 q 140 94 140 74 z "},"¿":{"ha":577,"x_min":27,"x_max":553,"o":"m 393 349 q 395 319 395 339 q 396 277 396 299 q 397 237 397 256 q 397 210 397 218 q 392 157 397 180 q 374 117 386 134 q 342 85 361 99 q 297 59 323 72 q 211 -5 238 31 q 184 -79 184 -40 q 223 -175 184 -146 q 332 -203 263 -203 q 402 -193 370 -203 q 457 -170 433 -182 q 507 -138 484 -156 q 533 -182 524 -162 q 547 -216 542 -202 q 553 -246 552 -233 q 492 -284 528 -267 q 417 -310 462 -298 q 312 -322 372 -322 q 198 -308 250 -322 q 108 -264 146 -293 q 48 -194 70 -236 q 27 -99 27 -153 q 43 -15 27 -53 q 86 53 60 22 q 147 106 113 83 q 216 149 181 130 q 253 176 240 161 q 273 214 267 191 q 282 270 280 237 q 283 354 283 304 q 310 360 300 358 q 334 362 321 362 q 381 357 359 362 l 393 349 m 437 538 q 430 502 437 519 q 408 472 422 485 q 376 452 395 459 q 337 445 358 445 q 298 452 316 445 q 266 472 279 459 q 244 502 252 485 q 237 538 237 519 q 244 575 237 557 q 266 605 252 592 q 298 625 279 617 q 337 632 316 632 q 376 625 358 632 q 408 605 395 617 q 430 575 422 592 q 437 538 437 557 z "},"‹":{"ha":547,"x_min":88,"x_max":456,"o":"m 96 290 q 92 304 94 296 q 88 336 88 317 q 90 354 88 346 q 93 369 91 363 q 98 382 96 376 l 370 627 q 408 601 391 614 q 437 573 423 589 q 454 538 451 557 l 221 349 l 221 326 l 456 146 q 434 110 448 127 q 404 80 419 93 q 368 53 387 65 l 96 290 l 96 290 z "},"›":{"ha":547,"x_min":92,"x_max":460,"o":"m 452 390 q 456 376 454 384 q 459 345 459 363 q 458 326 459 334 q 454 311 456 317 q 449 298 452 304 l 178 54 q 139 79 157 66 q 110 107 124 92 q 93 142 96 123 l 326 332 l 326 355 l 92 534 q 114 570 99 553 q 143 600 128 587 q 180 627 161 615 l 452 390 l 452 390 z "},"«":{"ha":929,"x_min":88,"x_max":838,"o":"m 477 290 q 473 304 475 296 q 470 336 470 317 q 471 354 470 346 q 475 369 473 363 q 480 382 477 376 l 751 627 q 790 601 772 614 q 819 573 805 589 q 836 538 833 557 l 603 349 l 603 326 l 838 146 q 815 110 830 127 q 786 80 801 93 q 749 53 768 65 l 477 290 l 477 290 m 96 290 q 92 304 94 296 q 88 336 88 317 q 90 354 88 346 q 93 369 91 363 q 98 382 96 376 l 370 627 q 408 601 391 614 q 437 573 423 589 q 454 538 451 557 l 221 349 l 221 326 l 456 146 q 434 110 448 127 q 404 80 419 93 q 368 53 387 65 l 96 290 l 96 290 z "},"»":{"ha":923,"x_min":92,"x_max":836,"o":"m 827 389 q 831 376 829 383 q 835 344 835 362 q 833 325 835 334 q 830 311 832 317 q 825 297 827 303 l 553 53 q 515 79 532 65 q 486 107 500 91 q 469 141 472 123 l 702 331 l 702 354 l 467 533 q 489 570 475 553 q 519 600 504 587 q 555 627 536 614 l 827 389 l 827 389 m 452 389 q 456 376 454 383 q 459 344 459 362 q 458 325 459 334 q 454 311 456 317 q 449 297 452 303 l 178 53 q 139 79 157 65 q 110 107 124 91 q 93 141 96 123 l 326 331 l 326 354 l 92 533 q 114 570 99 553 q 143 600 128 587 q 180 627 161 614 l 452 389 l 452 389 z "},"'":{"ha":270,"x_min":54,"x_max":216,"o":"m 134 699 q 110 701 120 699 q 92 707 99 704 q 79 717 84 711 l 54 1090 q 75 1099 63 1095 q 100 1105 85 1103 q 135 1108 115 1108 q 170 1105 155 1108 q 195 1097 185 1101 q 216 1086 208 1093 l 189 711 q 174 705 182 707 q 157 700 167 702 q 134 699 146 699 z "},"\"":{"ha":543,"x_min":41,"x_max":503,"o":"m 120 699 q 96 701 106 699 q 79 707 85 704 q 65 717 71 711 l 41 1090 q 62 1099 50 1095 q 87 1105 72 1103 q 121 1108 102 1108 q 156 1105 141 1108 q 182 1097 172 1101 q 202 1086 194 1093 l 175 711 q 161 705 169 707 q 143 700 153 702 q 120 699 133 699 m 420 699 q 396 701 407 699 q 379 707 386 704 q 366 717 371 711 l 341 1090 q 362 1099 350 1095 q 387 1105 372 1103 q 422 1108 402 1108 q 457 1105 441 1108 q 482 1097 472 1101 q 503 1086 494 1093 l 475 711 q 461 705 469 707 q 444 700 454 702 q 420 699 433 699 z "},"×":{"ha":928,"x_min":123,"x_max":795,"o":"m 375 415 l 123 670 l 208 755 l 456 489 l 703 755 l 795 663 l 543 401 l 788 146 l 703 62 l 463 328 l 215 62 l 123 153 l 375 415 z "},"÷":{"ha":1041,"x_min":138,"x_max":890,"o":"m 138 465 l 890 465 l 890 346 l 138 346 l 138 465 m 416 102 q 424 138 416 121 q 445 168 431 155 q 477 188 458 181 q 516 195 495 195 q 555 188 537 195 q 587 168 574 181 q 609 138 601 155 q 616 102 616 121 q 609 65 616 83 q 587 36 601 48 q 555 16 574 23 q 516 8 537 8 q 477 16 495 8 q 445 36 458 23 q 424 65 431 48 q 416 102 416 83 m 416 722 q 424 758 416 741 q 445 787 431 774 q 477 807 458 800 q 516 814 495 814 q 555 807 537 814 q 587 787 574 800 q 609 758 601 774 q 616 722 616 741 q 609 685 616 702 q 587 655 601 667 q 555 635 574 642 q 516 627 537 627 q 477 635 495 627 q 445 655 458 642 q 424 685 431 667 q 416 722 416 702 z "},"<":{"ha":973,"x_min":146,"x_max":789,"o":"m 146 443 l 739 758 l 789 650 l 359 410 l 317 397 l 361 382 l 789 143 l 739 35 l 146 351 l 146 443 z "},"$":{"ha":731,"x_min":81,"x_max":665,"o":"m 90 33 q 95 68 92 49 q 104 107 98 85 q 121 157 110 130 q 187 135 153 144 q 254 120 217 127 q 328 113 290 113 q 476 145 431 113 q 520 241 520 178 q 511 302 520 277 q 483 344 503 326 q 430 374 463 361 q 352 399 398 387 q 222 445 274 419 q 138 504 170 471 q 94 575 107 536 q 81 660 81 614 q 98 773 81 724 q 148 856 115 822 q 227 909 180 889 q 335 935 274 928 l 335 1055 q 355 1060 344 1057 q 375 1064 363 1062 q 398 1066 387 1066 q 427 1063 412 1066 q 460 1052 442 1060 l 460 936 q 534 923 503 931 q 585 905 565 914 q 625 883 608 895 q 616 849 623 867 q 602 812 611 833 q 575 767 592 791 q 534 791 559 781 q 479 809 513 801 q 399 817 446 817 q 267 784 313 817 q 222 685 222 752 q 231 623 222 648 q 260 581 239 598 q 315 551 281 564 q 401 524 350 538 q 526 481 475 505 q 607 427 576 457 q 651 356 638 396 q 665 264 665 316 q 653 159 665 205 q 615 78 642 113 q 548 22 589 44 q 447 -9 507 1 l 447 -140 q 428 -144 437 -142 q 409 -147 420 -146 q 389 -149 399 -149 q 358 -146 375 -149 q 322 -137 342 -144 l 322 -18 q 226 -8 269 -16 q 153 9 184 -1 q 90 33 118 20 z "},">":{"ha":973,"x_min":184,"x_max":828,"o":"m 827 463 l 234 779 l 184 671 l 614 430 l 656 417 l 612 403 l 184 163 l 234 56 l 827 372 l 827 463 z "},"%":{"ha":1212,"x_min":88,"x_max":1124,"o":"m 817 939 q 857 926 838 934 q 891 908 874 919 q 918 880 908 897 l 391 -14 q 353 -2 371 -9 q 319 16 337 5 q 287 45 301 27 l 817 939 m 308 410 q 219 429 259 410 q 150 483 178 448 q 104 567 121 518 q 88 674 88 616 q 105 781 88 732 q 151 865 121 830 q 221 919 180 900 q 308 939 261 939 q 397 920 357 939 q 465 867 437 901 q 509 786 494 833 q 525 679 525 738 q 509 571 525 621 q 464 486 492 522 q 395 430 435 450 q 308 410 355 410 m 308 505 q 354 520 335 505 q 386 561 374 536 q 404 616 398 586 q 410 677 410 647 q 404 740 410 710 q 386 793 398 770 q 354 829 374 816 q 308 843 335 843 q 261 828 281 843 q 229 789 241 813 q 209 735 216 766 q 203 674 203 705 q 209 612 203 643 q 229 558 216 582 q 261 519 241 534 q 308 505 281 505 m 687 252 q 704 359 687 310 q 750 443 720 408 q 819 497 779 477 q 907 516 859 516 q 996 497 956 516 q 1064 445 1036 479 q 1108 363 1093 411 q 1124 256 1124 315 q 1107 149 1124 198 q 1062 63 1091 99 q 994 7 1034 27 q 907 -14 954 -14 q 818 6 858 -14 q 748 60 777 25 q 703 144 720 96 q 687 252 687 193 m 801 252 q 806 190 801 220 q 824 136 812 159 q 857 97 837 112 q 907 82 878 82 q 953 98 934 82 q 985 138 972 113 q 1002 194 997 163 q 1008 254 1008 224 q 1002 317 1008 287 q 985 370 997 347 q 953 407 972 393 q 907 420 934 420 q 860 406 880 420 q 827 367 840 391 q 807 313 814 343 q 801 252 801 283 z "},"˜":{"ha":618,"x_min":64,"x_max":538,"o":"m 140 840 q 106 865 120 852 q 82 890 92 879 q 64 916 71 903 q 112 966 85 943 q 164 1000 134 985 q 231 1016 195 1016 q 284 1003 262 1016 q 326 975 306 990 q 357 954 342 963 q 386 945 372 945 q 413 953 400 945 q 437 972 427 962 q 460 1001 449 985 q 496 975 481 988 q 521 951 511 962 q 538 926 532 939 q 490 876 517 899 q 437 842 468 857 q 370 827 407 827 q 317 840 339 827 q 275 867 294 852 q 244 889 259 880 q 216 898 229 898 q 188 889 201 898 q 163 869 174 880 q 140 840 151 857 z "},"µ":{"ha":810,"x_min":117,"x_max":715,"o":"m 262 -260 l 237 -288 l 117 -288 l 117 227 l 117 693 l 262 693 l 262 276 q 269 208 262 240 q 292 151 276 175 q 336 112 309 126 q 407 98 364 98 q 441 102 426 98 q 469 115 456 107 q 490 134 481 123 q 507 155 500 144 q 530 214 522 181 l 530 693 l 675 693 l 675 112 l 715 43 l 715 0 l 578 0 l 551 47 l 541 86 q 528 54 537 71 q 501 22 518 37 q 458 -3 484 7 q 396 -14 432 -14 q 342 -7 367 -14 q 297 11 317 -1 q 263 37 277 22 q 243 69 249 52 l 262 -260 z "},"~":{"ha":811,"x_min":64,"x_max":736,"o":"m 156 307 q 115 328 132 316 q 87 349 98 340 q 64 372 74 361 q 113 456 83 418 q 142 487 126 471 q 179 514 159 502 q 224 533 200 526 q 278 540 249 540 q 330 532 307 540 q 374 512 354 524 q 412 487 395 500 q 443 462 429 473 q 491 425 469 441 q 535 408 513 408 q 582 424 562 408 q 615 459 602 439 q 642 510 631 481 q 686 488 668 499 q 715 467 703 476 q 736 444 728 455 q 690 363 719 399 q 662 334 678 349 q 627 308 646 319 q 583 290 607 297 q 530 283 558 283 q 478 291 502 283 q 434 310 454 298 q 398 334 414 321 q 368 359 381 347 q 318 394 342 380 q 269 408 295 408 q 222 392 243 408 q 186 357 201 376 q 156 307 168 335 z "},"ß":{"ha":774,"x_min":101,"x_max":741,"o":"m 101 628 q 119 742 101 686 q 173 841 137 798 q 264 912 210 885 q 393 939 319 939 q 468 930 427 939 q 545 902 509 922 q 605 846 581 881 q 629 758 629 811 q 621 695 629 722 q 601 649 613 669 q 573 613 588 629 q 543 583 557 597 q 523 564 533 574 q 506 543 513 554 q 493 519 498 532 q 488 494 488 507 q 491 472 488 480 q 505 458 495 464 q 529 446 514 452 q 568 429 545 439 q 655 382 621 406 q 708 331 689 359 q 734 269 727 302 q 741 191 741 235 q 722 107 741 144 q 669 42 703 69 q 590 1 635 16 q 492 -14 545 -14 q 421 -8 453 -14 q 368 5 390 -2 q 321 25 341 14 q 324 62 321 43 q 334 99 328 79 q 352 141 340 120 q 397 125 374 132 q 440 114 416 119 q 488 109 465 109 q 524 111 506 109 q 556 123 542 114 q 579 147 570 132 q 589 188 589 162 q 567 256 589 225 q 501 307 545 288 q 429 341 459 325 q 380 376 399 357 q 353 420 361 395 q 344 480 344 445 q 350 525 344 506 q 366 558 356 543 q 388 585 376 573 q 414 610 401 597 q 438 634 426 621 q 460 663 450 647 q 476 698 470 678 q 483 743 483 718 q 458 804 483 780 q 386 828 433 828 q 327 812 354 828 q 281 770 300 796 q 251 711 262 744 q 240 644 240 678 l 240 0 l 101 0 l 101 628 z "},"Œ":{"ha":1257,"x_min":56,"x_max":1208,"o":"m 447 -18 q 271 15 345 -18 q 150 110 197 48 q 79 261 102 172 q 56 460 56 349 q 80 661 56 572 q 153 811 104 749 q 275 906 201 873 q 447 939 348 939 q 580 920 525 939 q 673 865 635 901 l 673 921 l 1201 921 q 1202 911 1201 916 q 1203 900 1202 906 q 1203 888 1203 895 q 1199 852 1203 876 q 1179 798 1194 829 q 1061 801 1122 800 q 946 803 1009 802 q 824 804 884 804 l 824 532 q 869 533 844 532 q 922 533 895 533 q 979 534 950 534 q 1035 536 1008 535 q 1166 538 1098 537 q 1166 524 1166 531 q 1167 509 1167 517 q 1168 493 1168 500 q 1165 471 1168 487 q 1151 418 1162 455 q 1021 419 1084 418 q 967 419 995 419 q 913 419 939 419 q 864 420 887 420 q 824 420 841 420 l 824 116 q 950 118 884 116 q 1074 121 1017 119 q 1206 126 1141 124 q 1207 111 1206 119 q 1208 96 1208 104 q 1208 80 1208 87 q 1206 46 1208 66 q 1198 0 1204 26 l 673 0 l 673 68 q 578 6 635 30 q 447 -18 521 -18 m 447 108 q 552 136 509 108 q 622 213 595 163 q 661 329 649 262 q 673 473 673 395 q 661 621 673 557 q 622 728 649 685 q 552 792 595 770 q 447 814 509 814 q 341 789 385 814 q 270 718 298 764 q 229 606 242 671 q 216 460 216 541 q 229 315 216 380 q 270 203 242 250 q 341 133 298 157 q 447 108 385 108 z "},"¢":{"ha":658,"x_min":61,"x_max":575,"o":"m 61 348 q 124 600 61 506 q 310 715 188 694 l 310 841 q 330 846 319 844 q 350 850 338 848 q 373 852 361 852 q 401 849 386 852 q 435 838 417 846 l 435 717 q 485 708 460 713 q 529 699 509 703 q 571 687 551 693 q 565 654 569 672 q 555 621 562 640 q 539 583 549 602 q 489 597 515 590 q 438 607 467 602 q 380 612 410 612 q 303 591 335 612 q 251 536 271 571 q 222 452 231 500 q 213 348 213 404 q 222 241 213 287 q 251 163 231 195 q 303 116 271 132 q 380 100 335 100 q 440 105 410 100 q 495 115 471 109 q 551 130 524 121 q 563 97 557 115 q 571 61 568 81 q 574 18 575 41 q 528 7 553 12 q 481 -3 507 2 q 427 -11 454 -7 l 427 -133 q 408 -138 418 -136 q 389 -141 399 -140 q 368 -142 378 -142 q 339 -140 355 -142 q 302 -130 322 -138 l 302 -7 q 61 348 61 34 z "},"£":{"ha":718,"x_min":38,"x_max":728,"o":"m 47 414 q 40 447 42 433 q 38 470 38 460 q 39 491 38 481 q 43 509 41 500 q 47 526 45 517 l 151 526 q 139 609 144 565 q 134 711 134 654 q 153 802 134 758 q 210 881 172 846 q 305 936 248 915 q 439 956 362 956 q 527 945 490 956 q 591 920 565 934 q 642 884 621 904 q 631 857 639 871 q 614 830 625 844 q 586 802 604 816 l 567 802 q 506 835 536 824 q 432 846 475 846 q 324 809 361 846 q 287 707 287 772 q 292 609 287 653 q 302 526 296 565 l 509 526 q 515 495 513 509 q 517 471 517 481 q 515 450 517 460 q 513 432 514 440 q 509 414 511 422 l 315 414 l 315 401 q 304 296 315 345 q 278 211 293 248 q 248 149 262 174 q 226 115 233 124 l 227 115 q 246 126 234 120 q 274 137 258 132 q 307 145 289 142 q 345 149 325 149 q 370 150 360 149 q 389 149 380 150 q 405 146 397 149 q 425 140 413 144 l 424 140 q 468 125 446 132 q 519 118 491 118 q 558 130 537 118 q 596 158 578 142 q 637 199 617 176 q 681 177 663 189 q 709 156 698 165 q 728 134 721 144 q 680 60 709 93 q 652 33 668 46 q 616 9 635 20 q 572 -7 596 -1 q 522 -14 549 -14 q 449 -5 481 -14 q 389 12 417 3 q 343 25 368 19 q 294 32 318 32 q 224 19 260 32 q 157 -14 189 6 q 127 -2 141 -9 q 102 15 113 5 q 82 33 90 24 q 71 49 74 41 q 120 155 98 99 q 138 205 129 178 q 154 261 147 232 q 165 319 161 290 q 170 379 170 349 q 168 414 170 396 l 47 414 l 47 414 z "},"€":{"ha":785,"x_min":-1,"x_max":758,"o":"m 9 283 q 1 315 3 302 q -1 339 -1 329 q 1 360 -1 350 q 4 378 2 370 q 9 395 6 387 l 121 395 q 120 422 120 409 q 120 450 120 435 q 121 487 120 469 q 123 522 121 505 l 35 522 q 28 554 30 541 q 26 578 26 568 q 28 598 26 589 q 31 616 29 608 q 35 634 33 625 l 141 634 q 278 856 178 779 q 533 933 377 933 q 612 927 572 933 q 685 914 652 922 q 758 895 722 906 q 751 860 755 879 q 741 823 748 844 q 722 778 734 802 q 665 795 695 788 q 604 808 638 802 q 533 813 570 813 q 456 801 492 813 q 388 765 419 788 q 333 708 357 741 q 294 634 309 675 l 607 634 q 613 603 612 616 q 615 578 615 589 q 614 558 615 568 q 611 540 612 548 q 607 522 609 530 l 269 522 q 265 450 265 486 q 267 395 265 420 l 579 395 q 586 364 585 378 q 587 340 587 350 q 586 319 587 329 q 583 301 585 309 q 579 283 581 292 l 285 283 q 318 209 297 241 q 369 154 340 176 q 434 120 398 132 q 513 109 471 109 q 587 114 551 109 q 652 125 623 119 q 716 143 685 133 q 729 109 724 128 q 738 70 734 93 q 740 19 741 47 q 666 1 704 8 q 593 -12 633 -7 q 513 -18 553 -18 q 257 58 349 -18 q 134 283 164 134 l 9 283 l 9 283 z "},"¥":{"ha":797,"x_min":34,"x_max":763,"o":"m 149 342 q 142 374 144 361 q 140 398 140 388 q 142 418 140 409 q 144 434 143 427 q 149 448 146 441 l 334 448 l 34 916 l 199 916 l 382 576 l 398 538 l 412 576 l 599 916 l 763 916 l 458 448 l 648 448 q 655 420 653 431 q 656 399 656 409 q 655 378 656 388 q 652 360 654 368 q 648 342 650 351 l 469 342 l 469 238 l 648 238 q 655 206 653 220 q 656 182 656 192 q 655 163 656 172 q 652 146 654 154 q 648 132 650 138 l 469 132 l 469 0 l 330 0 l 330 132 l 149 132 q 142 160 144 150 q 140 182 140 171 q 142 202 140 193 q 144 220 143 212 q 149 238 146 229 l 330 238 l 330 342 l 149 342 l 149 342 z "},"Æ":{"ha":965,"x_min":-18,"x_max":917,"o":"m 253 921 l 909 921 q 910 911 909 916 q 911 900 911 906 q 911 887 911 894 q 907 852 911 876 q 887 798 903 828 q 787 800 839 799 q 689 803 743 802 q 583 804 635 804 l 583 492 q 621 493 600 492 q 667 493 643 493 q 715 494 690 494 q 763 496 740 495 q 874 499 817 497 q 875 484 874 491 q 876 468 876 476 q 876 452 876 460 q 873 432 876 447 q 860 378 870 416 l 749 378 q 703 378 727 378 q 657 379 680 378 q 616 379 635 379 q 583 379 597 379 l 583 116 q 693 118 635 116 q 801 121 751 119 q 915 126 859 124 q 916 114 915 121 q 917 101 916 109 q 917 85 917 93 q 915 48 917 72 q 906 0 913 25 l 429 0 l 429 311 l 219 311 l 134 0 l -18 0 l 253 921 m 429 429 l 429 809 l 357 809 l 254 429 l 429 429 z "},"¤":{"ha":891,"x_min":61,"x_max":830,"o":"m 174 256 q 135 341 149 292 q 122 454 122 391 q 134 559 122 513 q 170 642 146 606 l 61 749 q 81 777 69 764 q 109 802 92 789 q 150 827 126 816 l 254 721 q 343 755 294 744 q 448 766 391 766 q 555 756 507 766 q 643 724 604 746 l 744 827 q 781 804 764 817 q 809 779 795 793 q 829 746 823 764 l 727 645 q 760 566 749 610 q 770 464 770 522 q 756 349 770 399 q 716 259 743 298 l 830 146 q 809 116 821 130 q 782 91 798 104 q 741 69 765 77 l 630 182 q 547 152 593 161 q 448 142 501 142 q 347 151 393 142 q 262 180 300 160 l 149 64 q 115 87 132 75 q 87 113 102 98 q 64 146 73 127 l 174 256 m 448 251 q 526 266 494 251 q 579 309 558 281 q 610 376 600 336 q 620 464 620 415 q 610 553 620 515 q 579 614 600 590 q 526 649 558 637 q 448 660 494 660 q 370 646 403 660 q 316 605 337 631 q 284 541 294 578 q 273 454 273 503 q 315 300 273 349 q 448 251 357 251 z "},"¬":{"ha":1041,"x_min":131,"x_max":884,"o":"m 131 465 l 884 465 l 884 120 l 751 120 l 751 346 l 131 346 l 131 465 z "},"­":{"ha":833,"x_min":0,"x_max":0,"o":""},"°":{"ha":523,"x_min":42,"x_max":481,"o":"m 260 785 q 302 793 283 785 q 336 817 322 801 q 359 855 351 832 q 367 909 367 878 q 359 962 367 939 q 336 1001 351 985 q 302 1025 322 1017 q 260 1034 283 1034 q 219 1025 238 1034 q 187 1001 201 1017 q 165 962 173 985 q 157 909 157 939 q 165 855 157 878 q 187 817 173 832 q 219 793 201 801 q 260 785 238 785 m 260 691 q 175 705 214 691 q 105 746 135 718 q 59 814 76 773 q 42 909 42 854 q 59 1003 42 962 q 105 1072 76 1044 q 175 1113 135 1099 q 260 1127 214 1127 q 349 1113 308 1127 q 419 1072 389 1099 q 465 1003 448 1044 q 481 909 481 962 q 465 813 481 854 q 419 745 448 772 q 349 705 389 718 q 260 691 308 691 z "},"^":{"ha":811,"x_min":84,"x_max":716,"o":"m 347 921 l 455 921 l 716 149 l 600 96 l 408 722 l 401 758 l 393 722 l 200 96 l 84 149 l 347 921 z "},"&":{"ha":876,"x_min":13,"x_max":854,"o":"m 510 408 q 505 446 505 425 q 504 476 504 466 q 507 507 504 488 q 515 541 511 526 l 854 541 q 852 503 854 524 q 846 464 850 483 q 839 430 843 445 q 831 408 835 414 l 772 408 q 764 342 769 376 q 750 275 758 308 q 730 211 741 241 q 705 158 719 181 q 764 120 733 139 q 829 81 795 101 q 817 42 824 61 q 798 8 809 26 q 770 -22 787 -10 l 753 -22 q 682 18 715 -2 q 616 58 648 39 q 495 -4 564 18 q 338 -26 427 -26 q 266 -20 303 -26 q 192 1 229 -13 q 123 37 156 16 q 66 87 91 58 q 27 153 42 116 q 13 233 13 189 q 25 310 13 274 q 59 377 37 347 q 115 429 82 407 q 191 463 149 451 q 151 563 161 518 q 141 641 141 608 q 164 756 141 708 q 227 834 188 804 q 314 879 265 865 q 415 893 363 893 q 509 882 467 893 q 583 850 552 871 q 631 794 614 828 q 648 715 648 760 q 607 709 629 711 q 563 704 588 706 q 511 701 538 702 q 502 731 510 718 q 479 754 494 745 q 446 767 465 763 q 405 772 427 772 q 322 740 350 772 q 295 646 295 708 q 299 598 295 624 q 314 542 302 572 q 347 477 326 511 q 402 403 368 442 q 487 319 437 363 q 608 224 538 274 q 626 261 618 239 q 640 308 633 283 q 650 358 646 332 q 655 408 654 385 l 510 408 m 356 95 q 435 104 396 95 q 509 132 473 113 q 341 271 408 205 q 232 397 274 338 q 184 336 201 374 q 167 252 167 298 q 182 187 167 216 q 224 138 198 158 q 285 106 251 117 q 356 95 319 95 z "},"#":{"ha":925,"x_min":80,"x_max":833,"o":"m 511 237 l 347 238 l 325 0 q 308 -5 317 -3 q 291 -8 300 -7 q 271 -9 281 -9 q 242 -6 258 -9 q 205 5 225 -3 l 227 238 l 87 238 q 83 250 85 243 q 80 280 80 262 q 89 335 80 302 l 237 335 l 259 577 l 122 577 q 118 591 120 584 q 115 606 117 598 q 114 624 114 614 q 116 647 114 633 q 123 679 118 661 l 269 679 l 292 919 q 311 924 301 921 q 331 927 320 926 q 351 929 341 929 q 381 926 365 929 q 412 913 397 922 l 390 679 l 550 679 l 571 919 q 591 924 581 921 q 610 927 600 926 q 631 929 620 929 q 660 926 644 929 q 692 913 676 922 l 671 679 l 823 679 q 828 661 825 671 q 831 643 829 653 q 833 623 833 633 q 830 602 833 612 q 821 576 827 591 l 661 576 l 642 335 l 789 335 q 793 317 791 327 q 797 299 795 309 q 799 279 799 289 q 796 260 799 269 q 786 237 793 252 l 632 237 l 611 0 q 594 -5 603 -3 q 576 -8 587 -7 q 557 -9 566 -9 q 527 -6 544 -9 q 490 5 511 -3 l 511 237 m 357 335 l 520 335 l 541 576 l 380 577 l 357 335 z "},"§":{"ha":694,"x_min":95,"x_max":595,"o":"m 120 14 q 172 -8 143 1 q 229 -23 196 -16 q 300 -29 262 -29 q 357 -26 330 -29 q 402 -13 383 -22 q 433 15 422 -3 q 444 63 444 33 q 434 101 444 83 q 407 134 425 118 q 363 166 389 150 q 307 199 338 182 q 199 266 241 237 q 135 322 158 296 q 103 376 112 349 q 95 436 95 404 q 108 494 95 469 q 136 538 121 520 q 178 576 154 560 q 121 630 144 596 q 98 711 98 665 q 117 809 98 768 q 174 878 137 850 q 263 919 211 905 q 382 932 316 932 q 463 926 427 932 q 524 912 499 920 q 575 892 553 903 q 568 861 573 878 q 555 828 563 846 q 534 789 547 809 q 492 808 515 800 q 444 820 473 814 q 378 826 415 826 q 328 823 351 826 q 286 810 304 819 q 258 785 269 801 q 248 745 248 770 q 257 704 248 722 q 282 671 265 687 q 326 640 300 656 q 386 604 351 624 q 495 536 454 564 q 557 483 536 508 q 585 430 578 457 q 591 368 591 404 q 580 309 591 335 q 554 265 568 283 q 528 237 540 247 q 513 226 515 227 q 576 165 557 197 q 595 92 595 133 q 574 -9 595 34 q 515 -79 553 -52 q 421 -121 476 -107 q 297 -135 366 -135 q 224 -130 260 -135 q 159 -117 188 -124 q 96 -98 126 -109 q 98 -64 95 -83 q 104 -28 100 -49 q 120 14 109 -8 m 228 450 q 229 428 228 438 q 237 407 231 418 q 256 384 243 396 q 292 356 269 372 q 349 321 315 341 q 433 275 383 301 q 451 308 445 289 q 458 347 458 328 q 453 388 458 370 q 430 424 449 405 q 370 468 410 444 q 258 528 330 492 q 236 493 244 514 q 228 450 228 473 z "},"*":{"ha":639,"x_min":25,"x_max":613,"o":"m 113 393 q 90 408 100 399 q 73 427 81 415 q 60 454 64 438 q 106 497 83 474 q 150 543 126 517 q 195 598 174 570 q 123 644 155 620 q 71 688 92 668 q 25 735 45 712 q 33 754 27 744 q 48 773 39 763 q 75 795 58 784 q 126 768 98 782 q 181 741 150 755 q 245 715 212 727 q 268 794 254 758 q 294 857 281 830 q 324 915 309 889 q 352 915 338 917 q 379 909 364 913 q 408 893 394 904 q 397 832 402 865 q 389 770 393 804 q 384 699 385 735 q 420 702 401 701 q 456 703 439 703 q 514 701 488 703 q 560 694 541 698 q 602 686 583 691 q 607 673 604 680 q 611 660 609 668 q 613 645 613 652 q 600 612 613 648 q 538 604 571 609 q 477 593 511 600 q 408 576 443 586 q 440 496 429 534 q 458 430 452 459 q 467 367 465 396 q 446 351 458 358 q 423 341 437 346 q 393 338 410 336 l 380 343 q 356 395 369 368 q 329 448 345 419 q 293 507 313 476 q 229 457 261 478 q 171 421 197 435 q 113 393 140 404 z "},"{":{"ha":425,"x_min":41,"x_max":412,"o":"m 130 86 q 134 139 130 113 q 144 191 138 165 q 153 243 149 217 q 157 298 157 270 q 147 358 157 336 q 122 389 138 379 q 87 402 106 399 q 47 404 67 404 q 41 452 41 433 q 43 485 41 471 q 45 499 44 492 l 61 506 q 95 508 78 506 q 126 520 113 510 q 148 549 139 530 q 156 604 156 569 q 152 653 156 628 q 144 704 149 679 q 135 756 138 729 q 131 812 131 783 q 149 918 131 872 q 199 997 167 964 q 275 1048 231 1029 q 373 1074 320 1067 q 391 1052 383 1064 q 404 1025 397 1041 q 412 987 410 1009 q 353 970 379 982 q 308 938 326 958 q 279 889 289 918 q 269 821 269 860 q 271 781 269 802 q 277 739 274 760 q 284 692 281 715 q 287 640 287 668 q 275 553 287 585 q 248 502 264 520 q 215 475 231 483 q 188 464 198 468 l 193 446 q 229 422 212 436 q 259 389 245 409 q 280 340 272 368 q 288 271 288 311 q 285 221 288 245 q 279 174 282 197 q 272 124 275 149 q 269 74 269 100 q 279 4 269 34 q 308 -47 290 -26 q 353 -81 327 -68 q 411 -99 379 -94 q 405 -135 410 -119 q 391 -161 399 -151 q 372 -183 383 -174 q 275 -158 319 -177 q 198 -105 231 -138 q 148 -24 166 -72 q 130 86 130 23 z "},"}":{"ha":425,"x_min":14,"x_max":385,"o":"m 295 86 q 291 139 295 113 q 281 191 287 165 q 272 243 276 217 q 269 298 269 270 q 278 358 269 336 q 303 389 288 379 q 338 402 319 399 q 378 404 358 404 q 385 452 385 433 q 382 485 385 471 q 380 499 381 492 l 364 506 q 330 508 347 506 q 299 520 313 510 q 278 549 286 530 q 269 604 269 569 q 273 653 269 628 q 281 704 277 679 q 291 756 287 729 q 294 812 294 783 q 276 918 294 872 q 227 997 258 964 q 150 1048 195 1029 q 52 1074 105 1067 q 35 1052 42 1064 q 22 1025 28 1041 q 14 987 16 1009 q 73 970 46 982 q 118 938 99 958 q 146 889 136 918 q 157 821 157 860 q 154 781 157 802 q 148 739 151 760 q 141 692 144 715 q 138 640 138 668 q 150 553 138 585 q 178 502 161 520 q 211 475 194 483 q 237 464 227 468 l 232 446 q 197 422 214 436 q 166 389 180 409 q 145 340 153 368 q 138 271 138 311 q 140 221 138 245 q 146 174 143 197 q 153 124 150 149 q 156 74 156 100 q 146 4 156 34 q 117 -47 136 -26 q 72 -81 98 -68 q 14 -99 46 -94 q 21 -135 15 -119 q 34 -161 26 -151 q 53 -183 42 -174 q 150 -158 106 -177 q 227 -105 195 -138 q 277 -24 259 -72 q 295 86 295 23 z "},"(":{"ha":410,"x_min":60,"x_max":396,"o":"m 315 -191 q 198 -47 247 -124 q 119 111 150 29 q 74 279 88 193 q 60 449 60 364 q 74 614 60 534 q 119 771 88 695 q 198 918 150 846 q 315 1056 247 989 q 351 1040 334 1049 q 378 1020 366 1031 q 396 992 391 1008 q 301 853 339 920 q 240 722 262 787 q 208 590 217 656 q 198 450 198 523 q 208 306 198 376 q 240 163 217 235 q 301 20 262 92 q 396 -126 339 -52 q 378 -154 391 -142 q 351 -174 366 -166 q 315 -191 334 -184 z "},")":{"ha":410,"x_min":14,"x_max":351,"o":"m 94 1055 q 211 911 163 988 q 291 753 260 835 q 336 585 321 671 q 350 415 350 500 q 336 250 350 330 q 291 93 321 169 q 211 -54 260 18 q 94 -192 163 -125 q 58 -176 75 -185 q 31 -156 44 -168 q 14 -128 18 -144 q 109 11 71 -56 q 170 142 147 77 q 202 274 193 208 q 212 414 212 341 q 202 558 212 488 q 170 701 193 629 q 109 844 147 772 q 14 990 71 916 q 31 1018 18 1006 q 58 1038 44 1030 q 94 1055 75 1048 z "},"@":{"ha":1257,"x_min":41,"x_max":1211,"o":"m 41 296 q 69 502 41 410 q 145 665 97 593 q 258 788 194 736 q 395 873 323 840 q 543 923 467 907 q 691 939 619 939 q 894 915 799 939 q 1059 839 989 890 q 1171 710 1130 788 q 1211 524 1211 631 q 1198 406 1211 463 q 1160 301 1184 350 q 1100 213 1135 253 q 1023 146 1065 174 q 932 103 981 118 q 831 87 884 87 q 763 96 789 87 q 720 119 736 104 q 698 155 705 134 q 692 202 692 176 q 666 169 682 187 q 628 135 650 151 q 579 109 606 119 q 522 98 553 98 q 450 112 484 98 q 390 155 416 126 q 350 226 365 183 q 336 328 336 269 q 348 431 336 382 q 382 521 360 479 q 432 596 404 562 q 495 653 461 629 q 564 689 528 676 q 635 701 600 701 q 666 699 650 701 q 694 693 682 696 q 724 685 709 690 l 726 701 l 863 701 l 814 294 q 809 229 810 254 q 813 190 808 203 q 830 171 818 176 q 863 166 842 166 q 941 185 901 166 q 1016 246 982 205 q 1072 353 1050 288 q 1094 509 1094 418 q 1062 661 1094 596 q 976 768 1031 725 q 845 831 920 810 q 683 852 770 852 q 471 816 568 852 q 306 713 375 779 q 198 552 237 646 q 160 343 160 458 q 192 171 160 246 q 281 43 223 95 q 421 -36 339 -9 q 603 -63 503 -63 q 676 -58 643 -63 q 733 -48 709 -54 q 785 -33 761 -41 q 798 -56 791 -43 q 809 -79 804 -66 q 817 -106 814 -92 q 749 -131 786 -120 q 676 -148 718 -140 q 588 -156 635 -156 q 355 -124 456 -156 q 183 -33 253 -92 q 77 110 113 26 q 41 296 41 193 m 480 342 q 572 195 480 195 q 621 208 600 195 q 654 236 641 220 q 680 277 670 254 l 715 610 q 693 618 706 613 q 656 624 681 624 q 583 600 616 624 q 528 537 551 576 q 493 448 505 498 q 480 342 480 397 z "},"≤":{"ha":899,"x_min":159,"x_max":752,"o":"m 168 645 l 699 947 l 748 839 l 355 612 l 312 599 l 351 587 l 748 393 l 711 281 l 168 545 l 168 645 m 159 190 l 752 190 l 752 72 l 159 72 l 159 190 z "},"≥":{"ha":899,"x_min":147,"x_max":741,"o":"m 731 645 l 200 947 l 151 839 l 545 612 l 587 599 l 549 587 l 151 393 l 188 281 l 731 545 l 731 645 m 740 190 l 147 190 l 147 72 l 740 72 l 740 190 z "},"©":{"ha":1158,"x_min":94,"x_max":1049,"o":"m 342 463 q 404 663 342 595 q 582 732 466 732 q 628 728 605 732 q 671 720 652 724 q 715 709 694 715 q 711 681 714 696 q 704 651 709 668 q 692 618 700 635 q 657 629 675 624 q 622 636 642 633 q 582 640 602 640 q 532 627 554 640 q 494 591 509 614 q 471 535 479 568 q 463 463 463 503 q 494 341 463 382 q 582 299 526 299 q 623 302 602 299 q 661 309 644 305 q 699 319 680 313 q 710 296 705 309 q 718 269 714 285 q 720 233 721 252 q 674 218 698 224 q 629 208 654 212 q 582 203 605 203 q 403 267 464 203 q 342 463 342 331 m 94 462 q 111 587 94 527 q 159 699 127 647 q 234 794 190 751 q 330 868 277 837 q 444 915 383 899 q 571 932 505 932 q 698 915 637 932 q 812 868 759 899 q 909 794 865 837 q 984 699 953 751 q 1032 587 1015 647 q 1049 462 1049 527 q 1032 337 1049 397 q 984 224 1015 277 q 909 129 953 172 q 812 55 865 86 q 698 8 759 24 q 571 -9 637 -9 q 444 8 505 -9 q 330 55 383 24 q 234 129 277 86 q 159 224 190 172 q 111 337 127 277 q 94 462 94 397 m 189 462 q 218 309 189 380 q 300 185 248 238 q 422 102 352 132 q 571 71 492 71 q 673 85 624 71 q 765 124 722 99 q 842 185 807 150 q 902 264 877 221 q 941 358 927 308 q 954 462 954 408 q 924 614 954 543 q 842 738 894 685 q 720 821 790 791 q 571 852 650 852 q 422 821 492 852 q 300 738 352 791 q 218 614 248 685 q 189 462 189 543 z "},"®":{"ha":1158,"x_min":94,"x_max":1049,"o":"m 389 721 l 597 721 q 727 680 684 721 q 771 572 771 640 q 746 485 771 523 q 669 428 722 448 q 731 321 699 374 q 792 215 763 268 l 665 215 l 561 413 q 534 413 545 413 q 516 414 523 413 q 504 415 509 414 l 504 215 l 389 215 l 389 721 m 504 496 q 523 494 512 494 q 553 494 534 494 q 623 512 597 494 q 648 570 648 530 q 629 621 648 603 q 573 638 610 638 l 504 638 l 504 496 m 94 462 q 111 587 94 527 q 159 699 127 647 q 234 794 190 751 q 330 868 277 837 q 444 915 383 899 q 571 932 505 932 q 698 915 637 932 q 812 868 759 899 q 909 794 865 837 q 984 699 953 751 q 1032 587 1015 647 q 1049 462 1049 527 q 1032 337 1049 397 q 984 224 1015 277 q 909 129 953 172 q 812 55 865 86 q 698 8 759 24 q 571 -9 637 -9 q 444 8 505 -9 q 330 55 383 24 q 234 129 277 86 q 159 224 190 172 q 111 337 127 277 q 94 462 94 397 m 189 462 q 218 309 189 380 q 300 185 248 238 q 422 102 352 132 q 571 71 492 71 q 673 85 624 71 q 765 124 722 99 q 842 185 807 150 q 902 264 877 221 q 941 358 927 308 q 954 462 954 408 q 924 614 954 543 q 842 738 894 685 q 720 821 790 791 q 571 852 650 852 q 422 821 492 852 q 300 738 352 791 q 218 614 248 685 q 189 462 189 543 z "},"¼":{"ha":1093,"x_min":68,"x_max":1023,"o":"m 787 524 q 829 510 809 517 q 861 496 846 504 q 884 481 877 489 l 885 471 q 829 384 858 430 q 774 294 805 344 q 714 191 744 243 l 833 191 l 833 275 q 866 294 847 286 q 903 309 885 303 q 945 320 924 315 l 945 191 l 1022 191 q 1022 163 1023 176 q 1019 137 1021 151 q 1010 112 1017 123 l 945 112 l 945 0 l 833 0 l 833 112 l 629 112 q 605 133 613 121 q 594 156 597 145 q 590 181 590 168 l 787 524 m 623 953 q 655 947 639 952 q 684 935 669 943 q 713 911 700 926 l 350 1 q 321 7 336 2 q 291 19 308 11 q 257 43 275 28 l 623 953 m 177 912 q 150 902 165 907 q 119 892 134 896 l 107 893 q 84 914 92 901 q 73 939 76 927 q 68 968 68 954 q 122 990 97 979 q 165 1010 146 1001 q 205 1029 186 1020 l 289 1029 l 289 527 l 177 527 l 177 912 z "},"½":{"ha":1093,"x_min":68,"x_max":1025,"o":"m 665 78 l 739 153 q 810 228 781 197 q 858 283 840 259 q 884 327 876 308 q 892 365 892 346 q 879 420 892 401 q 841 438 865 438 q 788 430 812 438 q 745 413 764 422 q 706 389 724 402 q 682 417 690 403 q 668 441 673 431 q 661 466 663 454 q 712 494 684 482 q 768 514 736 505 q 839 523 800 523 q 964 486 920 523 q 1008 372 1008 448 q 996 313 1008 342 q 961 254 984 285 q 903 188 937 223 q 824 108 869 152 l 808 93 q 883 97 845 94 q 953 103 921 100 q 1024 111 990 106 q 1025 100 1024 106 q 1025 89 1025 94 q 1025 78 1025 83 q 1023 43 1025 62 q 1013 9 1021 23 l 665 9 l 665 78 m 623 953 q 655 947 639 952 q 684 935 669 943 q 713 911 700 926 l 350 1 q 321 7 336 2 q 291 19 308 11 q 257 43 275 28 l 623 953 m 177 912 q 150 902 165 907 q 119 892 134 896 l 107 893 q 84 914 92 901 q 73 939 76 927 q 68 968 68 954 q 122 990 97 979 q 165 1010 146 1001 q 205 1029 186 1020 l 289 1029 l 289 527 l 177 527 l 177 912 z "},"¾":{"ha":1145,"x_min":45,"x_max":1074,"o":"m 838 524 q 880 510 861 517 q 913 496 897 504 q 935 481 928 489 l 937 471 q 881 384 909 430 q 826 294 857 344 q 766 191 795 243 l 885 191 l 885 268 q 918 288 899 279 q 954 302 937 296 q 997 313 975 309 l 997 191 l 1074 191 q 1074 163 1074 176 q 1070 137 1073 151 q 1062 112 1068 123 l 997 112 l 997 0 l 885 0 l 885 112 l 680 112 q 657 133 665 121 q 646 156 649 145 q 642 181 642 168 l 838 524 m 675 953 q 707 947 690 952 q 736 935 720 943 q 765 911 751 926 l 401 1 q 373 7 388 2 q 343 19 359 11 q 309 43 326 28 l 675 953 m 45 543 q 51 566 47 554 q 60 592 54 577 q 77 623 66 606 q 115 606 95 614 q 155 595 133 600 q 199 590 176 590 q 237 596 220 590 q 267 612 254 602 q 287 639 279 623 q 294 675 294 654 q 289 699 294 687 q 273 721 283 711 q 248 737 263 731 q 215 743 233 743 l 161 743 q 157 768 158 755 q 155 788 155 781 q 156 800 155 793 q 157 811 156 806 q 159 825 157 818 l 215 825 q 239 829 227 825 q 261 843 252 833 q 276 866 270 852 q 281 901 281 881 q 262 940 281 926 q 209 954 242 954 q 167 950 187 954 q 132 940 147 945 q 98 926 114 933 q 78 954 85 940 q 67 978 71 967 q 62 1002 63 990 q 108 1019 83 1012 q 156 1031 129 1025 q 214 1036 184 1036 q 291 1028 257 1036 q 349 1003 325 1019 q 385 961 372 986 q 397 901 397 935 q 375 827 397 855 q 312 786 352 800 q 385 745 357 775 q 413 670 413 715 q 398 600 413 630 q 356 550 383 570 q 290 520 328 530 q 207 510 252 510 q 146 515 175 510 q 94 526 117 520 q 45 543 68 534 z "},"ª":{"ha":569,"x_min":62,"x_max":524,"o":"m 216 380 q 153 396 181 380 q 104 436 124 412 q 73 492 83 461 q 62 553 62 523 q 74 617 62 589 q 109 667 87 646 q 162 699 132 687 q 229 715 193 711 l 363 720 l 363 767 q 356 805 363 789 q 334 832 348 821 q 303 847 321 842 q 264 852 285 852 q 213 846 239 852 q 167 833 187 840 q 121 816 143 826 q 103 849 110 833 q 94 880 97 866 q 88 910 90 895 q 146 929 115 921 q 204 942 172 937 q 269 948 236 948 q 428 908 376 948 q 479 793 479 869 l 479 465 l 524 420 l 524 389 l 416 389 l 381 419 l 372 419 q 355 411 370 417 q 320 398 341 404 q 272 386 298 391 q 216 380 245 380 m 246 465 q 282 469 262 465 q 320 477 302 472 q 363 489 342 482 l 363 645 l 252 638 q 222 629 235 637 q 199 609 208 621 q 184 584 189 597 q 179 557 179 570 q 184 524 179 541 q 197 494 189 507 q 218 473 206 481 q 246 465 231 465 z "},"º":{"ha":618,"x_min":87,"x_max":530,"o":"m 311 378 q 216 395 258 378 q 146 449 175 413 q 103 540 118 485 q 87 669 87 595 q 103 797 87 744 q 149 884 119 850 q 219 933 178 918 q 311 949 260 949 q 403 934 362 949 q 472 887 444 920 q 515 803 500 854 q 530 677 530 751 q 515 547 530 603 q 471 453 500 490 q 402 396 443 415 q 311 378 361 378 m 311 463 q 356 480 337 463 q 387 527 375 497 q 405 595 399 556 q 410 677 410 633 q 387 819 410 771 q 311 867 363 867 q 264 852 284 867 q 232 811 245 838 q 213 748 219 785 q 207 669 207 712 q 213 584 207 623 q 232 519 219 546 q 264 478 245 492 q 311 463 284 463 z "}," ":{"ha":389,"x_min":0,"x_max":0,"o":""},"à":{"ha":673,"x_min":43,"x_max":638,"o":"m 43 198 q 60 294 43 254 q 107 358 76 333 q 184 396 139 383 q 288 412 229 408 l 439 420 l 439 474 q 432 534 439 511 q 411 572 426 558 q 371 592 396 587 q 310 598 347 598 q 240 590 273 598 q 183 572 208 582 q 130 547 154 561 q 106 587 115 568 q 92 622 97 606 q 84 656 86 640 q 154 684 117 672 q 229 704 186 695 q 318 713 271 713 q 446 699 395 713 q 527 658 497 686 q 569 589 557 631 q 581 490 581 547 l 581 112 l 638 43 l 638 0 l 513 0 l 460 60 l 436 60 q 418 45 433 57 q 381 20 404 33 q 329 -3 358 7 q 268 -14 300 -14 q 176 2 217 -14 q 105 45 134 17 q 59 112 75 73 q 43 198 43 151 m 191 210 q 200 158 191 179 q 225 125 209 138 q 263 109 241 113 q 314 104 286 104 q 362 110 340 104 q 402 125 385 117 q 439 146 422 134 l 439 328 l 302 319 q 249 309 271 317 q 215 286 228 300 q 197 252 202 271 q 191 210 191 233 m 186 996 q 205 1020 191 1006 q 238 1049 220 1035 q 275 1074 256 1063 q 306 1088 294 1085 l 472 854 q 461 837 469 846 q 444 819 454 827 q 422 804 433 811 q 401 793 411 797 l 186 996 z "},"á":{"ha":673,"x_min":43,"x_max":638,"o":"m 43 198 q 60 294 43 254 q 107 358 76 333 q 184 396 139 383 q 288 412 229 408 l 439 420 l 439 474 q 432 534 439 511 q 411 572 426 558 q 371 592 396 587 q 310 598 347 598 q 240 590 273 598 q 183 572 208 582 q 130 547 154 561 q 106 587 115 568 q 92 622 97 606 q 84 656 86 640 q 154 684 117 672 q 229 704 186 695 q 318 713 271 713 q 446 699 395 713 q 527 658 497 686 q 569 589 557 631 q 581 490 581 547 l 581 112 l 638 43 l 638 0 l 513 0 l 460 60 l 436 60 q 418 45 433 57 q 381 20 404 33 q 329 -3 358 7 q 268 -14 300 -14 q 176 2 217 -14 q 105 45 134 17 q 59 112 75 73 q 43 198 43 151 m 191 210 q 200 158 191 179 q 225 125 209 138 q 263 109 241 113 q 314 104 286 104 q 362 110 340 104 q 402 125 385 117 q 439 146 422 134 l 439 328 l 302 319 q 249 309 271 317 q 215 286 228 300 q 197 252 202 271 q 191 210 191 233 m 309 793 q 288 804 299 797 q 267 819 277 811 q 249 837 256 827 q 238 854 241 846 l 404 1088 q 435 1074 416 1085 q 472 1049 454 1063 q 505 1020 490 1035 q 524 996 519 1006 l 309 793 l 309 793 z "},"â":{"ha":673,"x_min":43,"x_max":638,"o":"m 43 198 q 60 294 43 254 q 107 358 76 333 q 184 396 139 383 q 288 412 229 408 l 439 420 l 439 474 q 432 534 439 511 q 411 572 426 558 q 371 592 396 587 q 310 598 347 598 q 240 590 273 598 q 183 572 208 582 q 130 547 154 561 q 106 587 115 568 q 92 622 97 606 q 84 656 86 640 q 154 684 117 672 q 229 704 186 695 q 318 713 271 713 q 446 699 395 713 q 527 658 497 686 q 569 589 557 631 q 581 490 581 547 l 581 112 l 638 43 l 638 0 l 513 0 l 460 60 l 436 60 q 418 45 433 57 q 381 20 404 33 q 329 -3 358 7 q 268 -14 300 -14 q 176 2 217 -14 q 105 45 134 17 q 59 112 75 73 q 43 198 43 151 m 191 210 q 200 158 191 179 q 225 125 209 138 q 263 109 241 113 q 314 104 286 104 q 362 110 340 104 q 402 125 385 117 q 439 146 422 134 l 439 328 l 302 319 q 249 309 271 317 q 215 286 228 300 q 197 252 202 271 q 191 210 191 233 m 263 1095 l 438 1095 l 589 789 l 471 789 l 349 1020 l 222 789 l 104 789 l 263 1095 z "},"ä":{"ha":673,"x_min":43,"x_max":638,"o":"m 43 198 q 60 294 43 254 q 107 358 76 333 q 184 396 139 383 q 288 412 229 408 l 439 420 l 439 474 q 432 534 439 511 q 411 572 426 558 q 371 592 396 587 q 310 598 347 598 q 240 590 273 598 q 183 572 208 582 q 130 547 154 561 q 106 587 115 568 q 92 622 97 606 q 84 656 86 640 q 154 684 117 672 q 229 704 186 695 q 318 713 271 713 q 446 699 395 713 q 527 658 497 686 q 569 589 557 631 q 581 490 581 547 l 581 112 l 638 43 l 638 0 l 513 0 l 460 60 l 436 60 q 418 45 433 57 q 381 20 404 33 q 329 -3 358 7 q 268 -14 300 -14 q 176 2 217 -14 q 105 45 134 17 q 59 112 75 73 q 43 198 43 151 m 191 210 q 200 158 191 179 q 225 125 209 138 q 263 109 241 113 q 314 104 286 104 q 362 110 340 104 q 402 125 385 117 q 439 146 422 134 l 439 328 l 302 319 q 249 309 271 317 q 215 286 228 300 q 197 252 202 271 q 191 210 191 233 m 202 831 q 166 838 183 831 q 137 856 150 844 q 118 883 125 867 q 111 916 111 898 q 118 949 111 934 q 137 977 125 965 q 166 995 150 988 q 202 1001 183 1001 q 238 995 221 1001 q 268 977 255 988 q 288 949 281 965 q 296 916 296 934 q 288 883 296 898 q 268 856 281 867 q 238 838 255 844 q 202 831 221 831 m 494 831 q 459 838 475 831 q 430 856 442 844 q 410 883 417 867 q 403 916 403 898 q 410 949 403 934 q 430 977 417 965 q 459 995 442 988 q 494 1001 475 1001 q 530 995 513 1001 q 560 977 547 988 q 581 949 573 965 q 588 916 588 934 q 581 883 588 898 q 560 856 573 867 q 530 838 547 844 q 494 831 513 831 z "},"ã":{"ha":673,"x_min":43,"x_max":638,"o":"m 43 198 q 60 294 43 254 q 107 358 76 333 q 184 396 139 383 q 288 412 229 408 l 439 420 l 439 474 q 432 534 439 511 q 411 572 426 558 q 371 592 396 587 q 310 598 347 598 q 240 590 273 598 q 183 572 208 582 q 130 547 154 561 q 106 587 115 568 q 92 622 97 606 q 84 656 86 640 q 154 684 117 672 q 229 704 186 695 q 318 713 271 713 q 446 699 395 713 q 527 658 497 686 q 569 589 557 631 q 581 490 581 547 l 581 112 l 638 43 l 638 0 l 513 0 l 460 60 l 436 60 q 418 45 433 57 q 381 20 404 33 q 329 -3 358 7 q 268 -14 300 -14 q 176 2 217 -14 q 105 45 134 17 q 59 112 75 73 q 43 198 43 151 m 191 210 q 200 158 191 179 q 225 125 209 138 q 263 109 241 113 q 314 104 286 104 q 362 110 340 104 q 402 125 385 117 q 439 146 422 134 l 439 328 l 302 319 q 249 309 271 317 q 215 286 228 300 q 197 252 202 271 q 191 210 191 233 m 189 840 q 155 865 169 852 q 131 890 140 879 q 113 916 120 903 q 161 966 134 943 q 213 1000 183 985 q 280 1016 243 1016 q 333 1003 311 1016 q 374 975 355 990 q 406 954 391 963 q 435 945 420 945 q 462 953 449 945 q 486 972 475 962 q 509 1001 498 985 q 545 975 530 988 q 570 951 560 962 q 587 926 581 939 q 539 876 566 899 q 486 842 517 857 q 419 827 456 827 q 366 840 388 827 q 323 867 343 852 q 293 889 308 880 q 264 898 278 898 q 237 889 250 898 q 212 869 223 880 q 189 840 200 857 z "},"å":{"ha":673,"x_min":43,"x_max":638,"o":"m 43 198 q 60 294 43 254 q 107 358 76 333 q 184 396 139 383 q 288 412 229 408 l 439 420 l 439 474 q 432 534 439 511 q 411 572 426 558 q 371 592 396 587 q 310 598 347 598 q 240 590 273 598 q 183 572 208 582 q 130 547 154 561 q 106 587 115 568 q 92 622 97 606 q 84 656 86 640 q 154 684 117 672 q 229 704 186 695 q 318 713 271 713 q 446 699 395 713 q 527 658 497 686 q 569 589 557 631 q 581 490 581 547 l 581 112 l 638 43 l 638 0 l 513 0 l 460 60 l 436 60 q 418 45 433 57 q 381 20 404 33 q 329 -3 358 7 q 268 -14 300 -14 q 176 2 217 -14 q 105 45 134 17 q 59 112 75 73 q 43 198 43 151 m 191 210 q 200 158 191 179 q 225 125 209 138 q 263 109 241 113 q 314 104 286 104 q 362 110 340 104 q 402 125 385 117 q 439 146 422 134 l 439 328 l 302 319 q 249 309 271 317 q 215 286 228 300 q 197 252 202 271 q 191 210 191 233 m 350 789 q 263 801 301 789 q 198 837 224 814 q 158 892 172 860 q 144 964 144 924 q 158 1035 144 1003 q 198 1090 172 1067 q 263 1126 224 1114 q 350 1139 301 1139 q 436 1127 397 1139 q 503 1092 475 1114 q 545 1037 530 1069 q 559 968 559 1006 q 545 894 559 927 q 503 837 530 861 q 436 801 475 814 q 350 789 397 789 m 350 876 q 388 884 372 876 q 416 905 405 892 q 433 935 427 918 q 438 969 438 951 q 416 1030 438 1006 q 350 1055 394 1055 q 313 1047 330 1055 q 284 1027 296 1040 q 266 998 272 1015 q 259 964 259 982 q 266 929 259 945 q 284 901 272 913 q 313 882 296 889 q 350 876 330 876 z "},"ç":{"ha":582,"x_min":54,"x_max":549,"o":"m 54 348 q 75 505 54 437 q 139 619 97 573 q 241 689 180 665 q 380 712 302 712 q 437 707 408 712 q 490 695 467 701 q 543 678 517 688 q 537 639 541 659 q 527 601 534 621 q 511 560 521 580 q 472 574 493 568 q 430 585 454 580 q 380 589 406 589 q 301 573 334 589 q 245 525 267 556 q 212 449 222 494 q 201 349 201 404 q 248 163 201 227 q 387 100 295 100 q 438 105 414 100 q 482 115 463 109 q 524 130 505 121 q 536 97 531 115 q 545 61 541 81 q 548 18 549 41 q 508 5 530 12 q 466 -5 490 0 q 418 -12 443 -9 q 428 -61 423 -33 q 432 -113 432 -89 q 419 -182 432 -149 q 382 -240 407 -215 q 322 -280 358 -265 q 241 -294 287 -294 q 201 -291 218 -294 q 185 -287 192 -289 q 180 -267 182 -278 q 177 -246 178 -258 q 176 -220 176 -234 q 178 -187 176 -205 q 186 -148 180 -170 q 214 -154 202 -151 q 231 -157 226 -157 q 264 -150 250 -157 q 287 -133 278 -144 q 301 -109 296 -123 q 305 -79 305 -94 q 304 -61 305 -71 q 303 -41 304 -52 q 301 -21 302 -31 q 298 -5 300 -12 q 117 105 180 17 q 54 348 54 194 z "},"è":{"ha":707,"x_min":52,"x_max":654,"o":"m 52 340 q 76 508 52 437 q 142 624 100 578 q 244 691 185 669 q 375 712 304 712 q 493 690 441 712 q 581 628 545 668 q 635 532 616 588 q 654 410 654 477 q 652 367 654 387 q 648 333 650 347 q 642 302 645 316 l 197 304 q 210 204 197 244 q 246 142 222 165 q 307 110 270 119 q 393 100 343 100 q 470 106 436 100 q 528 119 504 111 q 576 138 555 127 q 592 94 587 114 q 601 58 598 73 q 605 27 604 41 q 551 7 583 16 q 484 -7 524 -1 q 393 -14 445 -14 q 249 5 312 -14 q 141 65 185 23 q 75 174 98 106 q 52 340 52 241 m 509 404 l 509 427 q 499 502 509 469 q 470 557 488 535 q 427 591 452 580 q 372 603 401 603 q 297 592 330 603 q 242 556 264 581 q 210 494 220 532 q 199 404 199 456 l 509 404 m 191 996 q 210 1020 195 1006 q 243 1049 224 1035 q 280 1074 261 1063 q 311 1088 298 1085 l 477 854 q 466 837 473 846 q 448 819 458 827 q 427 804 438 811 q 406 793 416 797 l 191 996 z "},"é":{"ha":707,"x_min":52,"x_max":654,"o":"m 52 340 q 76 508 52 437 q 142 624 100 578 q 244 691 185 669 q 375 712 304 712 q 493 690 441 712 q 581 628 545 668 q 635 532 616 588 q 654 410 654 477 q 652 367 654 387 q 648 333 650 347 q 642 302 645 316 l 197 304 q 210 204 197 244 q 246 142 222 165 q 307 110 270 119 q 393 100 343 100 q 470 106 436 100 q 528 119 504 111 q 576 138 555 127 q 592 94 587 114 q 601 58 598 73 q 605 27 604 41 q 551 7 583 16 q 484 -7 524 -1 q 393 -14 445 -14 q 249 5 312 -14 q 141 65 185 23 q 75 174 98 106 q 52 340 52 241 m 509 404 l 509 427 q 499 502 509 469 q 470 557 488 535 q 427 591 452 580 q 372 603 401 603 q 297 592 330 603 q 242 556 264 581 q 210 494 220 532 q 199 404 199 456 l 509 404 m 314 793 q 293 804 304 797 q 271 819 281 811 q 254 837 261 827 q 243 854 246 846 l 409 1088 q 440 1074 421 1085 q 477 1049 458 1063 q 510 1020 495 1035 q 529 996 524 1006 l 314 793 l 314 793 z "},"ê":{"ha":707,"x_min":52,"x_max":654,"o":"m 52 340 q 76 508 52 437 q 142 624 100 578 q 244 691 185 669 q 375 712 304 712 q 493 690 441 712 q 581 628 545 668 q 635 532 616 588 q 654 410 654 477 q 652 367 654 387 q 648 333 650 347 q 642 302 645 316 l 197 304 q 210 204 197 244 q 246 142 222 165 q 307 110 270 119 q 393 100 343 100 q 470 106 436 100 q 528 119 504 111 q 576 138 555 127 q 592 94 587 114 q 601 58 598 73 q 605 27 604 41 q 551 7 583 16 q 484 -7 524 -1 q 393 -14 445 -14 q 249 5 312 -14 q 141 65 185 23 q 75 174 98 106 q 52 340 52 241 m 509 404 l 509 427 q 499 502 509 469 q 470 557 488 535 q 427 591 452 580 q 372 603 401 603 q 297 592 330 603 q 242 556 264 581 q 210 494 220 532 q 199 404 199 456 l 509 404 m 268 1095 l 443 1095 l 594 789 l 476 789 l 354 1020 l 227 789 l 109 789 l 268 1095 z "},"ë":{"ha":707,"x_min":52,"x_max":654,"o":"m 52 340 q 76 508 52 437 q 142 624 100 578 q 244 691 185 669 q 375 712 304 712 q 493 690 441 712 q 581 628 545 668 q 635 532 616 588 q 654 410 654 477 q 652 367 654 387 q 648 333 650 347 q 642 302 645 316 l 197 304 q 210 204 197 244 q 246 142 222 165 q 307 110 270 119 q 393 100 343 100 q 470 106 436 100 q 528 119 504 111 q 576 138 555 127 q 592 94 587 114 q 601 58 598 73 q 605 27 604 41 q 551 7 583 16 q 484 -7 524 -1 q 393 -14 445 -14 q 249 5 312 -14 q 141 65 185 23 q 75 174 98 106 q 52 340 52 241 m 509 404 l 509 427 q 499 502 509 469 q 470 557 488 535 q 427 591 452 580 q 372 603 401 603 q 297 592 330 603 q 242 556 264 581 q 210 494 220 532 q 199 404 199 456 l 509 404 m 207 831 q 171 838 188 831 q 142 856 155 844 q 122 883 130 867 q 115 916 115 898 q 122 949 115 934 q 142 977 130 965 q 171 995 155 988 q 207 1001 188 1001 q 243 995 226 1001 q 273 977 260 988 q 293 949 286 965 q 300 916 300 934 q 293 883 300 898 q 273 856 286 867 q 243 838 260 844 q 207 831 226 831 m 499 831 q 464 838 480 831 q 434 856 447 844 q 415 883 422 867 q 408 916 408 898 q 415 949 408 934 q 434 977 422 965 q 464 995 447 988 q 499 1001 480 1001 q 535 995 518 1001 q 565 977 552 988 q 585 949 578 965 q 593 916 593 934 q 585 883 593 898 q 565 856 578 867 q 535 838 552 844 q 499 831 518 831 z "},"ĩ":{"ha":353,"x_min":-63,"x_max":410,"o":"m 96 693 l 237 693 l 237 114 l 277 85 l 277 0 l 238 0 l 237 1 l 237 0 q 133 27 170 0 q 96 117 96 54 l 96 693 m 13 831 q -22 857 -7 843 q -45 882 -36 870 q -63 907 -56 895 q -16 957 -42 935 q 37 991 7 976 q 104 1007 67 1007 q 156 994 134 1007 q 198 966 178 981 q 229 945 214 954 q 258 936 244 936 q 286 944 273 936 q 309 964 299 953 q 332 992 321 976 q 369 966 354 979 q 393 943 384 954 q 410 918 404 930 q 363 867 389 890 q 310 833 340 848 q 243 818 279 818 q 189 831 212 818 q 147 858 167 844 q 117 880 132 871 q 88 889 102 889 q 60 880 74 889 q 36 860 47 871 q 13 831 24 848 z "},"ĳ":{"ha":703,"x_min":81,"x_max":626,"o":"m 174 810 q 138 817 155 810 q 109 836 121 824 q 89 862 96 847 q 81 895 81 878 q 89 929 81 913 q 109 956 96 945 q 138 974 121 968 q 174 981 155 981 q 210 974 193 981 q 239 956 227 968 q 259 929 252 945 q 267 895 267 913 q 259 862 267 878 q 239 836 252 847 q 210 817 227 824 q 174 810 193 810 m 96 693 l 237 693 l 237 114 l 277 85 l 277 0 l 238 0 l 237 1 l 237 0 q 133 27 170 0 q 96 117 96 54 l 96 693 m 456 692 l 603 692 l 603 -66 q 592 -143 603 -109 q 557 -202 581 -176 q 495 -247 533 -229 q 401 -278 456 -266 q 381 -241 389 -258 q 371 -213 374 -224 q 365 -189 367 -199 q 433 -146 410 -178 q 456 -54 456 -113 l 456 692 m 532 810 q 497 817 513 810 q 468 836 480 824 q 448 862 455 847 q 441 895 441 878 q 448 929 441 913 q 468 956 455 945 q 497 974 480 968 q 532 981 513 981 q 568 974 551 981 q 598 956 585 968 q 618 929 611 945 q 626 895 626 913 q 618 862 626 878 q 598 836 611 847 q 568 817 585 824 q 532 810 551 810 z "},"ì":{"ha":353,"x_min":9,"x_max":296,"o":"m 96 693 l 237 693 l 237 114 l 277 85 l 277 0 l 238 0 l 237 1 l 237 0 q 133 27 170 0 q 96 117 96 54 l 96 693 m 9 987 q 29 1011 14 997 q 62 1040 43 1026 q 99 1065 80 1054 q 130 1080 117 1076 l 296 845 q 285 828 292 837 q 267 810 277 819 q 246 795 257 802 q 224 784 235 788 l 9 987 z "},"í":{"ha":353,"x_min":62,"x_max":348,"o":"m 96 693 l 237 693 l 237 114 l 277 85 l 277 0 l 238 0 l 237 1 l 237 0 q 133 27 170 0 q 96 117 96 54 l 96 693 m 133 784 q 112 795 123 788 q 90 810 100 802 q 73 828 80 819 q 62 845 65 837 l 228 1080 q 259 1065 240 1076 q 296 1040 277 1054 q 329 1011 314 1026 q 348 987 343 997 l 133 784 l 133 784 z "},"î":{"ha":353,"x_min":-73,"x_max":413,"o":"m 96 693 l 237 693 l 237 114 l 277 85 l 277 0 l 238 0 l 237 1 l 237 0 q 133 27 170 0 q 96 117 96 54 l 96 693 m 87 1086 l 262 1086 l 413 780 l 295 780 l 173 1011 l 45 780 l -73 780 l 87 1086 z "},"ï":{"ha":353,"x_min":-66,"x_max":412,"o":"m 96 693 l 237 693 l 237 114 l 277 85 l 277 0 l 238 0 l 237 1 l 237 0 q 133 27 170 0 q 96 117 96 54 l 96 693 m 26 822 q -10 829 7 822 q -39 847 -26 836 q -59 874 -52 859 q -66 907 -66 889 q -59 941 -66 925 q -39 968 -52 956 q -10 986 -26 979 q 26 992 7 992 q 62 986 45 992 q 92 968 79 979 q 112 941 104 956 q 119 907 119 925 q 112 874 119 889 q 92 847 104 859 q 62 829 79 836 q 26 822 45 822 m 318 822 q 282 829 299 822 q 253 847 266 836 q 234 874 241 859 q 227 907 227 889 q 234 941 227 925 q 253 968 241 956 q 282 986 266 979 q 318 992 299 992 q 354 986 337 992 q 384 968 371 979 q 404 941 397 956 q 412 907 412 925 q 404 874 412 889 q 384 847 397 859 q 354 829 371 836 q 318 822 337 822 z "},"ĵ":{"ha":345,"x_min":-56,"x_max":429,"o":"m 102 692 l 249 692 l 249 -66 q 238 -143 249 -109 q 203 -202 227 -176 q 141 -247 179 -229 q 47 -278 102 -266 q 27 -237 35 -258 q 16 -199 20 -216 q 9 -159 12 -178 q 52 -147 35 -155 q 81 -127 70 -140 q 97 -96 92 -115 q 102 -47 102 -77 l 102 692 m 103 1095 l 278 1095 l 429 789 l 311 789 l 189 1020 l 62 789 l -56 789 l 103 1095 z "},"ķ":{"ha":668,"x_min":92,"x_max":654,"o":"m 92 977 l 231 977 l 231 460 l 224 362 l 260 405 l 477 693 l 642 693 l 421 414 l 365 360 l 409 320 l 654 0 l 489 0 l 256 313 l 224 354 l 231 231 l 231 0 l 92 0 l 92 977 m 290 -72 q 299 -72 291 -72 q 321 -73 308 -72 q 351 -77 334 -74 q 384 -86 368 -80 q 416 -101 401 -92 q 442 -123 431 -110 q 413 -221 434 -180 q 370 -290 392 -262 q 313 -344 343 -322 q 271 -338 290 -342 q 236 -328 254 -335 q 209 -307 218 -321 l 210 -296 q 248 -236 230 -270 q 275 -165 262 -207 q 290 -72 288 -124 z "},"ń":{"ha":779,"x_min":50,"x_max":682,"o":"m 103 569 l 50 624 l 50 701 l 174 701 l 233 648 l 252 652 q 274 666 257 656 q 317 686 292 676 q 375 704 342 696 q 444 712 408 712 q 545 695 500 712 q 620 647 589 678 q 666 571 650 615 q 682 472 682 527 l 682 0 l 536 0 l 536 458 q 505 567 536 532 q 407 602 474 602 q 345 596 374 602 q 295 583 317 590 q 248 564 270 574 l 248 0 l 103 0 l 103 569 m 379 793 q 358 804 369 797 q 336 819 347 811 q 319 837 326 827 q 308 854 311 846 l 474 1088 q 505 1074 486 1085 q 542 1049 524 1063 q 575 1020 560 1035 q 594 996 589 1006 l 379 793 l 379 793 z "},"ñ":{"ha":779,"x_min":50,"x_max":682,"o":"m 103 569 l 50 624 l 50 701 l 174 701 l 233 648 l 252 652 q 274 666 257 656 q 317 686 292 676 q 375 704 342 696 q 444 712 408 712 q 545 695 500 712 q 620 647 589 678 q 666 571 650 615 q 682 472 682 527 l 682 0 l 536 0 l 536 458 q 505 567 536 532 q 407 602 474 602 q 345 596 374 602 q 295 583 317 590 q 248 564 270 574 l 248 0 l 103 0 l 103 569 m 259 840 q 224 865 239 852 q 201 890 210 879 q 183 916 190 903 q 231 966 204 943 q 283 1000 253 985 q 350 1016 313 1016 q 402 1003 380 1016 q 444 975 425 990 q 475 954 460 963 q 505 945 490 945 q 532 953 519 945 q 555 972 545 962 q 578 1001 568 985 q 615 975 600 988 q 640 951 630 962 q 656 926 650 939 q 609 876 635 899 q 556 842 587 857 q 489 827 526 827 q 435 840 458 827 q 393 867 413 852 q 363 889 378 880 q 334 898 348 898 q 307 889 320 898 q 282 869 293 880 q 259 840 270 857 z "},"ò":{"ha":758,"x_min":52,"x_max":707,"o":"m 52 347 q 76 505 52 436 q 143 619 100 573 q 248 689 187 665 q 382 713 309 713 q 517 691 457 713 q 620 624 578 669 q 684 512 662 579 q 707 356 707 446 q 684 197 707 267 q 619 81 661 128 q 516 11 576 35 q 382 -14 456 -14 q 243 9 304 -14 q 139 77 182 32 q 74 190 97 122 q 52 347 52 257 m 382 98 q 459 118 427 98 q 513 171 492 137 q 545 253 534 205 q 555 356 555 300 q 513 541 555 477 q 382 605 472 605 q 303 586 336 605 q 247 532 269 566 q 214 450 225 497 q 203 347 203 402 q 247 161 203 224 q 382 98 291 98 m 217 996 q 236 1020 222 1006 q 269 1049 251 1035 q 306 1074 288 1063 q 337 1088 325 1085 l 503 854 q 492 837 500 846 q 475 819 485 827 q 453 804 465 811 q 432 793 442 797 l 217 996 z "},"ó":{"ha":758,"x_min":52,"x_max":707,"o":"m 52 347 q 76 505 52 436 q 143 619 100 573 q 248 689 187 665 q 382 713 309 713 q 517 691 457 713 q 620 624 578 669 q 684 512 662 579 q 707 356 707 446 q 684 197 707 267 q 619 81 661 128 q 516 11 576 35 q 382 -14 456 -14 q 243 9 304 -14 q 139 77 182 32 q 74 190 97 122 q 52 347 52 257 m 382 98 q 459 118 427 98 q 513 171 492 137 q 545 253 534 205 q 555 356 555 300 q 513 541 555 477 q 382 605 472 605 q 303 586 336 605 q 247 532 269 566 q 214 450 225 497 q 203 347 203 402 q 247 161 203 224 q 382 98 291 98 m 340 793 q 319 804 330 797 q 298 819 308 811 q 280 837 288 827 q 269 854 273 846 l 435 1088 q 466 1074 448 1085 q 503 1049 485 1063 q 536 1020 522 1035 q 555 996 551 1006 l 340 793 l 340 793 z "},"ô":{"ha":758,"x_min":52,"x_max":707,"o":"m 52 347 q 76 505 52 436 q 143 619 100 573 q 248 689 187 665 q 382 713 309 713 q 517 691 457 713 q 620 624 578 669 q 684 512 662 579 q 707 356 707 446 q 684 197 707 267 q 619 81 661 128 q 516 11 576 35 q 382 -14 456 -14 q 243 9 304 -14 q 139 77 182 32 q 74 190 97 122 q 52 347 52 257 m 382 98 q 459 118 427 98 q 513 171 492 137 q 545 253 534 205 q 555 356 555 300 q 513 541 555 477 q 382 605 472 605 q 303 586 336 605 q 247 532 269 566 q 214 450 225 497 q 203 347 203 402 q 247 161 203 224 q 382 98 291 98 m 294 1095 l 469 1095 l 621 789 l 503 789 l 380 1020 l 253 789 l 135 789 l 294 1095 z "},"õ":{"ha":758,"x_min":52,"x_max":707,"o":"m 52 347 q 76 505 52 436 q 143 619 100 573 q 248 689 187 665 q 382 713 309 713 q 517 691 457 713 q 620 624 578 669 q 684 512 662 579 q 707 356 707 446 q 684 197 707 267 q 619 81 661 128 q 516 11 576 35 q 382 -14 456 -14 q 243 9 304 -14 q 139 77 182 32 q 74 190 97 122 q 52 347 52 257 m 382 98 q 459 118 427 98 q 513 171 492 137 q 545 253 534 205 q 555 356 555 300 q 513 541 555 477 q 382 605 472 605 q 303 586 336 605 q 247 532 269 566 q 214 450 225 497 q 203 347 203 402 q 247 161 203 224 q 382 98 291 98 m 220 840 q 186 865 200 852 q 162 890 172 879 q 144 916 151 903 q 192 966 165 943 q 244 1000 214 985 q 311 1016 275 1016 q 364 1003 342 1016 q 406 975 386 990 q 437 954 422 963 q 466 945 452 945 q 493 953 480 945 q 517 972 507 962 q 540 1001 529 985 q 576 975 562 988 q 601 951 591 962 q 618 926 612 939 q 570 876 597 899 q 517 842 548 857 q 450 827 487 827 q 397 840 419 827 q 355 867 374 852 q 324 889 339 880 q 296 898 309 898 q 268 889 281 898 q 243 869 254 880 q 220 840 231 857 z "},"ö":{"ha":758,"x_min":52,"x_max":707,"o":"m 52 347 q 76 505 52 436 q 143 619 100 573 q 248 689 187 665 q 382 713 309 713 q 517 691 457 713 q 620 624 578 669 q 684 512 662 579 q 707 356 707 446 q 684 197 707 267 q 619 81 661 128 q 516 11 576 35 q 382 -14 456 -14 q 243 9 304 -14 q 139 77 182 32 q 74 190 97 122 q 52 347 52 257 m 382 98 q 459 118 427 98 q 513 171 492 137 q 545 253 534 205 q 555 356 555 300 q 513 541 555 477 q 382 605 472 605 q 303 586 336 605 q 247 532 269 566 q 214 450 225 497 q 203 347 203 402 q 247 161 203 224 q 382 98 291 98 m 233 831 q 198 838 214 831 q 169 856 181 844 q 149 883 156 867 q 142 916 142 898 q 149 949 142 934 q 169 977 156 965 q 198 995 181 988 q 233 1001 214 1001 q 269 995 252 1001 q 299 977 286 988 q 319 949 312 965 q 327 916 327 934 q 319 883 327 898 q 299 856 312 867 q 269 838 286 844 q 233 831 252 831 m 526 831 q 490 838 507 831 q 461 856 473 844 q 441 883 448 867 q 434 916 434 898 q 441 949 434 934 q 461 977 448 965 q 490 995 473 988 q 526 1001 507 1001 q 562 995 545 1001 q 591 977 578 988 q 612 949 604 965 q 619 916 619 934 q 612 883 619 898 q 591 856 604 867 q 562 838 578 844 q 526 831 545 831 z "},"ř":{"ha":476,"x_min":3,"x_max":488,"o":"m 179 701 l 249 627 q 268 660 256 644 q 296 686 280 675 q 332 705 312 698 q 376 711 352 711 q 414 708 395 711 q 454 698 432 705 q 455 687 454 696 q 456 663 456 677 q 455 638 456 652 q 451 608 454 623 q 442 578 448 593 q 427 552 436 563 l 414 549 q 384 560 401 555 q 350 565 368 565 q 304 561 323 565 q 275 553 286 557 q 253 543 261 549 l 253 0 l 108 0 l 108 569 l 54 624 l 54 701 l 179 701 m 3 1095 l 138 1095 l 246 883 l 252 883 l 351 1095 l 488 1095 l 336 802 l 154 802 l 3 1095 z "},"ŗ":{"ha":476,"x_min":54,"x_max":456,"o":"m 179 701 l 249 627 q 268 660 256 644 q 296 686 280 675 q 332 705 312 698 q 376 711 352 711 q 414 708 395 711 q 454 698 432 705 q 455 687 454 696 q 456 663 456 677 q 455 638 456 652 q 451 608 454 623 q 442 578 448 593 q 427 552 436 563 l 414 549 q 384 560 401 555 q 350 565 368 565 q 304 561 323 565 q 275 553 286 557 q 253 543 261 549 l 253 0 l 108 0 l 108 569 l 54 624 l 54 701 l 179 701 m 146 -72 q 155 -72 146 -72 q 177 -73 163 -72 q 207 -77 190 -74 q 240 -86 223 -80 q 272 -101 256 -92 q 298 -123 287 -110 q 269 -221 290 -180 q 225 -290 248 -262 q 168 -344 199 -322 q 126 -338 146 -342 q 92 -328 109 -335 q 64 -307 74 -321 l 65 -296 q 103 -236 85 -270 q 130 -165 117 -207 q 146 -72 143 -124 z "},"ù":{"ha":743,"x_min":76,"x_max":696,"o":"m 76 693 l 221 693 l 221 240 q 250 133 221 168 q 345 98 278 98 q 404 103 378 98 q 450 116 431 109 q 490 135 473 124 l 490 693 l 636 693 l 636 112 l 696 43 l 696 0 l 566 0 l 512 54 l 486 54 q 466 39 481 50 q 428 16 451 28 q 374 -5 404 4 q 307 -14 343 -14 q 207 3 250 -14 q 134 52 163 20 q 91 128 105 83 q 76 227 76 172 l 76 693 m 214 996 q 234 1020 219 1006 q 267 1049 248 1035 q 303 1074 285 1063 q 334 1088 322 1085 l 500 854 q 490 837 497 846 q 472 819 482 827 q 451 804 462 811 q 429 793 439 797 l 214 996 z "},"ú":{"ha":743,"x_min":76,"x_max":696,"o":"m 76 693 l 221 693 l 221 240 q 250 133 221 168 q 345 98 278 98 q 404 103 378 98 q 450 116 431 109 q 490 135 473 124 l 490 693 l 636 693 l 636 112 l 696 43 l 696 0 l 566 0 l 512 54 l 486 54 q 466 39 481 50 q 428 16 451 28 q 374 -5 404 4 q 307 -14 343 -14 q 207 3 250 -14 q 134 52 163 20 q 91 128 105 83 q 76 227 76 172 l 76 693 m 338 793 q 316 804 328 797 q 295 819 305 811 q 277 837 285 827 q 267 854 270 846 l 433 1088 q 464 1074 445 1085 q 500 1049 482 1063 q 533 1020 519 1035 q 553 996 548 1006 l 338 793 l 338 793 z "},"û":{"ha":743,"x_min":76,"x_max":696,"o":"m 76 693 l 221 693 l 221 240 q 250 133 221 168 q 345 98 278 98 q 404 103 378 98 q 450 116 431 109 q 490 135 473 124 l 490 693 l 636 693 l 636 112 l 696 43 l 696 0 l 566 0 l 512 54 l 486 54 q 466 39 481 50 q 428 16 451 28 q 374 -5 404 4 q 307 -14 343 -14 q 207 3 250 -14 q 134 52 163 20 q 91 128 105 83 q 76 227 76 172 l 76 693 m 292 1095 l 467 1095 l 618 789 l 500 789 l 378 1020 l 250 789 l 132 789 l 292 1095 z "},"ü":{"ha":743,"x_min":76,"x_max":696,"o":"m 76 693 l 221 693 l 221 240 q 250 133 221 168 q 345 98 278 98 q 404 103 378 98 q 450 116 431 109 q 490 135 473 124 l 490 693 l 636 693 l 636 112 l 696 43 l 696 0 l 566 0 l 512 54 l 486 54 q 466 39 481 50 q 428 16 451 28 q 374 -5 404 4 q 307 -14 343 -14 q 207 3 250 -14 q 134 52 163 20 q 91 128 105 83 q 76 227 76 172 l 76 693 m 231 831 q 195 838 212 831 q 166 856 178 844 q 146 883 153 867 q 139 916 139 898 q 146 949 139 934 q 166 977 153 965 q 195 995 178 988 q 231 1001 212 1001 q 267 995 250 1001 q 296 977 283 988 q 317 949 309 965 q 324 916 324 934 q 317 883 324 898 q 296 856 309 867 q 267 838 283 844 q 231 831 250 831 m 523 831 q 487 838 504 831 q 458 856 471 844 q 438 883 446 867 q 431 916 431 898 q 438 949 431 934 q 458 977 446 965 q 487 995 471 988 q 523 1001 504 1001 q 559 995 542 1001 q 589 977 576 988 q 609 949 602 965 q 616 916 616 934 q 609 883 616 898 q 589 856 602 867 q 559 838 576 844 q 523 831 542 831 z "},"ý":{"ha":663,"x_min":17,"x_max":654,"o":"m 17 693 l 170 693 l 302 186 l 331 51 l 361 186 l 497 693 l 654 693 l 346 -316 l 199 -316 l 312 0 l 225 0 l 17 693 m 291 793 q 270 804 281 797 q 248 819 258 811 q 231 837 238 827 q 220 854 223 846 l 386 1088 q 417 1074 398 1085 q 454 1049 435 1063 q 487 1020 472 1035 q 506 996 501 1006 l 291 793 l 291 793 z "},"ÿ":{"ha":663,"x_min":17,"x_max":654,"o":"m 17 693 l 170 693 l 302 186 l 331 51 l 361 186 l 497 693 l 654 693 l 346 -316 l 199 -316 l 312 0 l 225 0 l 17 693 m 184 831 q 148 838 165 831 q 119 856 132 844 q 99 883 106 867 q 92 916 92 898 q 99 949 92 934 q 119 977 106 965 q 148 995 132 988 q 184 1001 165 1001 q 220 995 203 1001 q 250 977 237 988 q 270 949 262 965 q 277 916 277 934 q 270 883 277 898 q 250 856 262 867 q 220 838 237 844 q 184 831 203 831 m 476 831 q 440 838 457 831 q 411 856 424 844 q 392 883 399 867 q 385 916 385 898 q 392 949 385 934 q 411 977 399 965 q 440 995 424 988 q 476 1001 457 1001 q 512 995 495 1001 q 542 977 529 988 q 562 949 555 965 q 570 916 570 934 q 562 883 570 898 q 542 856 555 867 q 512 838 529 844 q 476 831 495 831 z "},"À":{"ha":760,"x_min":-7,"x_max":767,"o":"m 260 921 l 492 921 l 767 0 l 613 0 l 529 281 l 231 281 l 151 0 l -7 0 l 260 921 m 497 399 l 373 851 l 261 399 l 497 399 m 168 1211 q 187 1235 172 1221 q 219 1263 201 1249 q 256 1288 237 1277 q 286 1303 274 1299 l 487 1069 q 476 1052 484 1061 q 459 1035 469 1043 q 438 1020 449 1027 q 416 1008 427 1013 l 168 1211 z "},"Á":{"ha":760,"x_min":-7,"x_max":767,"o":"m 260 921 l 492 921 l 767 0 l 613 0 l 529 281 l 231 281 l 151 0 l -7 0 l 260 921 m 497 399 l 373 851 l 261 399 l 497 399 m 348 1008 q 327 1020 338 1013 q 306 1035 315 1027 q 288 1052 296 1043 q 277 1069 281 1061 l 478 1303 q 509 1288 490 1299 q 545 1263 527 1277 q 577 1235 563 1249 q 597 1211 592 1221 l 348 1008 l 348 1008 z "},"Â":{"ha":760,"x_min":-7,"x_max":767,"o":"m 260 921 l 492 921 l 767 0 l 613 0 l 529 281 l 231 281 l 151 0 l -7 0 l 260 921 m 497 399 l 373 851 l 261 399 l 497 399 m 296 1254 l 476 1254 l 631 1011 l 492 1011 l 382 1160 l 382 1160 q 325 1085 354 1123 q 269 1011 296 1048 l 135 1011 l 296 1254 z "},"Ã":{"ha":760,"x_min":-7,"x_max":767,"o":"m 260 921 l 492 921 l 767 0 l 613 0 l 529 281 l 231 281 l 151 0 l -7 0 l 260 921 m 497 399 l 373 851 l 261 399 l 497 399 m 221 1042 q 186 1067 201 1054 q 163 1092 172 1080 q 145 1118 152 1105 q 192 1168 165 1145 q 244 1202 214 1187 q 311 1218 275 1218 q 364 1205 342 1218 q 406 1177 387 1192 q 437 1156 422 1165 q 467 1146 452 1146 q 494 1155 480 1146 q 517 1175 507 1164 q 541 1203 530 1187 q 577 1177 562 1190 q 602 1153 592 1164 q 618 1128 612 1141 q 570 1078 597 1101 q 517 1044 548 1059 q 450 1029 487 1029 q 397 1042 420 1029 q 355 1069 375 1055 q 325 1091 340 1082 q 296 1100 309 1100 q 268 1091 281 1100 q 244 1071 254 1082 q 221 1042 232 1059 z "},"Ä":{"ha":760,"x_min":-7,"x_max":767,"o":"m 260 921 l 492 921 l 767 0 l 613 0 l 529 281 l 231 281 l 151 0 l -7 0 l 260 921 m 497 399 l 373 851 l 261 399 l 497 399 m 236 1010 q 200 1017 217 1010 q 171 1036 184 1024 q 152 1063 159 1047 q 144 1096 144 1078 q 152 1129 144 1114 q 171 1156 159 1145 q 200 1175 184 1168 q 236 1181 217 1181 q 272 1175 255 1181 q 302 1156 290 1168 q 322 1129 315 1145 q 330 1096 330 1114 q 322 1063 330 1078 q 302 1036 315 1047 q 272 1017 290 1024 q 236 1010 255 1010 m 526 1010 q 490 1017 507 1010 q 461 1036 473 1024 q 441 1063 448 1047 q 434 1096 434 1078 q 441 1129 434 1114 q 461 1156 448 1145 q 490 1175 473 1168 q 526 1181 507 1181 q 562 1175 545 1181 q 592 1156 579 1168 q 612 1129 604 1145 q 619 1096 619 1114 q 612 1063 619 1078 q 592 1036 604 1047 q 562 1017 579 1024 q 526 1010 545 1010 z "},"Å":{"ha":760,"x_min":-7,"x_max":767,"o":"m 260 921 l 492 921 l 767 0 l 613 0 l 529 281 l 231 281 l 151 0 l -7 0 l 260 921 m 497 399 l 373 851 l 261 399 l 497 399 m 381 984 q 229 1029 280 984 q 177 1156 177 1075 q 229 1283 177 1237 q 381 1329 280 1329 q 469 1317 430 1329 q 534 1283 507 1305 q 574 1231 560 1261 q 588 1161 588 1200 q 534 1030 588 1076 q 381 984 480 984 m 381 1075 q 418 1082 403 1075 q 444 1101 434 1089 q 458 1128 454 1113 q 463 1162 463 1144 q 444 1219 463 1198 q 381 1240 425 1240 q 319 1217 340 1240 q 297 1156 297 1193 q 319 1097 297 1118 q 381 1075 340 1075 z "},"È":{"ha":691,"x_min":107,"x_max":643,"o":"m 107 921 l 635 921 q 636 911 635 916 q 637 900 637 906 q 637 888 637 895 q 633 853 637 876 q 614 799 629 829 q 497 803 557 801 q 383 806 446 804 q 261 808 321 808 l 261 530 q 306 530 281 530 q 357 531 330 530 q 411 532 384 532 q 464 534 438 533 q 587 537 524 536 q 587 526 587 532 q 588 513 588 520 q 589 498 589 506 q 588 485 589 495 q 584 463 587 475 q 579 439 582 451 q 572 418 576 427 q 450 419 509 418 q 399 419 425 419 q 348 419 372 419 q 300 420 323 420 q 261 420 278 420 l 261 116 q 387 118 321 116 q 510 122 453 120 q 641 128 576 125 q 642 115 641 122 q 643 102 642 110 q 643 87 643 94 q 641 50 643 73 q 632 0 639 26 l 107 0 l 107 921 m 163 1211 q 182 1235 168 1221 q 215 1263 197 1249 q 251 1288 233 1277 q 281 1303 269 1299 l 482 1069 q 471 1052 479 1061 q 454 1035 464 1043 q 433 1020 444 1027 q 412 1008 422 1013 l 163 1211 z "},"É":{"ha":691,"x_min":107,"x_max":643,"o":"m 107 921 l 635 921 q 636 911 635 916 q 637 900 637 906 q 637 888 637 895 q 633 853 637 876 q 614 799 629 829 q 497 803 557 801 q 383 806 446 804 q 261 808 321 808 l 261 530 q 306 530 281 530 q 357 531 330 530 q 411 532 384 532 q 464 534 438 533 q 587 537 524 536 q 587 526 587 532 q 588 513 588 520 q 589 498 589 506 q 588 485 589 495 q 584 463 587 475 q 579 439 582 451 q 572 418 576 427 q 450 419 509 418 q 399 419 425 419 q 348 419 372 419 q 300 420 323 420 q 261 420 278 420 l 261 116 q 387 118 321 116 q 510 122 453 120 q 641 128 576 125 q 642 115 641 122 q 643 102 642 110 q 643 87 643 94 q 641 50 643 73 q 632 0 639 26 l 107 0 l 107 921 m 343 1008 q 322 1020 333 1013 q 301 1035 311 1027 q 283 1052 291 1043 q 273 1069 276 1061 l 473 1303 q 504 1288 486 1299 q 540 1263 522 1277 q 573 1235 558 1249 q 592 1211 587 1221 l 343 1008 l 343 1008 z "},"Ê":{"ha":691,"x_min":107,"x_max":643,"o":"m 107 921 l 635 921 q 636 911 635 916 q 637 900 637 906 q 637 888 637 895 q 633 853 637 876 q 614 799 629 829 q 497 803 557 801 q 383 806 446 804 q 261 808 321 808 l 261 530 q 306 530 281 530 q 357 531 330 530 q 411 532 384 532 q 464 534 438 533 q 587 537 524 536 q 587 526 587 532 q 588 513 588 520 q 589 498 589 506 q 588 485 589 495 q 584 463 587 475 q 579 439 582 451 q 572 418 576 427 q 450 419 509 418 q 399 419 425 419 q 348 419 372 419 q 300 420 323 420 q 261 420 278 420 l 261 116 q 387 118 321 116 q 510 122 453 120 q 641 128 576 125 q 642 115 641 122 q 643 102 642 110 q 643 87 643 94 q 641 50 643 73 q 632 0 639 26 l 107 0 l 107 921 m 292 1254 l 471 1254 l 626 1011 l 487 1011 l 378 1160 l 377 1160 q 320 1085 349 1123 q 264 1011 292 1048 l 130 1011 l 292 1254 z "},"Ë":{"ha":691,"x_min":107,"x_max":643,"o":"m 107 921 l 635 921 q 636 911 635 916 q 637 900 637 906 q 637 888 637 895 q 633 853 637 876 q 614 799 629 829 q 497 803 557 801 q 383 806 446 804 q 261 808 321 808 l 261 530 q 306 530 281 530 q 357 531 330 530 q 411 532 384 532 q 464 534 438 533 q 587 537 524 536 q 587 526 587 532 q 588 513 588 520 q 589 498 589 506 q 588 485 589 495 q 584 463 587 475 q 579 439 582 451 q 572 418 576 427 q 450 419 509 418 q 399 419 425 419 q 348 419 372 419 q 300 420 323 420 q 261 420 278 420 l 261 116 q 387 118 321 116 q 510 122 453 120 q 641 128 576 125 q 642 115 641 122 q 643 102 642 110 q 643 87 643 94 q 641 50 643 73 q 632 0 639 26 l 107 0 l 107 921 m 231 1010 q 196 1017 212 1010 q 166 1036 179 1024 q 147 1063 154 1047 q 140 1096 140 1078 q 147 1129 140 1114 q 166 1156 154 1145 q 196 1175 179 1168 q 231 1181 212 1181 q 268 1175 250 1181 q 297 1156 285 1168 q 317 1129 310 1145 q 325 1096 325 1114 q 317 1063 325 1078 q 297 1036 310 1047 q 268 1017 285 1024 q 231 1010 250 1010 m 522 1010 q 486 1017 503 1010 q 456 1036 469 1024 q 436 1063 444 1047 q 429 1096 429 1078 q 436 1129 429 1114 q 456 1156 444 1145 q 486 1175 469 1168 q 522 1181 503 1181 q 557 1175 541 1181 q 587 1156 574 1168 q 607 1129 600 1145 q 614 1096 614 1114 q 607 1063 614 1078 q 587 1036 600 1047 q 557 1017 574 1024 q 522 1010 541 1010 z "},"Ì":{"ha":368,"x_min":-31,"x_max":288,"o":"m 107 921 l 260 921 l 260 0 l 107 0 l 107 921 m -31 1211 q -12 1235 -26 1221 q 21 1263 3 1249 q 57 1288 39 1277 q 87 1303 75 1299 l 288 1069 q 277 1052 285 1061 q 260 1035 270 1043 q 239 1020 250 1027 q 218 1008 228 1013 l -31 1211 z "},"Í":{"ha":368,"x_min":79,"x_max":398,"o":"m 107 921 l 260 921 l 260 0 l 107 0 l 107 921 m 149 1008 q 128 1020 139 1013 q 107 1035 117 1027 q 90 1052 97 1043 q 79 1069 82 1061 l 279 1303 q 310 1288 292 1299 q 346 1263 328 1277 q 379 1235 364 1249 q 398 1211 393 1221 l 149 1008 l 149 1008 z "},"Ĩ":{"ha":368,"x_min":-54,"x_max":419,"o":"m 107 921 l 260 921 l 260 0 l 107 0 l 107 921 m 22 1042 q -12 1067 2 1054 q -36 1092 -26 1080 q -54 1118 -47 1105 q -7 1168 -33 1145 q 45 1202 15 1187 q 113 1218 76 1218 q 165 1205 143 1218 q 208 1177 188 1192 q 238 1156 223 1165 q 268 1146 253 1146 q 295 1155 281 1146 q 319 1175 309 1164 q 342 1203 331 1187 q 378 1177 363 1190 q 403 1153 393 1164 q 419 1128 414 1141 q 372 1078 398 1101 q 319 1044 349 1059 q 252 1029 288 1029 q 199 1042 221 1029 q 157 1069 176 1055 q 126 1091 141 1082 q 97 1100 111 1100 q 69 1091 83 1100 q 45 1071 56 1082 q 22 1042 33 1059 z "},"Î":{"ha":368,"x_min":-64,"x_max":432,"o":"m 107 921 l 260 921 l 260 0 l 107 0 l 107 921 m 98 1254 l 277 1254 l 432 1011 l 293 1011 l 184 1160 l 183 1160 q 126 1085 155 1123 q 70 1011 98 1048 l -64 1011 l 98 1254 z "},"Ï":{"ha":368,"x_min":-54,"x_max":420,"o":"m 107 921 l 260 921 l 260 0 l 107 0 l 107 921 m 37 1010 q 2 1017 18 1010 q -27 1036 -15 1024 q -47 1063 -40 1047 q -54 1096 -54 1078 q -47 1129 -54 1114 q -27 1156 -40 1145 q 2 1175 -15 1168 q 37 1181 18 1181 q 74 1175 56 1181 q 103 1156 91 1168 q 123 1129 116 1145 q 131 1096 131 1114 q 123 1063 131 1078 q 103 1036 116 1047 q 74 1017 91 1024 q 37 1010 56 1010 m 328 1010 q 292 1017 309 1010 q 262 1036 275 1024 q 242 1063 250 1047 q 235 1096 235 1078 q 242 1129 235 1114 q 262 1156 250 1145 q 292 1175 275 1168 q 328 1181 309 1181 q 363 1175 347 1181 q 393 1156 380 1168 q 413 1129 406 1145 q 420 1096 420 1114 q 413 1063 420 1078 q 393 1036 406 1047 q 363 1017 380 1024 q 328 1010 347 1010 z "},"Ĳ":{"ha":793,"x_min":107,"x_max":669,"o":"m 107 921 l 260 921 l 260 0 l 107 0 l 107 921 m 515 921 l 669 921 l 669 83 q 656 -15 669 28 q 616 -91 644 -58 q 546 -146 589 -123 q 442 -182 503 -168 q 420 -142 429 -162 q 404 -106 410 -122 q 391 -69 396 -87 q 444 -51 420 -63 q 483 -17 467 -39 q 507 37 498 4 q 515 117 515 69 l 515 921 z "},"Ĵ":{"ha":429,"x_min":-20,"x_max":475,"o":"m 151 921 l 305 921 l 305 83 q 293 -15 305 28 q 253 -91 280 -58 q 182 -146 225 -123 q 79 -182 139 -168 q 56 -142 66 -162 q 40 -106 47 -122 q 27 -69 33 -87 q 80 -51 57 -63 q 119 -17 103 -39 q 143 37 135 4 q 151 117 151 69 l 151 921 m 141 1254 l 321 1254 l 475 1011 l 336 1011 l 227 1160 l 227 1160 q 170 1085 199 1123 q 113 1011 141 1048 l -20 1011 l 141 1254 z "},"Ń":{"ha":916,"x_min":107,"x_max":809,"o":"m 107 921 l 351 921 l 583 346 l 676 84 l 667 346 l 663 921 l 809 921 l 809 0 l 572 0 l 334 576 l 241 842 l 250 576 l 254 0 l 107 0 l 107 921 m 427 1008 q 405 1020 416 1013 q 384 1035 394 1027 q 367 1052 374 1043 q 356 1069 359 1061 l 557 1303 q 587 1288 569 1299 q 624 1263 606 1277 q 656 1235 642 1249 q 675 1211 671 1221 l 427 1008 l 427 1008 z "},"Ñ":{"ha":916,"x_min":107,"x_max":809,"o":"m 107 921 l 351 921 l 583 346 l 676 84 l 667 346 l 663 921 l 809 921 l 809 0 l 572 0 l 334 576 l 241 842 l 250 576 l 254 0 l 107 0 l 107 921 m 300 1042 q 265 1067 279 1054 q 241 1092 251 1080 q 224 1118 231 1105 q 271 1168 244 1145 q 323 1202 292 1187 q 390 1218 353 1218 q 443 1205 420 1218 q 485 1177 465 1192 q 515 1156 500 1165 q 545 1146 530 1146 q 572 1155 559 1146 q 596 1175 586 1164 q 619 1203 608 1187 q 656 1177 641 1190 q 680 1153 671 1164 q 696 1128 691 1141 q 649 1078 675 1101 q 596 1044 627 1059 q 529 1029 566 1029 q 476 1042 498 1029 q 434 1069 454 1055 q 403 1091 418 1082 q 374 1100 388 1100 q 347 1091 360 1100 q 323 1071 333 1082 q 300 1042 311 1059 z "},"Ò":{"ha":875,"x_min":56,"x_max":819,"o":"m 440 -18 q 266 15 338 -18 q 146 110 193 48 q 78 261 100 172 q 56 460 56 349 q 79 661 56 572 q 149 811 102 749 q 269 906 196 873 q 440 939 341 939 q 616 908 544 939 q 733 817 688 877 q 798 671 778 758 q 819 473 819 585 q 797 271 819 361 q 729 116 775 180 q 611 17 683 52 q 440 -18 540 -18 m 440 101 q 548 128 505 101 q 617 204 591 155 q 654 322 643 254 q 665 473 665 391 q 654 628 665 562 q 617 736 643 693 q 548 800 591 779 q 440 821 505 821 q 331 797 376 821 q 260 727 287 773 q 221 613 233 680 q 209 460 209 546 q 221 308 209 375 q 260 195 233 241 q 331 125 287 149 q 440 101 376 101 m 225 1211 q 244 1235 230 1221 q 277 1263 259 1249 q 313 1288 295 1277 q 344 1303 332 1299 l 545 1069 q 534 1052 541 1061 q 516 1035 526 1043 q 495 1020 507 1027 q 474 1008 484 1013 l 225 1211 z "},"Ó":{"ha":875,"x_min":56,"x_max":819,"o":"m 440 -18 q 266 15 338 -18 q 146 110 193 48 q 78 261 100 172 q 56 460 56 349 q 79 661 56 572 q 149 811 102 749 q 269 906 196 873 q 440 939 341 939 q 616 908 544 939 q 733 817 688 877 q 798 671 778 758 q 819 473 819 585 q 797 271 819 361 q 729 116 775 180 q 611 17 683 52 q 440 -18 540 -18 m 440 101 q 548 128 505 101 q 617 204 591 155 q 654 322 643 254 q 665 473 665 391 q 654 628 665 562 q 617 736 643 693 q 548 800 591 779 q 440 821 505 821 q 331 797 376 821 q 260 727 287 773 q 221 613 233 680 q 209 460 209 546 q 221 308 209 375 q 260 195 233 241 q 331 125 287 149 q 440 101 376 101 m 406 1008 q 384 1020 395 1013 q 363 1035 373 1027 q 346 1052 353 1043 q 335 1069 338 1061 l 536 1303 q 566 1288 548 1299 q 603 1263 585 1277 q 635 1235 621 1249 q 654 1211 650 1221 l 406 1008 l 406 1008 z "},"Ô":{"ha":875,"x_min":56,"x_max":819,"o":"m 440 -18 q 266 15 338 -18 q 146 110 193 48 q 78 261 100 172 q 56 460 56 349 q 79 661 56 572 q 149 811 102 749 q 269 906 196 873 q 440 939 341 939 q 616 908 544 939 q 733 817 688 877 q 798 671 778 758 q 819 473 819 585 q 797 271 819 361 q 729 116 775 180 q 611 17 683 52 q 440 -18 540 -18 m 440 101 q 548 128 505 101 q 617 204 591 155 q 654 322 643 254 q 665 473 665 391 q 654 628 665 562 q 617 736 643 693 q 548 800 591 779 q 440 821 505 821 q 331 797 376 821 q 260 727 287 773 q 221 613 233 680 q 209 460 209 546 q 221 308 209 375 q 260 195 233 241 q 331 125 287 149 q 440 101 376 101 m 354 1254 l 534 1254 l 688 1011 l 549 1011 l 440 1160 l 439 1160 q 383 1085 412 1123 q 326 1011 354 1048 l 193 1011 l 354 1254 z "},"Õ":{"ha":875,"x_min":56,"x_max":819,"o":"m 440 -18 q 266 15 338 -18 q 146 110 193 48 q 78 261 100 172 q 56 460 56 349 q 79 661 56 572 q 149 811 102 749 q 269 906 196 873 q 440 939 341 939 q 616 908 544 939 q 733 817 688 877 q 798 671 778 758 q 819 473 819 585 q 797 271 819 361 q 729 116 775 180 q 611 17 683 52 q 440 -18 540 -18 m 440 101 q 548 128 505 101 q 617 204 591 155 q 654 322 643 254 q 665 473 665 391 q 654 628 665 562 q 617 736 643 693 q 548 800 591 779 q 440 821 505 821 q 331 797 376 821 q 260 727 287 773 q 221 613 233 680 q 209 460 209 546 q 221 308 209 375 q 260 195 233 241 q 331 125 287 149 q 440 101 376 101 m 279 1042 q 244 1067 258 1054 q 220 1092 230 1080 q 203 1118 210 1105 q 250 1168 223 1145 q 302 1202 271 1187 q 369 1218 332 1218 q 422 1205 399 1218 q 464 1177 444 1192 q 494 1156 479 1165 q 524 1146 509 1146 q 551 1155 538 1146 q 575 1175 565 1164 q 598 1203 587 1187 q 635 1177 620 1190 q 659 1153 650 1164 q 675 1128 670 1141 q 628 1078 654 1101 q 575 1044 606 1059 q 508 1029 545 1029 q 455 1042 477 1029 q 413 1069 433 1055 q 382 1091 397 1082 q 353 1100 367 1100 q 326 1091 339 1100 q 302 1071 312 1082 q 279 1042 290 1059 z "},"Ö":{"ha":875,"x_min":56,"x_max":819,"o":"m 440 -18 q 266 15 338 -18 q 146 110 193 48 q 78 261 100 172 q 56 460 56 349 q 79 661 56 572 q 149 811 102 749 q 269 906 196 873 q 440 939 341 939 q 616 908 544 939 q 733 817 688 877 q 798 671 778 758 q 819 473 819 585 q 797 271 819 361 q 729 116 775 180 q 611 17 683 52 q 440 -18 540 -18 m 440 101 q 548 128 505 101 q 617 204 591 155 q 654 322 643 254 q 665 473 665 391 q 654 628 665 562 q 617 736 643 693 q 548 800 591 779 q 440 821 505 821 q 331 797 376 821 q 260 727 287 773 q 221 613 233 680 q 209 460 209 546 q 221 308 209 375 q 260 195 233 241 q 331 125 287 149 q 440 101 376 101 m 294 1010 q 258 1017 275 1010 q 229 1036 241 1024 q 209 1063 216 1047 q 202 1096 202 1078 q 209 1129 202 1114 q 229 1156 216 1145 q 258 1175 241 1168 q 294 1181 275 1181 q 330 1175 313 1181 q 360 1156 347 1168 q 380 1129 372 1145 q 387 1096 387 1114 q 380 1063 387 1078 q 360 1036 372 1047 q 330 1017 347 1024 q 294 1010 313 1010 m 584 1010 q 548 1017 565 1010 q 518 1036 531 1024 q 499 1063 506 1047 q 492 1096 492 1078 q 499 1129 492 1114 q 518 1156 506 1145 q 548 1175 531 1168 q 584 1181 565 1181 q 620 1175 603 1181 q 649 1156 637 1168 q 669 1129 662 1145 q 677 1096 677 1114 q 669 1063 677 1078 q 649 1036 662 1047 q 620 1017 637 1024 q 584 1010 603 1010 z "},"Ŕ":{"ha":773,"x_min":107,"x_max":754,"o":"m 107 921 l 430 921 q 550 902 498 921 q 637 849 602 884 q 690 767 672 815 q 708 659 708 718 q 697 576 708 615 q 664 504 686 537 q 608 446 642 471 q 527 404 574 420 q 582 303 553 354 q 641 201 611 252 q 699 100 670 151 q 754 0 728 49 l 589 0 l 387 380 l 378 380 q 337 382 358 380 q 297 386 315 384 q 255 392 275 389 l 255 0 l 107 0 l 107 921 m 255 501 q 275 499 261 500 q 306 498 289 498 q 343 497 323 497 q 382 496 363 496 q 510 535 468 496 q 553 656 553 574 q 514 765 553 727 q 406 803 476 803 l 255 803 l 255 501 m 389 1008 q 368 1020 379 1013 q 347 1035 357 1027 q 330 1052 337 1043 q 319 1069 322 1061 l 519 1303 q 550 1288 532 1299 q 586 1263 568 1277 q 619 1235 604 1249 q 638 1211 633 1221 l 389 1008 l 389 1008 z "},"Ř":{"ha":773,"x_min":107,"x_max":754,"o":"m 107 921 l 430 921 q 550 902 498 921 q 637 849 602 884 q 690 767 672 815 q 708 659 708 718 q 697 576 708 615 q 664 504 686 537 q 608 446 642 471 q 527 404 574 420 q 582 303 553 354 q 641 201 611 252 q 699 100 670 151 q 754 0 728 49 l 589 0 l 387 380 l 378 380 q 337 382 358 380 q 297 386 315 384 q 255 392 275 389 l 255 0 l 107 0 l 107 921 m 255 501 q 275 499 261 500 q 306 498 289 498 q 343 497 323 497 q 382 496 363 496 q 510 535 468 496 q 553 656 553 574 q 514 765 553 727 q 406 803 476 803 l 255 803 l 255 501 m 175 1253 l 311 1253 l 419 1106 l 431 1106 l 531 1253 l 668 1253 l 509 1012 l 329 1012 l 175 1253 z "},"Ŗ":{"ha":773,"x_min":107,"x_max":754,"o":"m 107 921 l 430 921 q 550 902 498 921 q 637 849 602 884 q 690 767 672 815 q 708 659 708 718 q 697 576 708 615 q 664 504 686 537 q 608 446 642 471 q 527 404 574 420 q 582 303 553 354 q 641 201 611 252 q 699 100 670 151 q 754 0 728 49 l 589 0 l 387 380 l 378 380 q 337 382 358 380 q 297 386 315 384 q 255 392 275 389 l 255 0 l 107 0 l 107 921 m 255 501 q 275 499 261 500 q 306 498 289 498 q 343 497 323 497 q 382 496 363 496 q 510 535 468 496 q 553 656 553 574 q 514 765 553 727 q 406 803 476 803 l 255 803 l 255 501 m 337 -72 q 346 -72 338 -72 q 368 -73 355 -72 q 398 -77 381 -74 q 431 -86 414 -80 q 463 -101 448 -92 q 489 -123 478 -110 q 460 -221 481 -180 q 416 -290 439 -262 q 359 -344 390 -322 q 317 -338 337 -342 q 283 -328 300 -335 q 256 -307 265 -321 l 256 -296 q 294 -236 277 -270 q 321 -165 309 -207 q 337 -72 334 -124 z "},"Ù":{"ha":842,"x_min":79,"x_max":762,"o":"m 79 359 q 79 416 79 380 q 80 495 79 452 q 80 587 80 538 q 81 683 81 635 q 82 921 81 794 l 233 921 l 233 337 q 243 243 233 285 q 276 171 253 201 q 334 125 298 141 q 422 109 370 109 q 511 125 474 109 q 570 171 547 141 q 604 243 593 201 q 614 337 614 285 q 614 385 614 352 q 614 462 614 418 q 613 557 614 506 q 613 659 613 608 q 612 921 612 779 l 762 921 l 762 359 q 744 197 762 267 q 688 81 727 127 q 583 10 648 34 q 422 -14 518 -14 q 263 11 328 -14 q 157 82 197 35 q 98 199 116 129 q 79 359 79 269 m 208 1211 q 228 1235 213 1221 q 260 1263 242 1249 q 296 1288 278 1277 q 327 1303 315 1299 l 528 1069 q 517 1052 524 1061 q 499 1035 509 1043 q 478 1020 490 1027 q 457 1008 467 1013 l 208 1211 z "},"Ú":{"ha":842,"x_min":79,"x_max":762,"o":"m 79 359 q 79 416 79 380 q 80 495 79 452 q 80 587 80 538 q 81 683 81 635 q 82 921 81 794 l 233 921 l 233 337 q 243 243 233 285 q 276 171 253 201 q 334 125 298 141 q 422 109 370 109 q 511 125 474 109 q 570 171 547 141 q 604 243 593 201 q 614 337 614 285 q 614 385 614 352 q 614 462 614 418 q 613 557 614 506 q 613 659 613 608 q 612 921 612 779 l 762 921 l 762 359 q 744 197 762 267 q 688 81 727 127 q 583 10 648 34 q 422 -14 518 -14 q 263 11 328 -14 q 157 82 197 35 q 98 199 116 129 q 79 359 79 269 m 389 1008 q 367 1020 378 1013 q 346 1035 356 1027 q 329 1052 336 1043 q 318 1069 321 1061 l 519 1303 q 549 1288 531 1299 q 586 1263 568 1277 q 618 1235 604 1249 q 637 1211 633 1221 l 389 1008 l 389 1008 z "},"Û":{"ha":842,"x_min":79,"x_max":762,"o":"m 79 359 q 79 416 79 380 q 80 495 79 452 q 80 587 80 538 q 81 683 81 635 q 82 921 81 794 l 233 921 l 233 337 q 243 243 233 285 q 276 171 253 201 q 334 125 298 141 q 422 109 370 109 q 511 125 474 109 q 570 171 547 141 q 604 243 593 201 q 614 337 614 285 q 614 385 614 352 q 614 462 614 418 q 613 557 614 506 q 613 659 613 608 q 612 921 612 779 l 762 921 l 762 359 q 744 197 762 267 q 688 81 727 127 q 583 10 648 34 q 422 -14 518 -14 q 263 11 328 -14 q 157 82 197 35 q 98 199 116 129 q 79 359 79 269 m 337 1254 l 517 1254 l 671 1011 l 532 1011 l 423 1160 l 422 1160 q 366 1085 395 1123 q 309 1011 337 1048 l 176 1011 l 337 1254 z "},"Ü":{"ha":842,"x_min":79,"x_max":762,"o":"m 79 359 q 79 416 79 380 q 80 495 79 452 q 80 587 80 538 q 81 683 81 635 q 82 921 81 794 l 233 921 l 233 337 q 243 243 233 285 q 276 171 253 201 q 334 125 298 141 q 422 109 370 109 q 511 125 474 109 q 570 171 547 141 q 604 243 593 201 q 614 337 614 285 q 614 385 614 352 q 614 462 614 418 q 613 557 614 506 q 613 659 613 608 q 612 921 612 779 l 762 921 l 762 359 q 744 197 762 267 q 688 81 727 127 q 583 10 648 34 q 422 -14 518 -14 q 263 11 328 -14 q 157 82 197 35 q 98 199 116 129 q 79 359 79 269 m 277 1010 q 241 1017 258 1010 q 212 1036 224 1024 q 192 1063 199 1047 q 185 1096 185 1078 q 192 1129 185 1114 q 212 1156 199 1145 q 241 1175 224 1168 q 277 1181 258 1181 q 313 1175 296 1181 q 343 1156 330 1168 q 363 1129 355 1145 q 370 1096 370 1114 q 363 1063 370 1078 q 343 1036 355 1047 q 313 1017 330 1024 q 277 1010 296 1010 m 567 1010 q 531 1017 548 1010 q 502 1036 514 1024 q 482 1063 489 1047 q 475 1096 475 1078 q 482 1129 475 1114 q 502 1156 489 1145 q 531 1175 514 1168 q 567 1181 548 1181 q 603 1175 586 1181 q 632 1156 620 1168 q 652 1129 645 1145 q 660 1096 660 1114 q 652 1063 660 1078 q 632 1036 645 1047 q 603 1017 620 1024 q 567 1010 586 1010 z "},"Ý":{"ha":679,"x_min":-14,"x_max":692,"o":"m 263 346 l -14 921 l 152 921 l 299 576 l 338 457 l 378 576 l 527 921 l 692 921 l 417 346 l 417 0 l 263 0 l 263 346 m 307 1008 q 285 1020 296 1013 q 264 1035 274 1027 q 247 1052 254 1043 q 236 1069 239 1061 l 437 1303 q 467 1288 449 1299 q 504 1263 486 1277 q 536 1235 522 1249 q 555 1211 551 1221 l 307 1008 l 307 1008 z "},"Ç":{"ha":725,"x_min":35,"x_max":669,"o":"m 35 452 q 62 659 35 568 q 142 811 89 749 q 272 906 195 873 q 450 939 349 939 q 528 933 490 939 q 599 920 567 927 q 669 901 635 911 q 663 864 667 884 q 653 824 660 846 q 634 779 646 802 q 579 796 609 789 q 520 808 553 803 q 450 814 487 814 q 341 789 389 814 q 258 719 292 765 q 205 605 224 672 q 187 452 187 538 q 205 303 187 368 q 258 195 224 239 q 341 130 292 152 q 450 108 389 108 q 522 113 488 108 q 583 125 557 119 q 641 144 614 133 q 654 109 648 128 q 662 70 659 93 q 665 19 666 47 q 609 3 638 11 q 551 -8 583 -3 q 483 -16 519 -14 q 492 -63 488 -37 q 496 -113 496 -89 q 484 -182 496 -149 q 447 -240 471 -215 q 387 -280 422 -265 q 306 -294 351 -294 q 265 -291 282 -294 q 250 -287 256 -289 q 245 -267 247 -278 q 241 -246 243 -258 q 240 -220 240 -234 q 242 -187 240 -205 q 251 -148 245 -170 q 278 -154 267 -151 q 296 -157 290 -157 q 329 -150 315 -157 q 352 -133 342 -144 q 365 -109 361 -123 q 370 -79 370 -94 q 369 -62 370 -71 q 368 -43 369 -52 q 367 -26 368 -34 q 364 -12 366 -18 q 118 128 201 12 q 35 452 35 245 z "},"…":{"ha":798,"x_min":31,"x_max":763,"o":"m 31 94 q 38 130 31 113 q 60 159 46 146 q 92 179 73 172 q 131 186 110 186 q 170 179 152 186 q 202 159 189 172 q 223 130 216 146 q 231 94 231 113 q 223 57 231 74 q 202 27 216 39 q 170 7 189 14 q 131 -1 152 -1 q 92 7 110 -1 q 60 27 73 14 q 38 57 46 39 q 31 94 31 74 m 296 94 q 304 130 296 113 q 326 159 312 146 q 357 179 339 172 q 397 186 376 186 q 436 179 418 186 q 468 159 454 172 q 489 130 481 146 q 497 94 497 113 q 489 57 497 74 q 468 27 481 39 q 436 7 454 14 q 397 -1 418 -1 q 357 7 376 -1 q 326 27 339 14 q 304 57 312 39 q 296 94 296 74 m 562 94 q 570 130 562 113 q 591 159 578 146 q 623 179 605 172 q 663 186 642 186 q 702 179 684 186 q 734 159 720 172 q 755 130 747 146 q 763 94 763 113 q 755 57 763 74 q 734 27 747 39 q 702 7 720 14 q 663 -1 684 -1 q 623 7 642 -1 q 591 27 605 14 q 570 57 578 39 q 562 94 562 74 z "},"˝":{"ha":769,"x_min":102,"x_max":673,"o":"m 175 792 q 153 803 164 796 q 132 819 142 810 q 114 837 121 827 q 102 854 106 846 l 269 1088 q 299 1075 281 1085 q 333 1052 316 1065 q 363 1025 350 1039 q 382 1001 377 1011 l 175 792 m 467 792 q 444 803 456 796 q 422 819 433 810 q 405 837 412 827 q 393 854 397 846 l 560 1088 q 590 1075 573 1085 q 624 1052 608 1065 q 654 1025 641 1039 q 673 1001 668 1011 l 467 792 z "},"˛":{"ha":833,"x_min":107,"x_max":364,"o":"m 107 -103 q 118 -53 107 -77 q 144 -9 129 -28 q 176 24 159 11 q 203 41 192 37 l 353 43 l 359 28 l 338 20 q 307 7 326 15 q 272 -13 289 -1 q 243 -39 255 -24 q 231 -71 231 -54 q 250 -99 231 -90 q 309 -108 270 -108 q 326 -105 314 -108 q 353 -99 337 -102 q 362 -138 359 -121 q 364 -171 364 -156 q 362 -197 364 -185 q 359 -218 361 -209 q 355 -238 357 -229 q 339 -242 348 -240 q 298 -245 322 -245 q 157 -207 206 -245 q 107 -103 107 -169 z "},"į":{"ha":353,"x_min":15,"x_max":277,"o":"m 96 693 l 237 693 l 237 114 l 277 85 l 277 0 l 238 0 l 237 1 l 237 0 q 212 1 224 0 q 190 3 201 2 q 150 -19 165 -3 q 135 -64 135 -35 q 157 -96 135 -84 q 217 -109 178 -109 q 240 -107 231 -109 q 262 -102 250 -106 q 270 -141 268 -124 q 273 -172 273 -157 q 271 -197 273 -186 q 268 -216 269 -209 q 264 -233 266 -226 q 248 -237 256 -235 q 206 -240 231 -240 q 124 -229 160 -240 q 64 -198 89 -218 q 27 -150 40 -178 q 15 -90 15 -123 q 37 -15 15 -54 q 109 54 59 24 q 96 117 96 80 l 96 693 m 174 810 q 138 817 155 810 q 109 836 121 824 q 89 862 96 847 q 81 895 81 878 q 89 929 81 913 q 109 956 96 945 q 138 974 121 968 q 174 981 155 981 q 210 974 193 981 q 239 956 227 968 q 259 929 252 945 q 267 895 267 913 q 259 862 267 878 q 239 836 252 847 q 210 817 227 824 q 174 810 193 810 z "},"ų":{"ha":743,"x_min":76,"x_max":728,"o":"m 76 693 l 221 693 l 221 240 q 250 133 221 168 q 345 98 278 98 q 404 103 378 98 q 450 116 431 109 q 490 135 473 124 l 490 693 l 636 693 l 636 112 l 691 49 l 696 43 l 696 0 l 635 0 q 603 -23 615 -7 q 591 -64 591 -39 q 612 -96 591 -84 q 673 -109 634 -109 q 696 -107 686 -109 q 718 -102 706 -106 q 726 -141 724 -124 q 728 -172 728 -157 q 727 -197 728 -186 q 724 -216 725 -209 q 720 -233 722 -226 q 703 -237 712 -235 q 662 -240 686 -240 q 580 -229 616 -240 q 520 -198 545 -218 q 483 -150 496 -178 q 471 -90 471 -123 q 486 -28 471 -60 q 533 32 500 4 l 512 54 l 486 54 q 466 39 481 50 q 428 16 451 28 q 374 -5 404 4 q 307 -14 343 -14 q 207 3 250 -14 q 134 52 163 20 q 91 128 105 83 q 76 227 76 172 l 76 693 z "},"ą":{"ha":673,"x_min":43,"x_max":672,"o":"m 43 198 q 60 294 43 254 q 107 358 76 333 q 184 396 139 383 q 288 412 229 408 l 439 420 l 439 474 q 432 534 439 511 q 411 572 426 558 q 371 592 396 587 q 310 598 347 598 q 240 590 273 598 q 183 572 208 582 q 130 547 154 561 q 106 587 115 568 q 92 622 97 606 q 84 656 86 640 q 154 684 117 672 q 229 704 186 695 q 318 713 271 713 q 446 699 395 713 q 527 658 497 686 q 569 589 557 631 q 581 490 581 547 l 581 112 l 638 43 l 638 0 l 582 0 q 550 -23 562 -7 q 538 -64 538 -39 q 558 -96 538 -84 q 616 -109 578 -109 q 640 -107 630 -109 q 661 -102 650 -106 q 670 -141 667 -124 q 672 -172 672 -157 q 670 -197 672 -186 q 667 -216 669 -209 q 663 -233 665 -226 q 647 -237 656 -235 q 606 -240 630 -240 q 525 -229 559 -240 q 466 -198 490 -218 q 430 -150 442 -178 q 418 -90 418 -123 q 423 -56 418 -73 q 438 -22 429 -38 q 458 9 447 -5 q 482 35 470 23 l 460 60 l 436 60 q 418 45 433 57 q 381 20 404 33 q 329 -3 358 7 q 268 -14 300 -14 q 176 2 217 -14 q 105 45 134 17 q 59 112 75 73 q 43 198 43 151 m 191 210 q 200 158 191 179 q 225 125 209 138 q 263 109 241 113 q 314 104 286 104 q 362 110 340 104 q 402 125 385 117 q 439 146 422 134 l 439 328 l 302 319 q 249 309 271 317 q 215 286 228 300 q 197 252 202 271 q 191 210 191 233 z "},"ę":{"ha":707,"x_min":52,"x_max":654,"o":"m 52 347 q 76 514 52 444 q 142 627 100 583 q 244 692 185 671 q 375 712 304 712 q 493 691 441 712 q 581 631 545 670 q 635 538 616 593 q 654 416 654 484 q 652 374 654 393 q 648 340 650 354 q 642 309 645 323 l 197 311 q 210 210 197 251 q 246 145 222 170 q 307 111 270 121 q 393 100 343 100 q 470 106 436 100 q 528 119 504 111 q 576 138 555 127 q 592 94 587 114 q 601 58 598 73 q 605 27 604 41 q 572 14 591 20 q 532 2 555 8 q 478 -8 509 -4 q 457 -31 465 -17 q 450 -64 450 -44 q 471 -96 450 -84 q 532 -109 493 -109 q 555 -107 545 -109 q 576 -102 565 -106 q 585 -141 583 -124 q 587 -172 587 -157 q 586 -197 587 -186 q 583 -216 584 -209 q 578 -233 581 -226 q 562 -237 571 -235 q 521 -240 545 -240 q 439 -229 475 -240 q 379 -198 404 -218 q 342 -150 355 -178 q 330 -90 330 -123 q 335 -52 330 -72 q 353 -12 341 -32 q 225 15 281 -7 q 131 80 170 37 q 72 189 92 123 q 52 347 52 254 m 509 410 l 509 433 q 499 508 509 476 q 470 561 488 540 q 427 592 452 582 q 372 603 401 603 q 297 593 330 603 q 242 560 264 583 q 210 500 220 537 q 199 410 199 463 l 509 410 z "},"Ų":{"ha":842,"x_min":79,"x_max":762,"o":"m 79 359 q 79 416 79 380 q 80 495 79 452 q 80 587 80 538 q 81 683 81 635 q 82 921 81 794 l 233 921 l 233 337 q 243 243 233 285 q 276 171 253 201 q 334 125 298 141 q 422 109 370 109 q 511 125 474 109 q 570 171 547 141 q 604 243 593 201 q 614 337 614 285 q 614 385 614 352 q 614 462 614 418 q 613 557 614 506 q 613 659 613 608 q 612 921 612 779 l 762 921 l 762 359 q 736 170 761 248 q 651 46 711 92 q 626 24 637 33 q 607 4 615 14 q 595 -19 600 -6 q 591 -50 591 -31 q 596 -71 591 -60 q 612 -90 602 -81 q 638 -103 623 -98 q 673 -109 653 -109 q 696 -107 686 -109 q 718 -102 706 -106 q 726 -141 724 -124 q 728 -172 728 -157 q 727 -197 728 -186 q 724 -216 725 -209 q 720 -233 722 -226 q 703 -237 712 -235 q 662 -240 686 -240 q 580 -229 616 -240 q 520 -198 545 -218 q 483 -150 496 -178 q 471 -90 471 -123 q 478 -48 471 -68 q 500 -9 485 -28 q 463 -13 483 -12 q 422 -14 444 -14 q 263 11 328 -14 q 157 82 197 35 q 98 199 116 129 q 79 359 79 269 z "},"Į":{"ha":368,"x_min":23,"x_max":281,"o":"m 187 0 q 155 -23 168 -7 q 143 -64 143 -39 q 165 -96 143 -84 q 225 -109 186 -109 q 249 -107 239 -109 q 270 -102 258 -106 q 278 -141 276 -124 q 281 -172 281 -157 q 279 -197 281 -186 q 276 -216 277 -209 q 272 -233 274 -226 q 256 -237 264 -235 q 214 -240 239 -240 q 133 -229 168 -240 q 73 -198 97 -218 q 36 -150 48 -178 q 23 -90 23 -123 q 28 -55 23 -73 q 43 -19 33 -37 q 69 17 53 -1 q 107 48 85 34 l 107 921 l 260 921 l 260 0 l 187 0 z "},"Ę":{"ha":692,"x_min":107,"x_max":648,"o":"m 107 921 l 635 921 q 636 911 635 916 q 637 900 637 906 q 637 888 637 895 q 633 853 637 876 q 614 799 629 829 q 497 803 557 801 q 383 806 446 804 q 261 808 321 808 l 261 530 q 306 530 281 530 q 357 531 330 530 q 411 532 384 532 q 464 534 438 533 q 587 537 524 536 q 587 526 587 532 q 588 513 588 520 q 589 498 589 506 q 588 485 589 495 q 584 463 587 475 q 579 439 582 451 q 572 418 576 427 q 450 419 509 418 q 399 419 425 419 q 348 419 372 419 q 300 420 323 420 q 261 420 278 420 l 261 116 q 387 118 321 116 q 510 122 453 120 q 641 128 576 125 q 642 115 641 122 q 643 102 642 110 q 643 87 643 94 q 641 50 643 73 q 632 0 639 26 l 555 0 q 523 -23 535 -7 q 511 -64 511 -39 q 532 -96 511 -84 q 593 -109 554 -109 q 616 -107 606 -109 q 637 -102 626 -106 q 646 -141 644 -124 q 648 -172 648 -157 q 647 -197 648 -186 q 644 -216 645 -209 q 640 -233 642 -226 q 623 -237 632 -235 q 582 -240 606 -240 q 500 -229 536 -240 q 440 -198 465 -218 q 403 -150 416 -178 q 391 -90 391 -123 q 398 -45 391 -68 q 422 0 406 -22 l 107 0 l 107 921 z "},"Ą":{"ha":760,"x_min":-7,"x_max":770,"o":"m 260 921 l 492 921 l 767 0 l 676 0 q 644 -23 656 -7 q 632 -64 632 -39 q 654 -96 632 -84 q 714 -109 675 -109 q 738 -107 728 -109 q 759 -102 747 -106 q 767 -141 765 -124 q 770 -172 770 -157 q 768 -197 770 -186 q 765 -216 766 -209 q 761 -233 763 -226 q 745 -237 753 -235 q 703 -240 728 -240 q 622 -229 657 -240 q 562 -198 586 -218 q 525 -150 537 -178 q 512 -90 512 -123 q 532 -18 512 -56 q 598 50 553 20 l 529 281 l 231 281 l 151 0 l -7 0 l 260 921 m 497 399 l 373 851 l 261 399 l 497 399 z "},"Đ":{"ha":858,"x_min":38,"x_max":823,"o":"m 38 524 q 111 526 73 525 q 186 527 149 526 q 261 528 224 527 q 331 529 298 528 q 484 532 408 530 q 485 520 484 526 q 486 508 486 515 q 486 493 486 500 q 484 459 486 479 q 475 416 482 439 q 325 417 401 416 q 256 417 292 417 q 183 418 220 418 q 110 418 146 418 q 38 418 73 418 l 38 524 m 114 920 q 191 924 149 922 q 276 926 227 925 q 385 928 326 928 q 572 900 490 928 q 709 814 653 871 q 794 671 765 758 q 823 469 823 585 q 791 266 823 353 q 702 119 760 178 q 562 30 644 60 q 375 0 479 0 l 114 0 l 114 920 m 398 119 q 511 145 461 119 q 595 219 560 172 q 648 330 629 267 q 666 467 666 393 q 648 615 666 551 q 595 723 629 680 q 511 788 560 766 q 398 810 461 810 q 338 809 363 810 q 298 808 313 808 q 267 806 279 806 l 267 119 l 398 119 z "},"Ā":{"ha":760,"x_min":-7,"x_max":767,"o":"m 260 921 l 492 921 l 767 0 l 613 0 l 529 281 l 231 281 l 151 0 l -7 0 l 260 921 m 497 399 l 373 851 l 261 399 l 497 399 m 162 1055 q 153 1108 153 1088 q 155 1134 153 1120 q 163 1162 157 1147 l 600 1162 q 606 1114 606 1135 q 596 1055 606 1087 l 162 1055 l 162 1055 z "},"Ć":{"ha":725,"x_min":35,"x_max":669,"o":"m 35 452 q 62 659 35 568 q 142 811 89 749 q 272 906 195 873 q 450 939 349 939 q 528 933 490 939 q 599 920 567 927 q 669 901 635 911 q 663 864 667 884 q 653 824 660 846 q 634 779 646 802 q 579 796 609 789 q 520 808 553 803 q 450 814 487 814 q 341 789 389 814 q 258 719 292 765 q 205 605 224 672 q 187 452 187 538 q 205 303 187 368 q 258 195 224 239 q 341 130 292 152 q 450 108 389 108 q 522 113 488 108 q 583 125 557 119 q 641 144 614 133 q 654 109 648 128 q 662 70 659 93 q 665 19 666 47 q 597 1 633 8 q 528 -12 566 -7 q 450 -18 490 -18 q 139 101 243 -18 q 35 452 35 219 m 417 1008 q 396 1020 407 1013 q 375 1035 385 1027 q 357 1052 365 1043 q 347 1069 350 1061 l 547 1303 q 578 1288 559 1299 q 614 1263 596 1277 q 647 1235 632 1249 q 666 1211 661 1221 l 417 1008 l 417 1008 z "},"Ĉ":{"ha":725,"x_min":35,"x_max":700,"o":"m 35 452 q 62 659 35 568 q 142 811 89 749 q 272 906 195 873 q 450 939 349 939 q 528 933 490 939 q 599 920 567 927 q 669 901 635 911 q 663 864 667 884 q 653 824 660 846 q 634 779 646 802 q 579 796 609 789 q 520 808 553 803 q 450 814 487 814 q 341 789 389 814 q 258 719 292 765 q 205 605 224 672 q 187 452 187 538 q 205 303 187 368 q 258 195 224 239 q 341 130 292 152 q 450 108 389 108 q 522 113 488 108 q 583 125 557 119 q 641 144 614 133 q 654 109 648 128 q 662 70 659 93 q 665 19 666 47 q 597 1 633 8 q 528 -12 566 -7 q 450 -18 490 -18 q 139 101 243 -18 q 35 452 35 219 m 366 1254 l 545 1254 l 700 1011 l 561 1011 l 452 1160 l 451 1160 q 394 1085 423 1123 q 338 1011 366 1048 l 204 1011 l 366 1254 z "},"Č":{"ha":725,"x_min":35,"x_max":696,"o":"m 35 452 q 62 659 35 568 q 142 811 89 749 q 272 906 195 873 q 450 939 349 939 q 528 933 490 939 q 599 920 567 927 q 669 901 635 911 q 663 864 667 884 q 653 824 660 846 q 634 779 646 802 q 579 796 609 789 q 520 808 553 803 q 450 814 487 814 q 341 789 389 814 q 258 719 292 765 q 205 605 224 672 q 187 452 187 538 q 205 303 187 368 q 258 195 224 239 q 341 130 292 152 q 450 108 389 108 q 522 113 488 108 q 583 125 557 119 q 641 144 614 133 q 654 109 648 128 q 662 70 659 93 q 665 19 666 47 q 597 1 633 8 q 528 -12 566 -7 q 450 -18 490 -18 q 139 101 243 -18 q 35 452 35 219 m 203 1253 l 338 1253 l 447 1106 l 459 1106 l 559 1253 l 696 1253 l 537 1012 l 357 1012 l 203 1253 z "},"Ċ":{"ha":725,"x_min":35,"x_max":669,"o":"m 35 452 q 62 659 35 568 q 142 811 89 749 q 272 906 195 873 q 450 939 349 939 q 528 933 490 939 q 599 920 567 927 q 669 901 635 911 q 663 864 667 884 q 653 824 660 846 q 634 779 646 802 q 579 796 609 789 q 520 808 553 803 q 450 814 487 814 q 341 789 389 814 q 258 719 292 765 q 205 605 224 672 q 187 452 187 538 q 205 303 187 368 q 258 195 224 239 q 341 130 292 152 q 450 108 389 108 q 522 113 488 108 q 583 125 557 119 q 641 144 614 133 q 654 109 648 128 q 662 70 659 93 q 665 19 666 47 q 597 1 633 8 q 528 -12 566 -7 q 450 -18 490 -18 q 139 101 243 -18 q 35 452 35 219 m 450 1012 q 415 1019 431 1012 q 386 1037 398 1025 q 366 1064 373 1048 q 358 1097 358 1080 q 366 1131 358 1115 q 386 1158 373 1146 q 415 1176 398 1169 q 450 1183 431 1183 q 486 1176 469 1183 q 516 1158 503 1169 q 536 1131 529 1146 q 544 1097 544 1115 q 536 1064 544 1080 q 516 1037 529 1048 q 486 1019 503 1025 q 450 1012 469 1012 z "},"Ď":{"ha":851,"x_min":107,"x_max":816,"o":"m 107 920 q 184 924 142 922 q 270 926 220 925 q 378 928 319 928 q 565 900 484 928 q 702 814 646 871 q 787 671 758 758 q 816 469 816 585 q 785 266 816 353 q 695 119 753 178 q 555 30 637 60 q 368 0 472 0 l 107 0 l 107 920 m 391 119 q 504 145 454 119 q 588 219 553 172 q 641 330 623 267 q 659 467 659 393 q 641 615 659 551 q 588 723 623 680 q 504 788 553 766 q 391 810 454 810 q 332 809 357 810 q 291 808 307 808 q 260 806 273 806 l 260 119 l 391 119 m 200 1253 l 336 1253 l 444 1106 l 456 1106 l 556 1253 l 693 1253 l 534 1012 l 354 1012 l 200 1253 z "},"Ě":{"ha":691,"x_min":107,"x_max":643,"o":"m 107 921 l 635 921 q 636 911 635 916 q 637 900 637 906 q 637 888 637 895 q 633 853 637 876 q 614 799 629 829 q 497 803 557 801 q 383 806 446 804 q 261 808 321 808 l 261 530 q 306 530 281 530 q 357 531 330 530 q 411 532 384 532 q 464 534 438 533 q 587 537 524 536 q 587 526 587 532 q 588 513 588 520 q 589 498 589 506 q 588 485 589 495 q 584 463 587 475 q 579 439 582 451 q 572 418 576 427 q 450 419 509 418 q 399 419 425 419 q 348 419 372 419 q 300 420 323 420 q 261 420 278 420 l 261 116 q 387 118 321 116 q 510 122 453 120 q 641 128 576 125 q 642 115 641 122 q 643 102 642 110 q 643 87 643 94 q 641 50 643 73 q 632 0 639 26 l 107 0 l 107 921 m 129 1253 l 264 1253 l 373 1106 l 385 1106 l 485 1253 l 622 1253 l 463 1012 l 283 1012 l 129 1253 z "},"Ē":{"ha":691,"x_min":107,"x_max":643,"o":"m 107 921 l 635 921 q 636 911 635 916 q 637 900 637 906 q 637 888 637 895 q 633 853 637 876 q 614 799 629 829 q 497 803 557 801 q 383 806 446 804 q 261 808 321 808 l 261 530 q 306 530 281 530 q 357 531 330 530 q 411 532 384 532 q 464 534 438 533 q 587 537 524 536 q 587 526 587 532 q 588 513 588 520 q 589 498 589 506 q 588 485 589 495 q 584 463 587 475 q 579 439 582 451 q 572 418 576 427 q 450 419 509 418 q 399 419 425 419 q 348 419 372 419 q 300 420 323 420 q 261 420 278 420 l 261 116 q 387 118 321 116 q 510 122 453 120 q 641 128 576 125 q 642 115 641 122 q 643 102 642 110 q 643 87 643 94 q 641 50 643 73 q 632 0 639 26 l 107 0 l 107 921 m 157 1055 q 149 1108 149 1088 q 151 1134 149 1120 q 158 1162 153 1147 l 595 1162 q 602 1114 602 1135 q 591 1055 602 1087 l 157 1055 l 157 1055 z "},"Ė":{"ha":691,"x_min":107,"x_max":643,"o":"m 107 921 l 635 921 q 636 911 635 916 q 637 900 637 906 q 637 888 637 895 q 633 853 637 876 q 614 799 629 829 q 497 803 557 801 q 383 806 446 804 q 261 808 321 808 l 261 530 q 306 530 281 530 q 357 531 330 530 q 411 532 384 532 q 464 534 438 533 q 587 537 524 536 q 587 526 587 532 q 588 513 588 520 q 589 498 589 506 q 588 485 589 495 q 584 463 587 475 q 579 439 582 451 q 572 418 576 427 q 450 419 509 418 q 399 419 425 419 q 348 419 372 419 q 300 420 323 420 q 261 420 278 420 l 261 116 q 387 118 321 116 q 510 122 453 120 q 641 128 576 125 q 642 115 641 122 q 643 102 642 110 q 643 87 643 94 q 641 50 643 73 q 632 0 639 26 l 107 0 l 107 921 m 376 1012 q 341 1019 357 1012 q 312 1037 324 1025 q 292 1064 299 1048 q 284 1097 284 1080 q 292 1131 284 1115 q 312 1158 299 1146 q 341 1176 324 1169 q 376 1183 357 1183 q 412 1176 395 1183 q 442 1158 429 1169 q 463 1131 455 1146 q 470 1097 470 1115 q 463 1064 470 1080 q 442 1037 455 1048 q 412 1019 429 1025 q 376 1012 395 1012 z "},"Ĝ":{"ha":781,"x_min":36,"x_max":712,"o":"m 36 452 q 64 659 36 568 q 147 811 92 749 q 281 906 201 873 q 465 939 361 939 q 545 933 504 939 q 620 920 586 927 q 696 901 659 911 q 690 865 694 884 q 680 828 687 849 q 662 783 673 806 q 601 800 633 793 q 537 812 573 807 q 465 818 502 818 q 351 792 401 818 q 266 719 300 766 q 212 603 231 671 q 193 452 193 536 q 211 304 193 370 q 263 195 229 239 q 348 126 298 150 q 465 102 399 102 q 489 102 475 102 q 516 103 503 102 q 543 104 530 104 q 566 106 555 104 q 565 153 566 127 q 564 204 564 178 q 562 256 563 230 q 560 305 561 281 q 555 417 557 361 q 600 426 580 424 q 634 428 620 428 q 662 426 648 428 q 688 422 676 424 q 712 416 701 419 q 711 263 712 336 q 709 132 710 189 q 705 7 707 65 l 692 -1 q 618 -9 656 -6 q 545 -15 586 -13 q 465 -18 505 -18 q 281 12 361 -18 q 147 101 201 42 q 64 249 92 161 q 36 452 36 336 m 315 1245 l 495 1245 l 650 1002 l 511 1002 l 401 1151 l 401 1151 q 344 1077 373 1114 q 288 1002 315 1039 l 154 1002 l 315 1245 z "},"Ğ":{"ha":781,"x_min":36,"x_max":712,"o":"m 36 452 q 64 659 36 568 q 147 811 92 749 q 281 906 201 873 q 465 939 361 939 q 545 933 504 939 q 620 920 586 927 q 696 901 659 911 q 690 865 694 884 q 680 828 687 849 q 662 783 673 806 q 601 800 633 793 q 537 812 573 807 q 465 818 502 818 q 351 792 401 818 q 266 719 300 766 q 212 603 231 671 q 193 452 193 536 q 211 304 193 370 q 263 195 229 239 q 348 126 298 150 q 465 102 399 102 q 489 102 475 102 q 516 103 503 102 q 543 104 530 104 q 566 106 555 104 q 565 153 566 127 q 564 204 564 178 q 562 256 563 230 q 560 305 561 281 q 555 417 557 361 q 600 426 580 424 q 634 428 620 428 q 662 426 648 428 q 688 422 676 424 q 712 416 701 419 q 711 263 712 336 q 709 132 710 189 q 705 7 707 65 l 692 -1 q 618 -9 656 -6 q 545 -15 586 -13 q 465 -18 505 -18 q 281 12 361 -18 q 147 101 201 42 q 64 249 92 161 q 36 452 36 336 m 401 1000 q 315 1014 357 1000 q 240 1055 273 1027 q 188 1129 208 1084 q 168 1237 168 1174 q 202 1249 186 1245 q 229 1253 218 1253 q 256 1249 240 1253 q 292 1238 272 1246 q 321 1151 292 1183 q 401 1118 350 1118 q 481 1151 452 1118 q 511 1238 511 1183 q 547 1249 531 1246 q 574 1253 562 1253 q 600 1249 584 1253 q 634 1236 616 1246 q 614 1128 634 1173 q 563 1055 595 1084 q 488 1014 530 1027 q 401 1000 446 1000 z "},"Ģ":{"ha":781,"x_min":36,"x_max":712,"o":"m 36 452 q 64 659 36 568 q 147 811 92 749 q 281 906 201 873 q 465 939 361 939 q 545 933 504 939 q 620 920 586 927 q 696 901 659 911 q 690 865 694 884 q 680 828 687 849 q 662 783 673 806 q 601 800 633 793 q 537 812 573 807 q 465 818 502 818 q 351 792 401 818 q 266 719 300 766 q 212 603 231 671 q 193 452 193 536 q 211 304 193 370 q 263 195 229 239 q 348 126 298 150 q 465 102 399 102 q 489 102 475 102 q 516 103 503 102 q 543 104 530 104 q 566 106 555 104 q 565 153 566 127 q 564 204 564 178 q 562 256 563 230 q 560 305 561 281 q 555 417 557 361 q 600 426 580 424 q 634 428 620 428 q 662 426 648 428 q 688 422 676 424 q 712 416 701 419 q 711 263 712 336 q 709 132 710 189 q 705 7 707 65 l 692 -1 q 618 -9 656 -6 q 545 -15 586 -13 q 465 -18 505 -18 q 281 12 361 -18 q 147 101 201 42 q 64 249 92 161 q 36 452 36 336 m 309 -72 q 318 -72 309 -72 q 339 -73 326 -72 q 369 -77 353 -74 q 402 -86 386 -80 q 434 -101 419 -92 q 460 -123 450 -110 q 431 -221 452 -180 q 388 -290 410 -262 q 331 -344 361 -322 q 289 -338 309 -342 q 254 -328 272 -335 q 227 -307 237 -321 l 228 -296 q 266 -236 248 -270 q 293 -165 280 -207 q 309 -72 306 -124 z "},"Ġ":{"ha":781,"x_min":36,"x_max":712,"o":"m 36 452 q 64 659 36 568 q 147 811 92 749 q 281 906 201 873 q 465 939 361 939 q 545 933 504 939 q 620 920 586 927 q 696 901 659 911 q 690 865 694 884 q 680 828 687 849 q 662 783 673 806 q 601 800 633 793 q 537 812 573 807 q 465 818 502 818 q 351 792 401 818 q 266 719 300 766 q 212 603 231 671 q 193 452 193 536 q 211 304 193 370 q 263 195 229 239 q 348 126 298 150 q 465 102 399 102 q 489 102 475 102 q 516 103 503 102 q 543 104 530 104 q 566 106 555 104 q 565 153 566 127 q 564 204 564 178 q 562 256 563 230 q 560 305 561 281 q 555 417 557 361 q 600 426 580 424 q 634 428 620 428 q 662 426 648 428 q 688 422 676 424 q 712 416 701 419 q 711 263 712 336 q 709 132 710 189 q 705 7 707 65 l 692 -1 q 618 -9 656 -6 q 545 -15 586 -13 q 465 -18 505 -18 q 281 12 361 -18 q 147 101 201 42 q 64 249 92 161 q 36 452 36 336 m 400 1003 q 365 1010 381 1003 q 335 1028 348 1017 q 315 1055 323 1040 q 308 1088 308 1071 q 315 1122 308 1106 q 335 1149 323 1137 q 365 1167 348 1160 q 400 1174 381 1174 q 436 1167 419 1174 q 466 1149 453 1160 q 486 1122 479 1137 q 494 1088 494 1106 q 486 1055 494 1071 q 466 1028 479 1040 q 436 1010 453 1017 q 400 1003 419 1003 z "},"Ĥ":{"ha":881,"x_min":107,"x_max":774,"o":"m 107 921 l 261 921 l 261 530 l 621 530 l 621 921 l 774 921 l 774 0 l 621 0 l 621 412 l 261 412 l 261 0 l 107 0 l 107 921 m 357 1254 l 537 1254 l 692 1011 l 553 1011 l 444 1160 l 443 1160 q 386 1085 415 1123 q 330 1011 357 1048 l 196 1011 l 357 1254 z "},"Ī":{"ha":368,"x_min":-45,"x_max":408,"o":"m 107 921 l 260 921 l 260 0 l 107 0 l 107 921 m -37 1055 q -45 1108 -45 1088 q -43 1134 -45 1120 q -36 1162 -41 1147 l 401 1162 q 408 1114 408 1135 q 397 1055 408 1087 l -37 1055 l -37 1055 z "},"İ":{"ha":368,"x_min":90,"x_max":276,"o":"m 107 921 l 260 921 l 260 0 l 107 0 l 107 921 m 182 1012 q 147 1019 163 1012 q 118 1037 130 1025 q 98 1064 105 1048 q 90 1097 90 1080 q 98 1131 90 1115 q 118 1158 105 1146 q 147 1176 130 1169 q 182 1183 163 1183 q 218 1176 201 1183 q 248 1158 235 1169 q 269 1131 261 1146 q 276 1097 276 1115 q 269 1064 276 1080 q 248 1037 261 1048 q 218 1019 235 1025 q 182 1012 201 1012 z "},"Ķ":{"ha":765,"x_min":107,"x_max":768,"o":"m 107 921 l 261 921 l 261 517 l 275 517 l 564 921 l 749 921 l 400 471 l 768 0 l 579 0 l 269 425 l 261 425 l 261 0 l 107 0 l 107 921 m 386 -72 q 395 -72 387 -72 q 417 -73 404 -72 q 447 -77 430 -74 q 480 -86 463 -80 q 512 -101 496 -92 q 538 -123 527 -110 q 509 -221 530 -180 q 465 -290 488 -262 q 408 -344 439 -322 q 366 -338 386 -342 q 332 -328 349 -335 q 304 -307 314 -321 l 305 -296 q 343 -236 326 -270 q 370 -165 357 -207 q 386 -72 383 -124 z "},"Ļ":{"ha":673,"x_min":107,"x_max":621,"o":"m 107 921 l 261 921 l 261 127 q 320 128 290 127 q 382 130 351 129 q 443 131 413 130 q 498 134 472 132 q 621 139 561 136 q 617 104 621 127 q 610 58 614 81 q 603 17 606 35 q 597 0 599 0 l 107 0 l 107 921 m 323 -72 q 333 -72 324 -72 q 354 -73 341 -72 q 384 -77 368 -74 q 417 -86 401 -80 q 449 -101 434 -92 q 475 -123 465 -110 q 446 -221 467 -180 q 403 -290 425 -262 q 346 -344 376 -322 q 304 -338 323 -342 q 269 -328 287 -335 q 242 -307 252 -321 l 243 -296 q 281 -236 263 -270 q 308 -165 295 -207 q 323 -72 321 -124 z "},"Ň":{"ha":916,"x_min":107,"x_max":809,"o":"m 107 921 l 351 921 l 583 346 l 676 84 l 667 346 l 663 921 l 809 921 l 809 0 l 572 0 l 334 576 l 241 842 l 250 576 l 254 0 l 107 0 l 107 921 m 212 1253 l 348 1253 l 456 1106 l 469 1106 l 568 1253 l 705 1253 l 547 1012 l 366 1012 l 212 1253 z "},"Ņ":{"ha":916,"x_min":107,"x_max":809,"o":"m 107 921 l 351 921 l 583 346 l 676 84 l 667 346 l 663 921 l 809 921 l 809 0 l 572 0 l 334 576 l 241 842 l 250 576 l 254 0 l 107 0 l 107 921 m 400 -72 q 409 -72 401 -72 q 431 -73 418 -72 q 461 -77 444 -74 q 494 -86 477 -80 q 526 -101 511 -92 q 552 -123 541 -110 q 523 -221 544 -180 q 479 -290 502 -262 q 422 -344 453 -322 q 380 -338 400 -342 q 346 -328 363 -335 q 319 -307 328 -321 l 319 -296 q 357 -236 340 -270 q 385 -165 372 -207 q 400 -72 397 -124 z "},"Ō":{"ha":875,"x_min":56,"x_max":819,"o":"m 440 -18 q 266 15 338 -18 q 146 110 193 48 q 78 261 100 172 q 56 460 56 349 q 79 661 56 572 q 149 811 102 749 q 269 906 196 873 q 440 939 341 939 q 616 908 544 939 q 733 817 688 877 q 798 671 778 758 q 819 473 819 585 q 797 271 819 361 q 729 116 775 180 q 611 17 683 52 q 440 -18 540 -18 m 440 101 q 548 128 505 101 q 617 204 591 155 q 654 322 643 254 q 665 473 665 391 q 654 628 665 562 q 617 736 643 693 q 548 800 591 779 q 440 821 505 821 q 331 797 376 821 q 260 727 287 773 q 221 613 233 680 q 209 460 209 546 q 221 308 209 375 q 260 195 233 241 q 331 125 287 149 q 440 101 376 101 m 220 1055 q 211 1108 211 1088 q 213 1134 211 1120 q 220 1162 215 1147 l 658 1162 q 664 1114 664 1135 q 654 1055 664 1087 l 220 1055 l 220 1055 z "},"Ś":{"ha":733,"x_min":73,"x_max":661,"o":"m 73 33 q 77 68 74 49 q 86 107 81 85 q 104 157 92 130 q 178 135 140 144 q 250 120 211 127 q 323 113 288 113 q 413 121 377 113 q 472 145 450 130 q 503 185 494 161 q 513 241 513 210 q 503 302 513 277 q 473 346 493 328 q 422 377 453 364 q 348 402 391 390 q 222 447 273 422 q 138 502 170 471 q 92 573 106 533 q 77 663 77 612 q 100 789 77 736 q 164 874 123 841 q 266 923 206 907 q 398 939 325 939 q 497 930 454 939 q 568 911 539 921 q 627 883 602 899 q 619 849 625 867 q 604 812 614 833 q 578 767 595 791 q 530 791 557 781 q 473 809 507 801 q 395 817 439 817 q 314 809 347 817 q 260 786 281 802 q 230 746 239 770 q 221 688 221 722 q 231 626 221 651 q 261 584 240 602 q 316 554 282 567 q 397 528 349 541 q 518 486 468 508 q 600 433 568 463 q 646 362 631 404 q 661 264 661 321 q 642 140 661 193 q 584 52 624 87 q 481 0 544 17 q 329 -18 418 -18 q 229 -10 276 -18 q 148 7 182 -2 q 73 33 106 19 m 334 1008 q 313 1020 324 1013 q 292 1035 302 1027 q 275 1052 282 1043 q 264 1069 267 1061 l 465 1303 q 495 1288 477 1299 q 531 1263 513 1277 q 564 1235 549 1249 q 583 1211 578 1221 l 334 1008 l 334 1008 z "},"Ŝ":{"ha":733,"x_min":73,"x_max":661,"o":"m 73 33 q 77 68 74 49 q 86 107 81 85 q 104 157 92 130 q 178 135 140 144 q 250 120 211 127 q 323 113 288 113 q 413 121 377 113 q 472 145 450 130 q 503 185 494 161 q 513 241 513 210 q 503 302 513 277 q 473 346 493 328 q 422 377 453 364 q 348 402 391 390 q 222 447 273 422 q 138 502 170 471 q 92 573 106 533 q 77 663 77 612 q 100 789 77 736 q 164 874 123 841 q 266 923 206 907 q 398 939 325 939 q 497 930 454 939 q 568 911 539 921 q 627 883 602 899 q 619 849 625 867 q 604 812 614 833 q 578 767 595 791 q 530 791 557 781 q 473 809 507 801 q 395 817 439 817 q 314 809 347 817 q 260 786 281 802 q 230 746 239 770 q 221 688 221 722 q 231 626 221 651 q 261 584 240 602 q 316 554 282 567 q 397 528 349 541 q 518 486 468 508 q 600 433 568 463 q 646 362 631 404 q 661 264 661 321 q 642 140 661 193 q 584 52 624 87 q 481 0 544 17 q 329 -18 418 -18 q 229 -10 276 -18 q 148 7 182 -2 q 73 33 106 19 m 283 1254 l 463 1254 l 617 1011 l 478 1011 l 369 1160 l 368 1160 q 312 1085 340 1123 q 255 1011 283 1048 l 121 1011 l 283 1254 z "},"Š":{"ha":733,"x_min":73,"x_max":661,"o":"m 73 33 q 77 68 74 49 q 86 107 81 85 q 104 157 92 130 q 178 135 140 144 q 250 120 211 127 q 323 113 288 113 q 413 121 377 113 q 472 145 450 130 q 503 185 494 161 q 513 241 513 210 q 503 302 513 277 q 473 346 493 328 q 422 377 453 364 q 348 402 391 390 q 222 447 273 422 q 138 502 170 471 q 92 573 106 533 q 77 663 77 612 q 100 789 77 736 q 164 874 123 841 q 266 923 206 907 q 398 939 325 939 q 497 930 454 939 q 568 911 539 921 q 627 883 602 899 q 619 849 625 867 q 604 812 614 833 q 578 767 595 791 q 530 791 557 781 q 473 809 507 801 q 395 817 439 817 q 314 809 347 817 q 260 786 281 802 q 230 746 239 770 q 221 688 221 722 q 231 626 221 651 q 261 584 240 602 q 316 554 282 567 q 397 528 349 541 q 518 486 468 508 q 600 433 568 463 q 646 362 631 404 q 661 264 661 321 q 642 140 661 193 q 584 52 624 87 q 481 0 544 17 q 329 -18 418 -18 q 229 -10 276 -18 q 148 7 182 -2 q 73 33 106 19 m 120 1253 l 256 1253 l 364 1106 l 376 1106 l 476 1253 l 613 1253 l 454 1012 l 274 1012 l 120 1253 z "},"Ş":{"ha":733,"x_min":73,"x_max":661,"o":"m 73 33 q 77 68 74 49 q 86 107 81 85 q 104 157 92 130 q 178 135 140 144 q 250 120 211 127 q 323 113 288 113 q 413 121 377 113 q 472 145 450 130 q 503 185 494 161 q 513 241 513 210 q 503 302 513 277 q 473 346 493 328 q 422 377 453 364 q 348 402 391 390 q 222 447 273 422 q 138 502 170 471 q 92 573 106 533 q 77 663 77 612 q 100 789 77 736 q 164 874 123 841 q 266 923 206 907 q 398 939 325 939 q 497 930 454 939 q 568 911 539 921 q 627 883 602 899 q 619 849 625 867 q 604 812 614 833 q 578 767 595 791 q 530 791 557 781 q 473 809 507 801 q 395 817 439 817 q 314 809 347 817 q 260 786 281 802 q 230 746 239 770 q 221 688 221 722 q 231 626 221 651 q 261 584 240 602 q 316 554 282 567 q 397 528 349 541 q 518 486 468 508 q 600 433 568 463 q 646 362 631 404 q 661 264 661 321 q 607 76 661 144 q 432 -10 553 8 q 442 -58 437 -31 q 447 -113 447 -85 q 434 -182 447 -149 q 397 -240 422 -215 q 337 -280 373 -265 q 256 -294 302 -294 q 216 -291 233 -294 q 200 -287 207 -289 q 195 -267 197 -278 q 192 -246 193 -258 q 191 -220 191 -234 q 193 -187 191 -205 q 201 -148 195 -170 q 229 -154 217 -151 q 246 -157 241 -157 q 279 -150 265 -157 q 302 -133 293 -144 q 316 -109 311 -123 q 320 -79 320 -94 q 318 -47 320 -64 q 315 -18 317 -31 q 220 -8 264 -16 q 143 9 176 -1 q 73 33 104 20 z "},"Ť":{"ha":653,"x_min":19,"x_max":634,"o":"m 245 807 q 154 806 195 806 q 83 804 113 805 q 23 801 50 802 q 21 817 22 809 q 19 852 19 831 q 21 882 19 865 q 27 921 22 899 l 631 921 q 632 907 631 914 q 633 893 633 901 q 634 878 634 885 q 632 842 634 864 q 623 802 629 821 q 595 803 618 802 q 541 805 572 804 q 471 806 509 806 q 399 807 434 807 l 399 0 l 245 0 l 245 807 m 80 1253 l 216 1253 l 324 1106 l 336 1106 l 436 1253 l 573 1253 l 414 1012 l 234 1012 l 80 1253 z "},"Ũ":{"ha":842,"x_min":79,"x_max":762,"o":"m 79 359 q 79 416 79 380 q 80 495 79 452 q 80 587 80 538 q 81 683 81 635 q 82 921 81 794 l 233 921 l 233 337 q 243 243 233 285 q 276 171 253 201 q 334 125 298 141 q 422 109 370 109 q 511 125 474 109 q 570 171 547 141 q 604 243 593 201 q 614 337 614 285 q 614 385 614 352 q 614 462 614 418 q 613 557 614 506 q 613 659 613 608 q 612 921 612 779 l 762 921 l 762 359 q 744 197 762 267 q 688 81 727 127 q 583 10 648 34 q 422 -14 518 -14 q 263 11 328 -14 q 157 82 197 35 q 98 199 116 129 q 79 359 79 269 m 262 1042 q 227 1067 241 1054 q 203 1092 213 1080 q 186 1118 193 1105 q 233 1168 206 1145 q 285 1202 254 1187 q 352 1218 315 1218 q 405 1205 382 1218 q 447 1177 427 1192 q 477 1156 463 1165 q 507 1146 492 1146 q 534 1155 521 1146 q 558 1175 548 1164 q 581 1203 570 1187 q 618 1177 603 1190 q 642 1153 633 1164 q 659 1128 653 1141 q 611 1078 637 1101 q 558 1044 589 1059 q 491 1029 528 1029 q 438 1042 460 1029 q 396 1069 416 1055 q 365 1091 380 1082 q 336 1100 350 1100 q 309 1091 322 1100 q 285 1071 295 1082 q 262 1042 273 1059 z "},"Ū":{"ha":842,"x_min":79,"x_max":762,"o":"m 79 359 q 79 416 79 380 q 80 495 79 452 q 80 587 80 538 q 81 683 81 635 q 82 921 81 794 l 233 921 l 233 337 q 243 243 233 285 q 276 171 253 201 q 334 125 298 141 q 422 109 370 109 q 511 125 474 109 q 570 171 547 141 q 604 243 593 201 q 614 337 614 285 q 614 385 614 352 q 614 462 614 418 q 613 557 614 506 q 613 659 613 608 q 612 921 612 779 l 762 921 l 762 359 q 744 197 762 267 q 688 81 727 127 q 583 10 648 34 q 422 -14 518 -14 q 263 11 328 -14 q 157 82 197 35 q 98 199 116 129 q 79 359 79 269 m 203 1055 q 194 1108 194 1088 q 196 1134 194 1120 q 203 1162 198 1147 l 641 1162 q 647 1114 647 1135 q 637 1055 647 1087 l 203 1055 l 203 1055 z "},"Ů":{"ha":842,"x_min":79,"x_max":762,"o":"m 79 359 q 79 416 79 380 q 80 495 79 452 q 80 587 80 538 q 81 683 81 635 q 82 921 81 794 l 233 921 l 233 337 q 243 243 233 285 q 276 171 253 201 q 334 125 298 141 q 422 109 370 109 q 511 125 474 109 q 570 171 547 141 q 604 243 593 201 q 614 337 614 285 q 614 385 614 352 q 614 462 614 418 q 613 557 614 506 q 613 659 613 608 q 612 921 612 779 l 762 921 l 762 359 q 744 197 762 267 q 688 81 727 127 q 583 10 648 34 q 422 -14 518 -14 q 263 11 328 -14 q 157 82 197 35 q 98 199 116 129 q 79 359 79 269 m 422 984 q 269 1029 321 984 q 218 1156 218 1075 q 269 1283 218 1237 q 422 1329 321 1329 q 509 1317 471 1329 q 574 1283 548 1305 q 615 1231 601 1261 q 629 1161 629 1200 q 575 1030 629 1076 q 422 984 521 984 m 422 1075 q 459 1082 444 1075 q 485 1101 475 1089 q 499 1128 494 1113 q 503 1162 503 1144 q 485 1219 503 1198 q 422 1240 466 1240 q 359 1217 381 1240 q 338 1156 338 1193 q 359 1097 338 1118 q 422 1075 381 1075 z "},"Ű":{"ha":842,"x_min":79,"x_max":763,"o":"m 79 359 q 79 416 79 380 q 80 495 79 452 q 80 587 80 538 q 81 683 81 635 q 82 921 81 794 l 233 921 l 233 337 q 243 243 233 285 q 276 171 253 201 q 334 125 298 141 q 422 109 370 109 q 511 125 474 109 q 570 171 547 141 q 604 243 593 201 q 614 337 614 285 q 614 385 614 352 q 614 462 614 418 q 613 557 614 506 q 613 659 613 608 q 612 921 612 779 l 762 921 l 762 359 q 744 197 762 267 q 688 81 727 127 q 583 10 648 34 q 422 -14 518 -14 q 263 11 328 -14 q 157 82 197 35 q 98 199 116 129 q 79 359 79 269 m 278 1008 q 256 1019 267 1012 q 235 1035 245 1026 q 217 1052 224 1043 q 205 1069 209 1061 l 372 1304 q 402 1290 385 1300 q 436 1267 419 1280 q 467 1240 453 1254 q 485 1217 480 1227 l 278 1008 m 556 1008 q 534 1019 545 1012 q 512 1035 522 1026 q 494 1052 502 1043 q 483 1069 486 1061 l 650 1304 q 680 1290 663 1300 q 714 1267 697 1280 q 744 1240 730 1254 q 763 1217 758 1227 l 556 1008 z "},"Ő":{"ha":875,"x_min":56,"x_max":819,"o":"m 440 -18 q 266 15 338 -18 q 146 110 193 48 q 78 261 100 172 q 56 460 56 349 q 79 661 56 572 q 149 811 102 749 q 269 906 196 873 q 440 939 341 939 q 616 908 544 939 q 733 817 688 877 q 798 671 778 758 q 819 473 819 585 q 797 271 819 361 q 729 116 775 180 q 611 17 683 52 q 440 -18 540 -18 m 440 101 q 548 128 505 101 q 617 204 591 155 q 654 322 643 254 q 665 473 665 391 q 654 628 665 562 q 617 736 643 693 q 548 800 591 779 q 440 821 505 821 q 331 797 376 821 q 260 727 287 773 q 221 613 233 680 q 209 460 209 546 q 221 308 209 375 q 260 195 233 241 q 331 125 287 149 q 440 101 376 101 m 295 1008 q 273 1019 284 1012 q 252 1035 262 1026 q 234 1052 241 1043 q 222 1069 226 1061 l 389 1304 q 419 1290 401 1300 q 453 1267 436 1280 q 484 1240 470 1254 q 502 1217 497 1227 l 295 1008 m 573 1008 q 551 1019 562 1012 q 529 1035 539 1026 q 511 1052 519 1043 q 500 1069 503 1061 l 667 1304 q 697 1290 680 1300 q 731 1267 714 1280 q 761 1240 747 1254 q 780 1217 774 1227 l 573 1008 z "},"Ẁ":{"ha":1177,"x_min":-14,"x_max":1190,"o":"m -14 921 l 145 921 l 317 130 l 498 921 l 688 921 l 865 127 l 1038 921 l 1190 921 l 973 0 l 763 0 l 613 665 l 589 836 l 564 665 l 413 0 l 202 0 l -14 921 m 379 1211 q 398 1235 384 1221 q 431 1263 413 1249 q 467 1288 449 1277 q 498 1303 486 1299 l 699 1069 q 688 1052 695 1061 q 670 1035 680 1043 q 649 1020 661 1027 q 628 1008 638 1013 l 379 1211 z "},"Ẃ":{"ha":1177,"x_min":-14,"x_max":1190,"o":"m -14 921 l 145 921 l 317 130 l 498 921 l 688 921 l 865 127 l 1038 921 l 1190 921 l 973 0 l 763 0 l 613 665 l 589 836 l 564 665 l 413 0 l 202 0 l -14 921 m 559 1008 q 538 1020 549 1013 q 517 1035 527 1027 q 500 1052 507 1043 q 489 1069 492 1061 l 690 1303 q 720 1288 702 1299 q 756 1263 739 1277 q 789 1235 774 1249 q 808 1211 804 1221 l 559 1008 l 559 1008 z "},"Ŵ":{"ha":1177,"x_min":-14,"x_max":1190,"o":"m -14 921 l 145 921 l 317 130 l 498 921 l 688 921 l 865 127 l 1038 921 l 1190 921 l 973 0 l 763 0 l 613 665 l 589 836 l 564 665 l 413 0 l 202 0 l -14 921 m 508 1254 l 688 1254 l 842 1011 l 703 1011 l 594 1160 l 593 1160 q 537 1085 566 1123 q 480 1011 508 1048 l 347 1011 l 508 1254 z "},"Ẅ":{"ha":1177,"x_min":-14,"x_max":1190,"o":"m -14 921 l 145 921 l 317 130 l 498 921 l 688 921 l 865 127 l 1038 921 l 1190 921 l 973 0 l 763 0 l 613 665 l 589 836 l 564 665 l 413 0 l 202 0 l -14 921 m 448 1010 q 412 1017 429 1010 q 383 1036 395 1024 q 363 1063 370 1047 q 356 1096 356 1078 q 363 1129 356 1114 q 383 1156 370 1145 q 412 1175 395 1168 q 448 1181 429 1181 q 484 1175 467 1181 q 514 1156 501 1168 q 534 1129 526 1145 q 541 1096 541 1114 q 534 1063 541 1078 q 514 1036 526 1047 q 484 1017 501 1024 q 448 1010 467 1010 m 738 1010 q 702 1017 719 1010 q 672 1036 685 1024 q 653 1063 660 1047 q 646 1096 646 1078 q 653 1129 646 1114 q 672 1156 660 1145 q 702 1175 685 1168 q 738 1181 719 1181 q 774 1175 757 1181 q 803 1156 791 1168 q 823 1129 816 1145 q 831 1096 831 1114 q 823 1063 831 1078 q 803 1036 816 1047 q 774 1017 791 1024 q 738 1010 757 1010 z "},"Ỳ":{"ha":679,"x_min":-14,"x_max":692,"o":"m 263 346 l -14 921 l 152 921 l 299 576 l 338 457 l 378 576 l 527 921 l 692 921 l 417 346 l 417 0 l 263 0 l 263 346 m 126 1211 q 145 1235 131 1221 q 178 1263 160 1249 q 214 1288 196 1277 q 245 1303 233 1299 l 446 1069 q 435 1052 442 1061 q 417 1035 427 1043 q 396 1020 408 1027 q 375 1008 385 1013 l 126 1211 z "},"Ŷ":{"ha":679,"x_min":-14,"x_max":692,"o":"m 263 346 l -14 921 l 152 921 l 299 576 l 338 457 l 378 576 l 527 921 l 692 921 l 417 346 l 417 0 l 263 0 l 263 346 m 255 1254 l 435 1254 l 589 1011 l 450 1011 l 341 1160 l 340 1160 q 284 1085 313 1123 q 227 1011 255 1048 l 94 1011 l 255 1254 z "},"Ÿ":{"ha":679,"x_min":-14,"x_max":692,"o":"m 263 346 l -14 921 l 152 921 l 299 576 l 338 457 l 378 576 l 527 921 l 692 921 l 417 346 l 417 0 l 263 0 l 263 346 m 195 1010 q 159 1017 176 1010 q 130 1036 142 1024 q 110 1063 117 1047 q 103 1096 103 1078 q 110 1129 103 1114 q 130 1156 117 1145 q 159 1175 142 1168 q 195 1181 176 1181 q 231 1175 214 1181 q 261 1156 248 1168 q 281 1129 273 1145 q 288 1096 288 1114 q 281 1063 288 1078 q 261 1036 273 1047 q 231 1017 248 1024 q 195 1010 214 1010 m 485 1010 q 449 1017 466 1010 q 419 1036 432 1024 q 400 1063 407 1047 q 393 1096 393 1078 q 400 1129 393 1114 q 419 1156 407 1145 q 449 1175 432 1168 q 485 1181 466 1181 q 521 1175 504 1181 q 550 1156 538 1168 q 570 1129 563 1145 q 578 1096 578 1114 q 570 1063 578 1078 q 550 1036 563 1047 q 521 1017 538 1024 q 485 1010 504 1010 z "},"Ź":{"ha":712,"x_min":28,"x_max":663,"o":"m 28 111 l 430 718 l 505 803 q 348 802 422 802 q 214 802 273 802 l 87 802 q 80 840 82 825 q 77 866 77 855 q 79 887 77 877 q 83 905 81 897 q 89 921 85 913 l 649 921 l 663 811 l 260 205 l 177 120 q 260 120 218 120 q 345 120 303 120 q 426 121 387 121 q 500 121 466 121 l 659 121 q 661 110 660 115 q 663 99 662 105 q 663 87 663 93 q 659 51 663 73 q 644 0 655 29 l 56 0 l 28 111 m 330 1008 q 309 1020 320 1013 q 288 1035 298 1027 q 271 1052 278 1043 q 260 1069 263 1061 l 460 1303 q 491 1288 473 1299 q 527 1263 509 1277 q 560 1235 545 1249 q 579 1211 574 1221 l 330 1008 l 330 1008 z "},"Ž":{"ha":712,"x_min":28,"x_max":663,"o":"m 28 111 l 430 718 l 505 803 q 348 802 422 802 q 214 802 273 802 l 87 802 q 80 840 82 825 q 77 866 77 855 q 79 887 77 877 q 83 905 81 897 q 89 921 85 913 l 649 921 l 663 811 l 260 205 l 177 120 q 260 120 218 120 q 345 120 303 120 q 426 121 387 121 q 500 121 466 121 l 659 121 q 661 110 660 115 q 663 99 662 105 q 663 87 663 93 q 659 51 663 73 q 644 0 655 29 l 56 0 l 28 111 m 116 1253 l 252 1253 l 360 1106 l 372 1106 l 472 1253 l 609 1253 l 450 1012 l 270 1012 l 116 1253 z "},"Ż":{"ha":712,"x_min":28,"x_max":663,"o":"m 28 111 l 430 718 l 505 803 q 348 802 422 802 q 214 802 273 802 l 87 802 q 80 840 82 825 q 77 866 77 855 q 79 887 77 877 q 83 905 81 897 q 89 921 85 913 l 649 921 l 663 811 l 260 205 l 177 120 q 260 120 218 120 q 345 120 303 120 q 426 121 387 121 q 500 121 466 121 l 659 121 q 661 110 660 115 q 663 99 662 105 q 663 87 663 93 q 659 51 663 73 q 644 0 655 29 l 56 0 l 28 111 m 363 1012 q 328 1019 345 1012 q 299 1037 311 1025 q 279 1064 286 1048 q 271 1097 271 1080 q 279 1131 271 1115 q 299 1158 286 1146 q 328 1176 311 1169 q 363 1183 345 1183 q 399 1176 382 1183 q 429 1158 416 1169 q 450 1131 442 1146 q 457 1097 457 1115 q 450 1064 457 1080 q 429 1037 442 1048 q 399 1019 416 1025 q 363 1012 382 1012 z "},"ā":{"ha":673,"x_min":43,"x_max":638,"o":"m 43 198 q 60 294 43 254 q 107 358 76 333 q 184 396 139 383 q 288 412 229 408 l 439 420 l 439 474 q 432 534 439 511 q 411 572 426 558 q 371 592 396 587 q 310 598 347 598 q 240 590 273 598 q 183 572 208 582 q 130 547 154 561 q 106 587 115 568 q 92 622 97 606 q 84 656 86 640 q 154 684 117 672 q 229 704 186 695 q 318 713 271 713 q 446 699 395 713 q 527 658 497 686 q 569 589 557 631 q 581 490 581 547 l 581 112 l 638 43 l 638 0 l 513 0 l 460 60 l 436 60 q 418 45 433 57 q 381 20 404 33 q 329 -3 358 7 q 268 -14 300 -14 q 176 2 217 -14 q 105 45 134 17 q 59 112 75 73 q 43 198 43 151 m 191 210 q 200 158 191 179 q 225 125 209 138 q 263 109 241 113 q 314 104 286 104 q 362 110 340 104 q 402 125 385 117 q 439 146 422 134 l 439 328 l 302 319 q 249 309 271 317 q 215 286 228 300 q 197 252 202 271 q 191 210 191 233 m 132 882 q 123 936 123 915 q 125 962 123 948 q 132 989 127 975 l 570 989 q 574 964 573 976 q 576 942 576 951 q 573 913 576 928 q 566 882 571 898 l 132 882 l 132 882 z "},"ć":{"ha":582,"x_min":54,"x_max":549,"o":"m 54 348 q 75 506 54 437 q 139 620 97 574 q 241 689 180 666 q 380 713 302 713 q 437 707 408 713 q 490 696 467 702 q 543 679 517 688 q 537 640 541 660 q 527 601 534 622 q 511 561 521 581 q 472 575 493 568 q 430 585 454 581 q 380 590 406 590 q 301 573 334 590 q 245 525 267 557 q 212 449 222 494 q 201 349 201 404 q 248 163 201 227 q 387 100 295 100 q 438 105 414 100 q 482 115 463 109 q 524 130 505 121 q 536 97 531 115 q 545 61 541 81 q 548 18 549 41 q 496 2 523 9 q 444 -9 473 -4 q 387 -14 415 -14 q 140 77 227 -14 q 54 348 54 168 m 302 793 q 280 804 292 797 q 259 819 269 811 q 241 837 249 827 q 231 854 234 846 l 397 1088 q 428 1074 409 1085 q 465 1049 446 1063 q 497 1020 483 1035 q 517 996 512 1006 l 302 793 l 302 793 z "},"ĉ":{"ha":582,"x_min":54,"x_max":582,"o":"m 54 348 q 75 506 54 437 q 139 620 97 574 q 241 689 180 666 q 380 713 302 713 q 437 707 408 713 q 490 696 467 702 q 543 679 517 688 q 537 640 541 660 q 527 601 534 622 q 511 561 521 581 q 472 575 493 568 q 430 585 454 581 q 380 590 406 590 q 301 573 334 590 q 245 525 267 557 q 212 449 222 494 q 201 349 201 404 q 248 163 201 227 q 387 100 295 100 q 438 105 414 100 q 482 115 463 109 q 524 130 505 121 q 536 97 531 115 q 545 61 541 81 q 548 18 549 41 q 496 2 523 9 q 444 -9 473 -4 q 387 -14 415 -14 q 140 77 227 -14 q 54 348 54 168 m 256 1095 l 431 1095 l 582 789 l 464 789 l 342 1020 l 214 789 l 96 789 l 256 1095 z "},"č":{"ha":582,"x_min":54,"x_max":583,"o":"m 54 348 q 75 506 54 437 q 139 620 97 574 q 241 689 180 666 q 380 713 302 713 q 437 707 408 713 q 490 696 467 702 q 543 679 517 688 q 537 640 541 660 q 527 601 534 622 q 511 561 521 581 q 472 575 493 568 q 430 585 454 581 q 380 590 406 590 q 301 573 334 590 q 245 525 267 557 q 212 449 222 494 q 201 349 201 404 q 248 163 201 227 q 387 100 295 100 q 438 105 414 100 q 482 115 463 109 q 524 130 505 121 q 536 97 531 115 q 545 61 541 81 q 548 18 549 41 q 496 2 523 9 q 444 -9 473 -4 q 387 -14 415 -14 q 140 77 227 -14 q 54 348 54 168 m 97 1095 l 232 1095 l 340 883 l 347 883 l 446 1095 l 583 1095 l 430 802 l 248 802 l 97 1095 z "},"ċ":{"ha":582,"x_min":54,"x_max":549,"o":"m 54 348 q 75 506 54 437 q 139 620 97 574 q 241 689 180 666 q 380 713 302 713 q 437 707 408 713 q 490 696 467 702 q 543 679 517 688 q 537 640 541 660 q 527 601 534 622 q 511 561 521 581 q 472 575 493 568 q 430 585 454 581 q 380 590 406 590 q 301 573 334 590 q 245 525 267 557 q 212 449 222 494 q 201 349 201 404 q 248 163 201 227 q 387 100 295 100 q 438 105 414 100 q 482 115 463 109 q 524 130 505 121 q 536 97 531 115 q 545 61 541 81 q 548 18 549 41 q 496 2 523 9 q 444 -9 473 -4 q 387 -14 415 -14 q 140 77 227 -14 q 54 348 54 168 m 344 831 q 308 838 325 831 q 279 856 292 844 q 259 883 267 867 q 252 916 252 898 q 259 949 252 934 q 279 977 267 965 q 308 995 292 988 q 344 1001 325 1001 q 380 995 363 1001 q 409 977 397 988 q 429 949 422 965 q 437 916 437 934 q 429 883 437 898 q 409 856 422 867 q 380 838 397 844 q 344 831 363 831 z "},"ǽ":{"ha":1069,"x_min":45,"x_max":1017,"o":"m 45 215 q 65 300 45 264 q 117 360 85 336 q 191 396 149 383 q 276 412 232 408 q 361 415 321 413 q 448 418 401 416 l 448 475 q 441 534 448 510 q 420 574 435 559 q 380 596 406 589 q 316 603 355 603 q 250 596 281 603 q 195 582 218 589 q 144 561 168 572 q 120 598 128 581 q 108 631 112 616 q 102 662 103 648 q 168 687 133 675 q 237 704 199 696 q 316 712 275 712 q 410 706 371 712 q 476 688 449 700 q 520 661 503 677 q 549 625 537 645 q 590 660 567 644 q 639 688 613 676 q 693 706 665 699 q 749 712 722 712 q 862 694 812 712 q 946 641 911 675 q 998 558 980 607 q 1017 450 1017 510 q 1016 409 1017 428 q 1013 376 1015 390 q 1010 345 1012 359 l 583 332 q 632 159 584 217 q 770 100 680 100 q 839 107 806 100 q 898 121 872 113 q 954 142 928 130 q 971 97 964 117 q 981 62 977 77 q 986 31 985 44 q 923 9 957 18 q 854 -7 893 0 q 770 -14 815 -14 q 627 12 686 -14 q 528 86 569 37 l 513 86 q 494 65 509 81 q 451 31 479 49 q 380 0 422 14 q 279 -14 338 -14 q 185 2 229 -14 q 112 47 142 18 q 63 119 81 77 q 45 215 45 161 m 193 221 q 204 166 193 189 q 233 128 214 143 q 275 105 251 113 q 328 98 300 98 q 379 105 355 98 q 423 123 404 113 q 457 144 443 133 q 479 162 471 155 q 458 235 467 194 q 448 320 449 275 l 290 313 q 215 288 237 311 q 193 221 193 264 m 589 426 q 664 429 627 427 q 738 432 701 431 q 812 436 774 434 q 888 439 849 437 q 879 511 888 480 q 854 562 870 542 q 815 593 838 583 q 765 603 792 603 q 647 557 692 603 q 589 426 602 512 m 512 793 q 491 804 502 797 q 469 819 479 811 q 452 837 459 827 q 441 854 444 846 l 607 1088 q 638 1074 619 1085 q 675 1049 656 1063 q 708 1020 693 1035 q 727 996 722 1006 l 512 793 l 512 793 z "},"ě":{"ha":707,"x_min":52,"x_max":654,"o":"m 52 340 q 76 508 52 437 q 142 624 100 578 q 244 691 185 669 q 375 712 304 712 q 493 690 441 712 q 581 628 545 668 q 635 532 616 588 q 654 410 654 477 q 652 367 654 387 q 648 333 650 347 q 642 302 645 316 l 197 304 q 210 204 197 244 q 246 142 222 165 q 307 110 270 119 q 393 100 343 100 q 470 106 436 100 q 528 119 504 111 q 576 138 555 127 q 592 94 587 114 q 601 58 598 73 q 605 27 604 41 q 551 7 583 16 q 484 -7 524 -1 q 393 -14 445 -14 q 249 5 312 -14 q 141 65 185 23 q 75 174 98 106 q 52 340 52 241 m 509 404 l 509 427 q 499 502 509 469 q 470 557 488 535 q 427 591 452 580 q 372 603 401 603 q 297 592 330 603 q 242 556 264 581 q 210 494 220 532 q 199 404 199 456 l 509 404 m 109 1095 l 244 1095 l 353 883 l 359 883 l 458 1095 l 595 1095 l 442 802 l 260 802 l 109 1095 z "},"ē":{"ha":707,"x_min":52,"x_max":654,"o":"m 52 340 q 76 508 52 437 q 142 624 100 578 q 244 691 185 669 q 375 712 304 712 q 493 690 441 712 q 581 628 545 668 q 635 532 616 588 q 654 410 654 477 q 652 367 654 387 q 648 333 650 347 q 642 302 645 316 l 197 304 q 210 204 197 244 q 246 142 222 165 q 307 110 270 119 q 393 100 343 100 q 470 106 436 100 q 528 119 504 111 q 576 138 555 127 q 592 94 587 114 q 601 58 598 73 q 605 27 604 41 q 551 7 583 16 q 484 -7 524 -1 q 393 -14 445 -14 q 249 5 312 -14 q 141 65 185 23 q 75 174 98 106 q 52 340 52 241 m 509 404 l 509 427 q 499 502 509 469 q 470 557 488 535 q 427 591 452 580 q 372 603 401 603 q 297 592 330 603 q 242 556 264 581 q 210 494 220 532 q 199 404 199 456 l 509 404 m 136 882 q 127 936 127 915 q 130 962 127 948 q 137 989 132 975 l 574 989 q 579 964 578 976 q 581 942 581 951 q 578 913 581 928 q 570 882 576 898 l 136 882 l 136 882 z "},"ė":{"ha":707,"x_min":52,"x_max":654,"o":"m 52 340 q 76 508 52 437 q 142 624 100 578 q 244 691 185 669 q 375 712 304 712 q 493 690 441 712 q 581 628 545 668 q 635 532 616 588 q 654 410 654 477 q 652 367 654 387 q 648 333 650 347 q 642 302 645 316 l 197 304 q 210 204 197 244 q 246 142 222 165 q 307 110 270 119 q 393 100 343 100 q 470 106 436 100 q 528 119 504 111 q 576 138 555 127 q 592 94 587 114 q 601 58 598 73 q 605 27 604 41 q 551 7 583 16 q 484 -7 524 -1 q 393 -14 445 -14 q 249 5 312 -14 q 141 65 185 23 q 75 174 98 106 q 52 340 52 241 m 509 404 l 509 427 q 499 502 509 469 q 470 557 488 535 q 427 591 452 580 q 372 603 401 603 q 297 592 330 603 q 242 556 264 581 q 210 494 220 532 q 199 404 199 456 l 509 404 m 356 831 q 320 838 337 831 q 291 856 304 844 q 271 883 279 867 q 264 916 264 898 q 271 949 264 934 q 291 977 279 965 q 320 995 304 988 q 356 1001 337 1001 q 392 995 375 1001 q 421 977 409 988 q 441 949 434 965 q 449 916 449 934 q 441 883 449 898 q 421 856 434 867 q 392 838 409 844 q 356 831 375 831 z "},"ĝ":{"ha":751,"x_min":64,"x_max":713,"o":"m 144 28 q 121 73 129 47 q 113 127 113 99 q 117 182 113 159 q 127 221 121 205 q 141 252 133 239 l 141 283 q 89 360 109 316 q 70 467 70 404 q 90 569 70 524 q 145 646 109 614 q 233 694 182 677 q 349 711 285 711 l 349 711 q 424 708 394 711 q 471 701 453 705 q 505 690 493 696 l 696 710 l 696 600 l 586 600 q 604 577 595 591 q 622 545 614 563 q 634 508 629 528 q 640 467 640 488 q 618 365 640 411 q 557 286 596 319 q 466 235 519 253 q 349 216 412 216 l 349 216 q 318 217 334 216 q 285 220 302 218 q 252 224 268 222 q 224 230 237 227 l 224 136 q 229 123 224 129 q 240 114 233 118 q 256 109 248 111 q 273 106 265 106 l 541 106 q 622 93 589 106 q 675 55 655 79 q 705 -3 696 31 q 713 -77 713 -37 q 691 -176 713 -129 q 624 -258 668 -222 q 514 -314 580 -293 q 363 -334 449 -334 l 363 -334 q 237 -319 292 -334 q 143 -277 181 -304 q 84 -214 104 -250 q 64 -134 64 -177 q 76 -79 64 -106 q 104 -33 88 -53 q 144 12 121 -9 l 144 28 m 349 317 q 418 325 389 317 q 465 351 446 333 q 491 397 483 368 q 500 467 500 425 q 465 577 500 544 q 349 610 429 610 l 349 610 q 281 603 308 610 q 238 577 254 595 q 216 533 222 560 q 210 467 210 506 q 216 401 210 429 q 238 354 222 373 q 280 327 254 336 q 349 317 307 317 l 349 317 m 197 -109 q 202 -146 197 -127 q 225 -182 208 -166 q 277 -209 243 -199 q 366 -220 310 -220 l 367 -220 q 460 -207 420 -220 q 527 -174 500 -195 q 566 -129 553 -154 q 578 -79 578 -104 q 566 -30 578 -47 q 529 -12 553 -12 l 226 -12 q 207 -47 218 -21 q 197 -109 197 -73 m 271 1095 l 446 1095 l 597 789 l 479 789 l 357 1020 l 230 789 l 112 789 l 271 1095 z "},"ġ":{"ha":751,"x_min":64,"x_max":713,"o":"m 144 28 q 121 73 129 47 q 113 127 113 99 q 117 182 113 159 q 127 221 121 205 q 141 252 133 239 l 141 283 q 89 360 109 316 q 70 467 70 404 q 90 569 70 524 q 145 646 109 614 q 233 694 182 677 q 349 711 285 711 l 349 711 q 424 708 394 711 q 471 701 453 705 q 505 690 493 696 l 696 710 l 696 600 l 586 600 q 604 577 595 591 q 622 545 614 563 q 634 508 629 528 q 640 467 640 488 q 618 365 640 411 q 557 286 596 319 q 466 235 519 253 q 349 216 412 216 l 349 216 q 318 217 334 216 q 285 220 302 218 q 252 224 268 222 q 224 230 237 227 l 224 136 q 229 123 224 129 q 240 114 233 118 q 256 109 248 111 q 273 106 265 106 l 541 106 q 622 93 589 106 q 675 55 655 79 q 705 -3 696 31 q 713 -77 713 -37 q 691 -176 713 -129 q 624 -258 668 -222 q 514 -314 580 -293 q 363 -334 449 -334 l 363 -334 q 237 -319 292 -334 q 143 -277 181 -304 q 84 -214 104 -250 q 64 -134 64 -177 q 76 -79 64 -106 q 104 -33 88 -53 q 144 12 121 -9 l 144 28 m 349 317 q 418 325 389 317 q 465 351 446 333 q 491 397 483 368 q 500 467 500 425 q 465 577 500 544 q 349 610 429 610 l 349 610 q 281 603 308 610 q 238 577 254 595 q 216 533 222 560 q 210 467 210 506 q 216 401 210 429 q 238 354 222 373 q 280 327 254 336 q 349 317 307 317 l 349 317 m 197 -109 q 202 -146 197 -127 q 225 -182 208 -166 q 277 -209 243 -199 q 366 -220 310 -220 l 367 -220 q 460 -207 420 -220 q 527 -174 500 -195 q 566 -129 553 -154 q 578 -79 578 -104 q 566 -30 578 -47 q 529 -12 553 -12 l 226 -12 q 207 -47 218 -21 q 197 -109 197 -73 m 359 831 q 324 838 340 831 q 295 856 307 844 q 275 883 282 867 q 267 916 267 898 q 275 949 267 934 q 295 977 282 965 q 324 995 307 988 q 359 1001 340 1001 q 395 995 378 1001 q 425 977 412 988 q 445 949 437 965 q 452 916 452 934 q 445 883 452 898 q 425 856 437 867 q 395 838 412 844 q 359 831 378 831 z "},"ģ":{"ha":751,"x_min":64,"x_max":713,"o":"m 144 28 q 121 73 129 47 q 113 127 113 99 q 117 182 113 159 q 127 221 121 205 q 141 252 133 239 l 141 283 q 89 360 109 316 q 70 467 70 404 q 90 569 70 524 q 145 646 109 614 q 233 694 182 677 q 349 711 285 711 l 349 711 q 424 708 394 711 q 471 701 453 705 q 505 690 493 696 l 696 710 l 696 600 l 586 600 q 604 577 595 591 q 622 545 614 563 q 634 508 629 528 q 640 467 640 488 q 618 365 640 411 q 557 286 596 319 q 466 235 519 253 q 349 216 412 216 l 349 216 q 318 217 334 216 q 285 220 302 218 q 252 224 268 222 q 224 230 237 227 l 224 136 q 229 123 224 129 q 240 114 233 118 q 256 109 248 111 q 273 106 265 106 l 541 106 q 622 93 589 106 q 675 55 655 79 q 705 -3 696 31 q 713 -77 713 -37 q 691 -176 713 -129 q 624 -258 668 -222 q 514 -314 580 -293 q 363 -334 449 -334 l 363 -334 q 237 -319 292 -334 q 143 -277 181 -304 q 84 -214 104 -250 q 64 -134 64 -177 q 76 -79 64 -106 q 104 -33 88 -53 q 144 12 121 -9 l 144 28 m 349 317 q 418 325 389 317 q 465 351 446 333 q 491 397 483 368 q 500 467 500 425 q 465 577 500 544 q 349 610 429 610 l 349 610 q 281 603 308 610 q 238 577 254 595 q 216 533 222 560 q 210 467 210 506 q 216 401 210 429 q 238 354 222 373 q 280 327 254 336 q 349 317 307 317 l 349 317 m 197 -109 q 202 -146 197 -127 q 225 -182 208 -166 q 277 -209 243 -199 q 366 -220 310 -220 l 367 -220 q 460 -207 420 -220 q 527 -174 500 -195 q 566 -129 553 -154 q 578 -79 578 -104 q 566 -30 578 -47 q 529 -12 553 -12 l 226 -12 q 207 -47 218 -21 q 197 -109 197 -73 m 404 800 q 394 800 403 800 q 373 801 386 800 q 343 805 359 802 q 310 813 326 808 q 278 828 293 819 q 252 851 262 838 q 281 949 260 908 q 324 1017 302 989 q 381 1072 351 1050 q 423 1066 404 1070 q 458 1056 440 1063 q 485 1035 475 1048 l 484 1024 q 446 964 464 998 q 419 893 432 935 q 404 800 406 852 z "},"ī":{"ha":353,"x_min":-54,"x_max":399,"o":"m 96 693 l 237 693 l 237 114 l 277 85 l 277 0 l 238 0 l 237 1 l 237 0 q 133 27 170 0 q 96 117 96 54 l 96 693 m -45 873 q -54 927 -54 906 q -52 953 -54 939 q -44 981 -50 966 l 393 981 q 398 955 397 967 q 399 933 399 943 q 397 904 399 920 q 389 873 395 889 l -45 873 l -45 873 z "},"ỳ":{"ha":663,"x_min":17,"x_max":654,"o":"m 17 693 l 170 693 l 302 186 l 331 51 l 361 186 l 497 693 l 654 693 l 346 -316 l 199 -316 l 312 0 l 225 0 l 17 693 m 168 996 q 187 1020 172 1006 q 220 1049 201 1035 q 257 1074 238 1063 q 288 1088 275 1085 l 454 854 q 443 837 450 846 q 425 819 435 827 q 404 804 415 811 q 382 793 393 797 l 168 996 z "},"ŷ":{"ha":663,"x_min":17,"x_max":654,"o":"m 17 693 l 170 693 l 302 186 l 331 51 l 361 186 l 497 693 l 654 693 l 346 -316 l 199 -316 l 312 0 l 225 0 l 17 693 m 245 1095 l 420 1095 l 571 789 l 453 789 l 331 1020 l 203 789 l 85 789 l 245 1095 z "},"ẁ":{"ha":1045,"x_min":12,"x_max":1033,"o":"m 12 693 l 157 693 l 285 158 l 300 71 l 314 157 l 432 693 l 616 693 l 740 158 l 756 71 l 771 158 l 892 693 l 1033 693 l 858 0 l 651 0 l 540 495 l 522 595 l 505 495 l 404 0 l 193 0 l 12 693 m 361 996 q 380 1020 366 1006 q 413 1049 395 1035 q 450 1074 431 1063 q 481 1088 469 1085 l 647 854 q 636 837 644 846 q 618 819 629 827 q 597 804 608 811 q 576 793 586 797 l 361 996 z "},"ẃ":{"ha":1045,"x_min":12,"x_max":1033,"o":"m 12 693 l 157 693 l 285 158 l 300 71 l 314 157 l 432 693 l 616 693 l 740 158 l 756 71 l 771 158 l 892 693 l 1033 693 l 858 0 l 651 0 l 540 495 l 522 595 l 505 495 l 404 0 l 193 0 l 12 693 m 484 793 q 463 804 474 797 q 441 819 452 811 q 424 837 431 827 q 413 854 416 846 l 579 1088 q 610 1074 591 1085 q 647 1049 629 1063 q 680 1020 665 1035 q 699 996 694 1006 l 484 793 l 484 793 z "},"ŵ":{"ha":1045,"x_min":12,"x_max":1033,"o":"m 12 693 l 157 693 l 285 158 l 300 71 l 314 157 l 432 693 l 616 693 l 740 158 l 756 71 l 771 158 l 892 693 l 1033 693 l 858 0 l 651 0 l 540 495 l 522 595 l 505 495 l 404 0 l 193 0 l 12 693 m 438 1095 l 613 1095 l 764 789 l 646 789 l 524 1020 l 397 789 l 279 789 l 438 1095 z "},"ẅ":{"ha":1045,"x_min":12,"x_max":1033,"o":"m 12 693 l 157 693 l 285 158 l 300 71 l 314 157 l 432 693 l 616 693 l 740 158 l 756 71 l 771 158 l 892 693 l 1033 693 l 858 0 l 651 0 l 540 495 l 522 595 l 505 495 l 404 0 l 193 0 l 12 693 m 377 831 q 341 838 358 831 q 312 856 325 844 q 293 883 300 867 q 286 916 286 898 q 293 949 286 934 q 312 977 300 965 q 341 995 325 988 q 377 1001 358 1001 q 413 995 396 1001 q 443 977 430 988 q 463 949 456 965 q 471 916 471 934 q 463 883 471 898 q 443 856 456 867 q 413 838 430 844 q 377 831 396 831 m 669 831 q 634 838 650 831 q 605 856 617 844 q 585 883 592 867 q 578 916 578 898 q 585 949 578 934 q 605 977 592 965 q 634 995 617 988 q 669 1001 650 1001 q 705 995 688 1001 q 735 977 722 988 q 755 949 748 965 q 763 916 763 934 q 755 883 763 898 q 735 856 748 867 q 705 838 722 844 q 669 831 688 831 z "},"ũ":{"ha":743,"x_min":76,"x_max":696,"o":"m 76 693 l 221 693 l 221 240 q 250 133 221 168 q 345 98 278 98 q 404 103 378 98 q 450 116 431 109 q 490 135 473 124 l 490 693 l 636 693 l 636 112 l 696 43 l 696 0 l 566 0 l 512 54 l 486 54 q 466 39 481 50 q 428 16 451 28 q 374 -5 404 4 q 307 -14 343 -14 q 207 3 250 -14 q 134 52 163 20 q 91 128 105 83 q 76 227 76 172 l 76 693 m 218 840 q 183 865 197 852 q 159 890 169 879 q 142 916 149 903 q 189 966 163 943 q 242 1000 212 985 q 309 1016 272 1016 q 361 1003 339 1016 q 403 975 383 990 q 434 954 419 963 q 463 945 449 945 q 491 953 477 945 q 514 972 504 962 q 537 1001 526 985 q 574 975 559 988 q 598 951 589 962 q 615 926 609 939 q 568 876 594 899 q 515 842 545 857 q 448 827 484 827 q 394 840 416 827 q 352 867 372 852 q 321 889 336 880 q 293 898 307 898 q 265 889 279 898 q 241 869 252 880 q 218 840 229 857 z "},"ū":{"ha":743,"x_min":76,"x_max":696,"o":"m 76 693 l 221 693 l 221 240 q 250 133 221 168 q 345 98 278 98 q 404 103 378 98 q 450 116 431 109 q 490 135 473 124 l 490 693 l 636 693 l 636 112 l 696 43 l 696 0 l 566 0 l 512 54 l 486 54 q 466 39 481 50 q 428 16 451 28 q 374 -5 404 4 q 307 -14 343 -14 q 207 3 250 -14 q 134 52 163 20 q 91 128 105 83 q 76 227 76 172 l 76 693 m 160 882 q 151 936 151 915 q 153 962 151 948 q 161 989 155 975 l 598 989 q 603 964 602 976 q 604 942 604 951 q 602 913 604 928 q 594 882 600 898 l 160 882 l 160 882 z "},"ů":{"ha":743,"x_min":76,"x_max":696,"o":"m 76 693 l 221 693 l 221 240 q 250 133 221 168 q 345 98 278 98 q 404 103 378 98 q 450 116 431 109 q 490 135 473 124 l 490 693 l 636 693 l 636 112 l 696 43 l 696 0 l 566 0 l 512 54 l 486 54 q 466 39 481 50 q 428 16 451 28 q 374 -5 404 4 q 307 -14 343 -14 q 207 3 250 -14 q 134 52 163 20 q 91 128 105 83 q 76 227 76 172 l 76 693 m 378 789 q 291 801 330 789 q 227 837 253 814 q 186 892 200 860 q 173 964 173 924 q 186 1035 173 1003 q 227 1090 200 1067 q 291 1126 253 1114 q 378 1139 330 1139 q 465 1127 426 1139 q 531 1092 504 1114 q 573 1037 558 1069 q 588 968 588 1006 q 573 894 588 927 q 531 837 558 861 q 465 801 504 814 q 378 789 426 789 m 378 876 q 417 884 400 876 q 445 905 433 892 q 461 935 456 918 q 467 969 467 951 q 445 1030 467 1006 q 378 1055 422 1055 q 341 1047 358 1055 q 313 1027 325 1040 q 294 998 300 1015 q 288 964 288 982 q 294 929 288 945 q 313 901 300 913 q 341 882 325 889 q 378 876 358 876 z "}}}
